SplineFontDB: 3.0
FontName: Share-Bold
FullName: Share Bold
FamilyName: Share
Weight: Bold
Copyright: Copyright (c) 2005-2011, Carrois Type Design (carrois.com), with Reserved Font Name "Share"
Version: 1.001
ItalicAngle: 0
UnderlinePosition: -61
UnderlineWidth: 75
Ascent: 800
Descent: 200
sfntRevision: 0x00010000
LayerCount: 2
Layer: 0 1 "Back"  1
Layer: 1 1 "Fore"  0
XUID: [1021 797 1225140203 3915453]
FSType: 0
OS2Version: 2
OS2_WeightWidthSlopeOnly: 0
OS2_UseTypoMetrics: 1
CreationTime: 1130492199
ModificationTime: 1327419334
PfmFamily: 17
TTFWeight: 700
TTFWidth: 5
LineGap: 0
VLineGap: 0
Panose: 2 0 8 6 4 0 0 2 0 4
OS2TypoAscent: 85
OS2TypoAOffset: 1
OS2TypoDescent: -42
OS2TypoDOffset: 1
OS2TypoLinegap: 0
OS2WinAscent: 0
OS2WinAOffset: 1
OS2WinDescent: 0
OS2WinDOffset: 1
HheadAscent: 0
HheadAOffset: 1
HheadDescent: 0
HheadDOffset: 1
OS2SubXSize: 700
OS2SubYSize: 650
OS2SubXOff: 0
OS2SubYOff: 140
OS2SupXSize: 700
OS2SupYSize: 650
OS2SupXOff: 0
OS2SupYOff: 477
OS2StrikeYSize: 50
OS2StrikeYPos: 250
OS2Vendor: 'pyrs'
OS2CodePages: 20000001.00000000
OS2UnicodeRanges: 800000af.4000204a.00000000.00000000
Lookup: 1 0 0 "'aalt' Access All Alternates in Latin lookup 0"  {"'aalt' Access All Alternates in Latin lookup 0 subtable"  } ['aalt' ('latn' <'dflt' > ) ]
Lookup: 4 0 0 "'frac' Diagonal Fractions in Latin lookup 1"  {"'frac' Diagonal Fractions in Latin lookup 1 subtable"  } ['frac' ('latn' <'dflt' > ) ]
Lookup: 1 0 0 "'numr' Numerators in Latin lookup 2"  {"'numr' Numerators in Latin lookup 2 subtable"  } ['numr' ('latn' <'dflt' > ) ]
Lookup: 4 0 1 "'liga' Standard Ligatures in Latin lookup 3"  {"'liga' Standard Ligatures in Latin lookup 3 subtable"  } ['liga' ('latn' <'dflt' > ) ]
Lookup: 1 0 0 "'ordn' Ordinals in Latin lookup 4"  {"'ordn' Ordinals in Latin lookup 4 subtable"  } ['ordn' ('latn' <'dflt' > ) ]
Lookup: 1 0 0 "'sups' Superscript in Latin lookup 5"  {"'sups' Superscript in Latin lookup 5 subtable" ("superior" ) } ['sups' ('latn' <'dflt' > ) ]

StartChar: .notdef
Encoding: 65536 -1 0
Width: 522
Flags: W
LayerCount: 2
Fore
SplineSet
65 700 m 1,0,-1
 457 700 l 1,1,-1
 457 0 l 1,2,-1
 65 0 l 1,3,-1
 65 700 l 1,0,-1
342 102 m 1,4,-1
 342 598 l 1,5,-1
 180 598 l 1,6,-1
 180 102 l 1,7,-1
 342 102 l 1,4,-1
EndSplineSet
EndChar

StartChar: numbersign
Encoding: 35 35 4
Width: 496
Flags: W
LayerCount: 2
Fore
SplineSet
284 425 m 1,0,-1
 224 425 l 1,1,-1
 212 285 l 1,2,-1
 272 285 l 1,3,-1
 284 425 l 1,0,-1
389 170 m 1,4,-1
 374 0 l 1,5,-1
 247 0 l 1,6,-1
 262 170 l 1,7,-1
 202 170 l 1,8,-1
 187 0 l 1,9,-1
 60 0 l 1,10,-1
 75 170 l 1,11,-1
 15 170 l 1,12,-1
 25 285 l 1,13,-1
 85 285 l 1,14,-1
 97 425 l 1,15,-1
 37 425 l 1,16,-1
 47 540 l 1,17,-1
 107 540 l 1,18,-1
 121 700 l 1,19,-1
 248 700 l 1,20,-1
 234 540 l 1,21,-1
 294 540 l 1,22,-1
 308 700 l 1,23,-1
 435 700 l 1,24,-1
 421 540 l 1,25,-1
 481 540 l 1,26,-1
 471 425 l 1,27,-1
 411 425 l 1,28,-1
 399 285 l 1,29,-1
 459 285 l 1,30,-1
 449 170 l 1,31,-1
 389 170 l 1,4,-1
EndSplineSet
EndChar

StartChar: dollar
Encoding: 36 36 5
Width: 470
Flags: W
LayerCount: 2
Fore
SplineSet
177 -110 m 1,0,-1
 177 -7 l 1,1,2
 146 -6 146 -6 116 -2.5 c 128,-1,3
 86 1 86 1 63 7 c 1,4,-1
 63 126 l 1,5,6
 86 120 86 120 119.5 115.5 c 128,-1,7
 153 111 153 111 182 111 c 0,8,9
 236 111 236 111 257.5 132 c 128,-1,10
 279 153 279 153 279 198 c 0,11,12
 279 280 279 280 199 296 c 0,13,14
 127 311 127 311 89.5 356 c 128,-1,15
 52 401 52 401 52 482 c 0,16,17
 52 554 52 554 81.5 599 c 128,-1,18
 111 644 111 644 177 664 c 1,19,-1
 177 780 l 1,20,-1
 302 780 l 1,21,-1
 302 676 l 1,22,23
 325 674 325 674 351.5 670.5 c 128,-1,24
 378 667 378 667 396 662 c 1,25,-1
 396 544 l 1,26,27
 383 547 383 547 367 549.5 c 128,-1,28
 351 552 351 552 334.5 554.5 c 128,-1,29
 318 557 318 557 301.5 558 c 128,-1,30
 285 559 285 559 272 559 c 0,31,32
 235 559 235 559 213 547 c 128,-1,33
 191 535 191 535 191 493 c 0,34,35
 191 458 191 458 206.5 437.5 c 128,-1,36
 222 417 222 417 262 409 c 0,37,38
 298 402 298 402 327 388 c 128,-1,39
 356 374 356 374 376 350.5 c 128,-1,40
 396 327 396 327 407 292.5 c 128,-1,41
 418 258 418 258 418 208 c 0,42,43
 418 161 418 161 410 126.5 c 128,-1,44
 402 92 402 92 387 67.5 c 128,-1,45
 372 43 372 43 350.5 28 c 128,-1,46
 329 13 329 13 302 5 c 1,47,-1
 302 -110 l 1,48,-1
 177 -110 l 1,0,-1
EndSplineSet
EndChar

StartChar: percent
Encoding: 37 37 6
Width: 916
Flags: W
LayerCount: 2
Fore
SplineSet
270 496 m 0,0,1
 270 534 270 534 268 558.5 c 128,-1,2
 266 583 266 583 260.5 596.5 c 128,-1,3
 255 610 255 610 246 615 c 128,-1,4
 237 620 237 620 222 620 c 256,5,6
 207 620 207 620 198 615.5 c 128,-1,7
 189 611 189 611 183.5 597.5 c 128,-1,8
 178 584 178 584 176 559.5 c 128,-1,9
 174 535 174 535 174 496 c 0,10,11
 174 459 174 459 176 435 c 128,-1,12
 178 411 178 411 183 397 c 128,-1,13
 188 383 188 383 197.5 377.5 c 128,-1,14
 207 372 207 372 222 372 c 256,15,16
 237 372 237 372 246.5 377.5 c 128,-1,17
 256 383 256 383 261 397 c 128,-1,18
 266 411 266 411 268 435 c 128,-1,19
 270 459 270 459 270 496 c 0,0,1
379 500 m 256,20,21
 379 453 379 453 372.5 413.5 c 128,-1,22
 366 374 366 374 349 345 c 128,-1,23
 332 316 332 316 301 299.5 c 128,-1,24
 270 283 270 283 222 283 c 256,25,26
 174 283 174 283 143 299.5 c 128,-1,27
 112 316 112 316 95 345 c 128,-1,28
 78 374 78 374 71.5 413.5 c 128,-1,29
 65 453 65 453 65 500 c 256,30,31
 65 547 65 547 71.5 585.5 c 128,-1,32
 78 624 78 624 95 651.5 c 128,-1,33
 112 679 112 679 143 694 c 128,-1,34
 174 709 174 709 222 709 c 256,35,36
 270 709 270 709 301 694 c 128,-1,37
 332 679 332 679 349 651.5 c 128,-1,38
 366 624 366 624 372.5 585.5 c 128,-1,39
 379 547 379 547 379 500 c 256,20,21
395 0 m 1,40,-1
 277 0 l 1,41,-1
 522 700 l 1,42,-1
 640 700 l 1,43,-1
 395 0 l 1,40,-1
742 204 m 0,44,45
 742 242 742 242 740 266.5 c 128,-1,46
 738 291 738 291 732.5 304.5 c 128,-1,47
 727 318 727 318 718 323 c 128,-1,48
 709 328 709 328 694 328 c 256,49,50
 679 328 679 328 670 323.5 c 128,-1,51
 661 319 661 319 655.5 305.5 c 128,-1,52
 650 292 650 292 648 267.5 c 128,-1,53
 646 243 646 243 646 204 c 0,54,55
 646 167 646 167 648 143 c 128,-1,56
 650 119 650 119 655 105 c 128,-1,57
 660 91 660 91 669.5 85.5 c 128,-1,58
 679 80 679 80 694 80 c 256,59,60
 709 80 709 80 718.5 85.5 c 128,-1,61
 728 91 728 91 733 105 c 128,-1,62
 738 119 738 119 740 143 c 128,-1,63
 742 167 742 167 742 204 c 0,44,45
851 208 m 256,64,65
 851 161 851 161 844.5 121.5 c 128,-1,66
 838 82 838 82 821 53 c 128,-1,67
 804 24 804 24 773 7.5 c 128,-1,68
 742 -9 742 -9 694 -9 c 256,69,70
 646 -9 646 -9 615 7.5 c 128,-1,71
 584 24 584 24 567 53 c 128,-1,72
 550 82 550 82 543.5 121.5 c 128,-1,73
 537 161 537 161 537 208 c 256,74,75
 537 255 537 255 543.5 293.5 c 128,-1,76
 550 332 550 332 567 359.5 c 128,-1,77
 584 387 584 387 615 402 c 128,-1,78
 646 417 646 417 694 417 c 256,79,80
 742 417 742 417 773 402 c 128,-1,81
 804 387 804 387 821 359.5 c 128,-1,82
 838 332 838 332 844.5 293.5 c 128,-1,83
 851 255 851 255 851 208 c 256,64,65
EndSplineSet
Ligature2: "'frac' Diagonal Fractions in Latin lookup 1 subtable" zero fraction zero
Ligature2: "'frac' Diagonal Fractions in Latin lookup 1 subtable" zero slash zero
EndChar

StartChar: ampersand
Encoding: 38 38 7
Width: 515
Flags: W
LayerCount: 2
Fore
SplineSet
45 214 m 0,0,1
 45 291 45 291 61.5 335.5 c 128,-1,2
 78 380 78 380 125 399 c 1,3,4
 89 421 89 421 73.5 454 c 128,-1,5
 58 487 58 487 58 524 c 0,6,7
 58 580 58 580 70 615.5 c 128,-1,8
 82 651 82 651 105 671.5 c 128,-1,9
 128 692 128 692 162 700 c 128,-1,10
 196 708 196 708 240 708 c 0,11,12
 259 708 259 708 281.5 706.5 c 128,-1,13
 304 705 304 705 324.5 703 c 128,-1,14
 345 701 345 701 360.5 699 c 128,-1,15
 376 697 376 697 380 695 c 1,16,-1
 380 582 l 1,17,18
 376 583 376 583 362 585 c 128,-1,19
 348 587 348 587 331 589.5 c 128,-1,20
 314 592 314 592 296.5 593.5 c 128,-1,21
 279 595 279 595 268 595 c 0,22,23
 224 595 224 595 208.5 581.5 c 128,-1,24
 193 568 193 568 193 530 c 0,25,26
 193 483 193 483 208.5 466 c 128,-1,27
 224 449 224 449 272 449 c 2,28,-1
 500 449 l 1,29,-1
 500 336 l 1,30,-1
 427 336 l 1,31,-1
 427 9 l 1,32,33
 387 1 387 1 335.5 -4.5 c 128,-1,34
 284 -10 284 -10 230 -10 c 0,35,36
 180 -10 180 -10 144.5 2.5 c 128,-1,37
 109 15 109 15 87 42 c 128,-1,38
 65 69 65 69 55 111.5 c 128,-1,39
 45 154 45 154 45 214 c 0,0,1
257 336 m 1,40,41
 235 336 235 336 220.5 330.5 c 128,-1,42
 206 325 206 325 197 310 c 128,-1,43
 188 295 188 295 184.5 269.5 c 128,-1,44
 181 244 181 244 181 204 c 0,45,46
 181 153 181 153 195 128 c 128,-1,47
 209 103 209 103 247 103 c 0,48,49
 264 103 264 103 277.5 105 c 128,-1,50
 291 107 291 107 300 110 c 1,51,-1
 300 336 l 1,52,-1
 257 336 l 1,53,-1
 257 336 l 1,40,41
EndSplineSet
EndChar

StartChar: quoteright
Encoding: 8217 8217 8
Width: 235
Flags: W
LayerCount: 2
Fore
SplineSet
125 433 m 1,0,-1
 30 433 l 1,1,-1
 60 590 l 1,2,-1
 60 700 l 1,3,-1
 195 700 l 1,4,-1
 195 590 l 1,5,-1
 125 433 l 1,0,-1
EndSplineSet
EndChar

StartChar: parenleft
Encoding: 40 40 9
Width: 325
Flags: W
LayerCount: 2
Fore
SplineSet
40 350 m 256,0,1
 40 490 40 490 69.5 604 c 128,-1,2
 99 718 99 718 167 820 c 1,3,-1
 280 820 l 1,4,5
 249 767 249 767 228.5 714 c 128,-1,6
 208 661 208 661 196 604 c 128,-1,7
 184 547 184 547 179.5 484.5 c 128,-1,8
 175 422 175 422 175 350 c 256,9,10
 175 278 175 278 179.5 215.5 c 128,-1,11
 184 153 184 153 196 96 c 128,-1,12
 208 39 208 39 228.5 -14 c 128,-1,13
 249 -67 249 -67 280 -120 c 1,14,-1
 167 -120 l 1,15,16
 99 -18 99 -18 69.5 96 c 128,-1,17
 40 210 40 210 40 350 c 256,0,1
EndSplineSet
EndChar

StartChar: parenright
Encoding: 41 41 10
Width: 325
Flags: W
LayerCount: 2
Fore
SplineSet
285 350 m 256,0,1
 285 210 285 210 255.5 96 c 128,-1,2
 226 -18 226 -18 158 -120 c 1,3,-1
 45 -120 l 1,4,5
 76 -67 76 -67 96.5 -14 c 128,-1,6
 117 39 117 39 129 96 c 128,-1,7
 141 153 141 153 145.5 215.5 c 128,-1,8
 150 278 150 278 150 350 c 256,9,10
 150 422 150 422 145.5 484.5 c 128,-1,11
 141 547 141 547 129 604 c 128,-1,12
 117 661 117 661 96.5 714 c 128,-1,13
 76 767 76 767 45 820 c 1,14,-1
 158 820 l 1,15,16
 226 718 226 718 255.5 604 c 128,-1,17
 285 490 285 490 285 350 c 256,0,1
EndSplineSet
EndChar

StartChar: asterisk
Encoding: 42 42 11
Width: 525
Flags: W
LayerCount: 2
Fore
SplineSet
351 496 m 1,0,1
 374 468 374 468 401 435 c 128,-1,2
 428 402 428 402 448 378 c 1,3,-1
 342 304 l 1,4,-1
 262 441 l 1,5,6
 252 425 252 425 241 406.5 c 128,-1,7
 230 388 230 388 219.5 369.5 c 128,-1,8
 209 351 209 351 199 333.5 c 128,-1,9
 189 316 189 316 180 302 c 1,10,-1
 76 380 l 1,11,-1
 175 494 l 1,12,13
 141 502 141 502 105.5 508 c 128,-1,14
 70 514 70 514 40 520 c 1,15,-1
 82 642 l 1,16,-1
 212 585 l 1,17,18
 209 620 209 620 203.5 660 c 128,-1,19
 198 700 198 700 196 730 c 1,20,-1
 330 730 l 1,21,-1
 315 585 l 1,22,23
 347 597 347 597 382.5 612.5 c 128,-1,24
 418 628 418 628 447 639 c 1,25,-1
 485 518 l 1,26,-1
 351 496 l 1,0,1
EndSplineSet
EndChar

StartChar: plus
Encoding: 43 43 12
Width: 560
Flags: W
LayerCount: 2
Fore
SplineSet
341 245 m 1,0,-1
 341 87 l 1,1,-1
 219 87 l 1,2,-1
 219 245 l 1,3,-1
 69 245 l 1,4,-1
 69 360 l 1,5,-1
 219 360 l 1,6,-1
 219 518 l 1,7,-1
 341 518 l 1,8,-1
 341 360 l 1,9,-1
 491 360 l 1,10,-1
 491 245 l 1,11,-1
 341 245 l 1,0,-1
EndSplineSet
EndChar

StartChar: comma
Encoding: 44 44 13
Width: 250
Flags: W
LayerCount: 2
Fore
SplineSet
108 -150 m 1,0,-1
 10 -150 l 1,1,-1
 50 0 l 1,2,-1
 50 130 l 1,3,-1
 200 130 l 1,4,-1
 200 0 l 1,5,-1
 108 -150 l 1,0,-1
EndSplineSet
EndChar

StartChar: hyphen
Encoding: 45 45 14
Width: 495
Flags: W
LayerCount: 2
Fore
SplineSet
75 245 m 1,0,-1
 75 360 l 1,1,-1
 420 360 l 1,2,-1
 420 245 l 1,3,-1
 75 245 l 1,0,-1
EndSplineSet
EndChar

StartChar: period
Encoding: 46 46 15
Width: 250
Flags: W
LayerCount: 2
Fore
SplineSet
50 0 m 1,0,-1
 50 130 l 1,1,-1
 200 130 l 1,2,-1
 200 0 l 1,3,-1
 50 0 l 1,0,-1
EndSplineSet
EndChar

StartChar: slash
Encoding: 47 47 16
Width: 325
Flags: W
LayerCount: 2
Fore
SplineSet
216 810 m 1,0,-1
 345 810 l 1,1,-1
 109 -110 l 1,2,-1
 -20 -110 l 1,3,-1
 216 810 l 1,0,-1
EndSplineSet
Substitution2: "'numr' Numerators in Latin lookup 2 subtable" fraction
Substitution2: "'aalt' Access All Alternates in Latin lookup 0 subtable" fraction
EndChar

StartChar: zero
Encoding: 48 48 17
Width: 470
Flags: W
LayerCount: 2
Fore
SplineSet
302 353 m 0,0,1
 302 431 302 431 300.5 479 c 128,-1,2
 299 527 299 527 292 553.5 c 128,-1,3
 285 580 285 580 271.5 589 c 128,-1,4
 258 598 258 598 235 598 c 256,5,6
 212 598 212 598 198.5 589 c 128,-1,7
 185 580 185 580 178.5 553.5 c 128,-1,8
 172 527 172 527 170 479 c 128,-1,9
 168 431 168 431 168 353 c 0,10,11
 168 273 168 273 170 224 c 128,-1,12
 172 175 172 175 178.5 148 c 128,-1,13
 185 121 185 121 198.5 111.5 c 128,-1,14
 212 102 212 102 235 102 c 256,15,16
 258 102 258 102 271.5 111.5 c 128,-1,17
 285 121 285 121 292 148 c 128,-1,18
 299 175 299 175 300.5 224 c 128,-1,19
 302 273 302 273 302 353 c 0,0,1
435 358 m 0,20,21
 435 266 435 266 428 197 c 128,-1,22
 421 128 421 128 399.5 82.5 c 128,-1,23
 378 37 378 37 338.5 14 c 128,-1,24
 299 -9 299 -9 235 -9 c 256,25,26
 171 -9 171 -9 131.5 14 c 128,-1,27
 92 37 92 37 70.5 82.5 c 128,-1,28
 49 128 49 128 42 197 c 128,-1,29
 35 266 35 266 35 358 c 0,30,31
 35 446 35 446 41.5 512 c 128,-1,32
 48 578 48 578 69 621.5 c 128,-1,33
 90 665 90 665 129.5 687 c 128,-1,34
 169 709 169 709 235 709 c 256,35,36
 301 709 301 709 340.5 687 c 128,-1,37
 380 665 380 665 401 621.5 c 128,-1,38
 422 578 422 578 428.5 512 c 128,-1,39
 435 446 435 446 435 358 c 0,20,21
EndSplineSet
EndChar

StartChar: one
Encoding: 49 49 18
Width: 470
Flags: W
LayerCount: 2
Fore
SplineSet
69 0 m 1,0,-1
 69 113 l 1,1,-1
 186 113 l 1,2,-1
 186 578 l 1,3,-1
 59 528 l 1,4,-1
 59 650 l 1,5,-1
 176 700 l 1,6,-1
 319 700 l 1,7,-1
 319 113 l 1,8,-1
 415 113 l 1,9,-1
 415 0 l 1,10,-1
 69 0 l 1,0,-1
EndSplineSet
Substitution2: "'sups' Superscript in Latin lookup 5 subtable" onesuperior
Substitution2: "'numr' Numerators in Latin lookup 2 subtable" onesuperior
Substitution2: "'aalt' Access All Alternates in Latin lookup 0 subtable" onesuperior
EndChar

StartChar: two
Encoding: 50 50 19
Width: 470
Flags: W
LayerCount: 2
Fore
SplineSet
51 0 m 1,0,-1
 51 126 l 1,1,-1
 191 316 l 1,2,3
 217 349 217 349 232 373.5 c 128,-1,4
 247 398 247 398 254.5 419 c 128,-1,5
 262 440 262 440 263.5 461 c 128,-1,6
 265 482 265 482 265 509 c 0,7,8
 265 555 265 555 247.5 575.5 c 128,-1,9
 230 596 230 596 182 596 c 0,10,11
 156 596 156 596 124 589.5 c 128,-1,12
 92 583 92 583 69 578 c 1,13,-1
 69 692 l 1,14,15
 73 693 73 693 86.5 695.5 c 128,-1,16
 100 698 100 698 118.5 701 c 128,-1,17
 137 704 137 704 157.5 706.5 c 128,-1,18
 178 709 178 709 196 709 c 0,19,20
 256 709 256 709 295 695.5 c 128,-1,21
 334 682 334 682 356.5 655.5 c 128,-1,22
 379 629 379 629 388 590 c 128,-1,23
 397 551 397 551 397 500 c 0,24,25
 397 465 397 465 395 439.5 c 128,-1,26
 393 414 393 414 385.5 390.5 c 128,-1,27
 378 367 378 367 363.5 342.5 c 128,-1,28
 349 318 349 318 325 285 c 2,29,-1
 200 114 l 1,30,-1
 400 114 l 1,31,-1
 400 0 l 1,32,-1
 51 0 l 1,0,-1
EndSplineSet
Substitution2: "'sups' Superscript in Latin lookup 5 subtable" twosuperior
Substitution2: "'numr' Numerators in Latin lookup 2 subtable" twosuperior
Substitution2: "'aalt' Access All Alternates in Latin lookup 0 subtable" twosuperior
EndChar

StartChar: three
Encoding: 51 51 20
Width: 470
Flags: W
LayerCount: 2
Fore
SplineSet
398 208 m 0,0,1
 398 145 398 145 383 103 c 128,-1,2
 368 61 368 61 341.5 36.5 c 128,-1,3
 315 12 315 12 279 1.5 c 128,-1,4
 243 -9 243 -9 201 -9 c 0,5,6
 183 -9 183 -9 160 -6.5 c 128,-1,7
 137 -4 137 -4 116 -1 c 128,-1,8
 95 2 95 2 79 4.5 c 128,-1,9
 63 7 63 7 60 8 c 1,10,-1
 60 119 l 1,11,12
 69 117 69 117 83.5 114 c 128,-1,13
 98 111 98 111 115 108.5 c 128,-1,14
 132 106 132 106 150.5 104 c 128,-1,15
 169 102 169 102 185 102 c 0,16,17
 221 102 221 102 242.5 126.5 c 128,-1,18
 264 151 264 151 264 198 c 0,19,20
 264 257 264 257 246.5 283 c 128,-1,21
 229 309 229 309 183 309 c 2,22,-1
 106 309 l 1,23,-1
 106 418 l 1,24,-1
 173 418 l 2,25,26
 216 418 216 418 234.5 443 c 128,-1,27
 253 468 253 468 253 513 c 0,28,29
 253 556 253 556 237 577 c 128,-1,30
 221 598 221 598 183 598 c 0,31,32
 150 598 150 598 118.5 592 c 128,-1,33
 87 586 87 586 65 581 c 1,34,-1
 65 692 l 1,35,36
 69 693 69 693 83 695.5 c 128,-1,37
 97 698 97 698 115.5 701 c 128,-1,38
 134 704 134 704 155.5 706.5 c 128,-1,39
 177 709 177 709 196 709 c 0,40,41
 244 709 244 709 279.5 699.5 c 128,-1,42
 315 690 315 690 339 667 c 128,-1,43
 363 644 363 644 374.5 605.5 c 128,-1,44
 386 567 386 567 386 510 c 0,45,46
 386 488 386 488 382 465.5 c 128,-1,47
 378 443 378 443 369 424 c 128,-1,48
 360 405 360 405 346 390.5 c 128,-1,49
 332 376 332 376 311 369 c 1,50,51
 353 361 353 361 375.5 322 c 128,-1,52
 398 283 398 283 398 208 c 0,0,1
EndSplineSet
Substitution2: "'sups' Superscript in Latin lookup 5 subtable" threesuperior
Substitution2: "'numr' Numerators in Latin lookup 2 subtable" threesuperior
Substitution2: "'aalt' Access All Alternates in Latin lookup 0 subtable" threesuperior
EndChar

StartChar: four
Encoding: 52 52 21
Width: 470
Flags: W
LayerCount: 2
Fore
SplineSet
378 156 m 1,0,-1
 378 0 l 1,1,-1
 243 0 l 1,2,-1
 243 156 l 1,3,-1
 50 156 l 1,4,-1
 50 282 l 1,5,-1
 144 700 l 1,6,-1
 273 700 l 1,7,-1
 177 269 l 1,8,-1
 243 269 l 1,9,-1
 265 457 l 1,10,-1
 378 457 l 1,11,-1
 378 269 l 1,12,-1
 438 269 l 1,13,-1
 438 156 l 1,14,-1
 378 156 l 1,0,-1
EndSplineSet
EndChar

StartChar: five
Encoding: 53 53 22
Width: 470
Flags: W
LayerCount: 2
Fore
SplineSet
203 587 m 1,0,-1
 203 441 l 1,1,-1
 208 441 l 2,2,3
 262 441 262 441 299 430 c 128,-1,4
 336 419 336 419 359 393.5 c 128,-1,5
 382 368 382 368 392.5 326.5 c 128,-1,6
 403 285 403 285 403 223 c 0,7,8
 403 155 403 155 388.5 110.5 c 128,-1,9
 374 66 374 66 348 39.5 c 128,-1,10
 322 13 322 13 286.5 2 c 128,-1,11
 251 -9 251 -9 210 -9 c 0,12,13
 191 -9 191 -9 169.5 -7 c 128,-1,14
 148 -5 148 -5 127.5 -2.5 c 128,-1,15
 107 0 107 0 89 3 c 128,-1,16
 71 6 71 6 60 8 c 1,17,-1
 60 120 l 1,18,19
 74 117 74 117 110.5 110 c 128,-1,20
 147 103 147 103 189 103 c 256,21,22
 231 103 231 103 250 131.5 c 128,-1,23
 269 160 269 160 269 213 c 0,24,25
 269 253 269 253 263.5 277 c 128,-1,26
 258 301 258 301 247 314 c 128,-1,27
 236 327 236 327 221 331 c 128,-1,28
 206 335 206 335 186 335 c 2,29,-1
 70 335 l 1,30,-1
 70 700 l 1,31,-1
 383 700 l 1,32,-1
 383 587 l 1,33,-1
 203 587 l 1,0,-1
EndSplineSet
EndChar

StartChar: six
Encoding: 54 54 23
Width: 470
Flags: W
LayerCount: 2
Fore
SplineSet
435 215 m 0,0,1
 435 151 435 151 418.5 107.5 c 128,-1,2
 402 64 402 64 374.5 38.5 c 128,-1,3
 347 13 347 13 310 2 c 128,-1,4
 273 -9 273 -9 232 -9 c 0,5,6
 185 -9 185 -9 149 7 c 128,-1,7
 113 23 113 23 88.5 64 c 128,-1,8
 64 105 64 105 51.5 175.5 c 128,-1,9
 39 246 39 246 39 355 c 0,10,11
 39 460 39 460 54.5 528.5 c 128,-1,12
 70 597 70 597 100.5 637 c 128,-1,13
 131 677 131 677 177.5 693 c 128,-1,14
 224 709 224 709 286 709 c 0,15,16
 298 709 298 709 313 708 c 128,-1,17
 328 707 328 707 343 705 c 128,-1,18
 358 703 358 703 371 701 c 128,-1,19
 384 699 384 699 391 697 c 1,20,-1
 391 585 l 1,21,22
 371 590 371 590 344 594.5 c 128,-1,23
 317 599 317 599 282 599 c 0,24,25
 254 599 254 599 234.5 591 c 128,-1,26
 215 583 215 583 202 564 c 128,-1,27
 189 545 189 545 182.5 513 c 128,-1,28
 176 481 176 481 174 433 c 1,29,30
 194 444 194 444 216.5 451.5 c 128,-1,31
 239 459 239 459 265 459 c 0,32,33
 315 459 315 459 348 444.5 c 128,-1,34
 381 430 381 430 400.5 400 c 128,-1,35
 420 370 420 370 427.5 324 c 128,-1,36
 435 278 435 278 435 215 c 0,0,1
241 351 m 0,37,38
 221 351 221 351 203.5 346 c 128,-1,39
 186 341 186 341 172 334 c 1,40,41
 172 255 172 255 176 209 c 128,-1,42
 180 163 180 163 188.5 139 c 128,-1,43
 197 115 197 115 209.5 108 c 128,-1,44
 222 101 222 101 239 101 c 256,45,46
 256 101 256 101 268 106.5 c 128,-1,47
 280 112 280 112 287.5 126.5 c 128,-1,48
 295 141 295 141 298.5 165 c 128,-1,49
 302 189 302 189 302 226 c 0,50,51
 302 292 302 292 288 321.5 c 128,-1,52
 274 351 274 351 241 351 c 0,37,38
EndSplineSet
EndChar

StartChar: seven
Encoding: 55 55 24
Width: 470
Flags: W
LayerCount: 2
Fore
SplineSet
233 0 m 1,0,-1
 94 0 l 1,1,-1
 258 583 l 1,2,-1
 45 583 l 1,3,-1
 45 700 l 1,4,-1
 390 700 l 1,5,-1
 390 563 l 1,6,-1
 233 0 l 1,0,-1
EndSplineSet
EndChar

StartChar: eight
Encoding: 56 56 25
Width: 470
Flags: W
LayerCount: 2
Fore
SplineSet
310 199 m 0,0,1
 310 229 310 229 307 250.5 c 128,-1,2
 304 272 304 272 293 286 c 128,-1,3
 282 300 282 300 260.5 307 c 128,-1,4
 239 314 239 314 201 314 c 1,5,6
 189 306 189 306 181 297.5 c 128,-1,7
 173 289 173 289 168.5 276.5 c 128,-1,8
 164 264 164 264 162 245.5 c 128,-1,9
 160 227 160 227 160 199 c 0,10,11
 160 143 160 143 176.5 121.5 c 128,-1,12
 193 100 193 100 235 100 c 256,13,14
 277 100 277 100 293.5 121.5 c 128,-1,15
 310 143 310 143 310 199 c 0,0,1
298 515 m 0,16,17
 298 564 298 564 286 583 c 128,-1,18
 274 602 274 602 237 602 c 0,19,20
 205 602 205 602 188.5 583 c 128,-1,21
 172 564 172 564 172 515 c 0,22,23
 172 491 172 491 174.5 473 c 128,-1,24
 177 455 177 455 186.5 442.5 c 128,-1,25
 196 430 196 430 214.5 423.5 c 128,-1,26
 233 417 233 417 264 417 c 1,27,28
 285 430 285 430 291.5 454 c 128,-1,29
 298 478 298 478 298 515 c 0,16,17
443 209 m 0,30,31
 443 104 443 104 395.5 47.5 c 128,-1,32
 348 -9 348 -9 235 -9 c 256,33,34
 122 -9 122 -9 74.5 47.5 c 128,-1,35
 27 104 27 104 27 209 c 0,36,37
 27 243 27 243 34.5 268 c 128,-1,38
 42 293 42 293 54.5 311 c 128,-1,39
 67 329 67 329 83 340.5 c 128,-1,40
 99 352 99 352 116 358 c 1,41,42
 99 366 99 366 85 382 c 128,-1,43
 71 398 71 398 61.5 418.5 c 128,-1,44
 52 439 52 439 46.5 462 c 128,-1,45
 41 485 41 485 41 506 c 0,46,47
 41 565 41 565 54.5 604 c 128,-1,48
 68 643 68 643 93.5 666.5 c 128,-1,49
 119 690 119 690 154.5 699.5 c 128,-1,50
 190 709 190 709 235 709 c 256,51,52
 280 709 280 709 315.5 699.5 c 128,-1,53
 351 690 351 690 376.5 666.5 c 128,-1,54
 402 643 402 643 415.5 604 c 128,-1,55
 429 565 429 565 429 506 c 0,56,57
 429 490 429 490 424.5 471 c 128,-1,58
 420 452 420 452 411 434 c 128,-1,59
 402 416 402 416 387 400 c 128,-1,60
 372 384 372 384 351 374 c 1,61,62
 375 368 375 368 392.5 352 c 128,-1,63
 410 336 410 336 421.5 313.5 c 128,-1,64
 433 291 433 291 438 264 c 128,-1,65
 443 237 443 237 443 209 c 0,30,31
EndSplineSet
EndChar

StartChar: nine
Encoding: 57 57 26
Width: 470
Flags: W
LayerCount: 2
Fore
SplineSet
28 485 m 0,0,1
 28 551 28 551 44.5 594 c 128,-1,2
 61 637 61 637 88.5 662.5 c 128,-1,3
 116 688 116 688 153 698.5 c 128,-1,4
 190 709 190 709 231 709 c 0,5,6
 278 709 278 709 314 695 c 128,-1,7
 350 681 350 681 374.5 642.5 c 128,-1,8
 399 604 399 604 411.5 535.5 c 128,-1,9
 424 467 424 467 424 358 c 0,10,11
 424 240 424 240 409 168 c 128,-1,12
 394 96 394 96 364.5 56.5 c 128,-1,13
 335 17 335 17 291 4 c 128,-1,14
 247 -9 247 -9 189 -9 c 0,15,16
 177 -9 177 -9 161.5 -8 c 128,-1,17
 146 -7 146 -7 131 -5 c 128,-1,18
 116 -3 116 -3 102.5 -1 c 128,-1,19
 89 1 89 1 82 3 c 1,20,-1
 82 115 l 1,21,22
 102 110 102 110 130 105.5 c 128,-1,23
 158 101 158 101 193 101 c 0,24,25
 218 101 218 101 235.5 107 c 128,-1,26
 253 113 253 113 264.5 131 c 128,-1,27
 276 149 276 149 281.5 181.5 c 128,-1,28
 287 214 287 214 289 267 c 1,29,30
 269 255 269 255 246.5 248 c 128,-1,31
 224 241 224 241 198 241 c 0,32,33
 148 241 148 241 115 258 c 128,-1,34
 82 275 82 275 62.5 306.5 c 128,-1,35
 43 338 43 338 35.5 383 c 128,-1,36
 28 428 28 428 28 485 c 0,0,1
222 349 m 0,37,38
 242 349 242 349 259.5 353.5 c 128,-1,39
 277 358 277 358 291 366 c 1,40,41
 291 450 291 450 286.5 497 c 128,-1,42
 282 544 282 544 274 566.5 c 128,-1,43
 266 589 266 589 253.5 594 c 128,-1,44
 241 599 241 599 224 599 c 0,45,46
 208 599 208 599 196.5 593.5 c 128,-1,47
 185 588 185 588 177 573.5 c 128,-1,48
 169 559 169 559 165 535 c 128,-1,49
 161 511 161 511 161 474 c 0,50,51
 161 408 161 408 175 378.5 c 128,-1,52
 189 349 189 349 222 349 c 0,37,38
EndSplineSet
EndChar

StartChar: colon
Encoding: 58 58 27
Width: 250
Flags: W
LayerCount: 2
Fore
SplineSet
50 0 m 1,0,-1
 50 130 l 1,1,-1
 200 130 l 1,2,-1
 200 0 l 1,3,-1
 50 0 l 1,0,-1
50 370 m 1,4,-1
 50 500 l 1,5,-1
 200 500 l 1,6,-1
 200 370 l 1,7,-1
 50 370 l 1,4,-1
EndSplineSet
EndChar

StartChar: semicolon
Encoding: 59 59 28
Width: 250
Flags: W
LayerCount: 2
Fore
SplineSet
108 -150 m 1,0,-1
 10 -150 l 1,1,-1
 50 0 l 1,2,-1
 50 130 l 1,3,-1
 200 130 l 1,4,-1
 200 0 l 1,5,-1
 108 -150 l 1,0,-1
50 370 m 1,6,-1
 50 500 l 1,7,-1
 200 500 l 1,8,-1
 200 370 l 1,9,-1
 50 370 l 1,6,-1
EndSplineSet
EndChar

StartChar: less
Encoding: 60 60 29
Width: 550
Flags: W
LayerCount: 2
Fore
SplineSet
75 251 m 1,0,-1
 75 414 l 1,1,-1
 475 583 l 1,2,-1
 475 452 l 1,3,-1
 176 336 l 1,4,-1
 475 219 l 1,5,-1
 475 86 l 1,6,-1
 75 251 l 1,0,-1
EndSplineSet
EndChar

StartChar: equal
Encoding: 61 61 30
Width: 550
Flags: W
LayerCount: 2
Fore
SplineSet
75 145 m 1,0,-1
 75 260 l 1,1,-1
 475 260 l 1,2,-1
 475 145 l 1,3,-1
 75 145 l 1,0,-1
75 345 m 1,4,-1
 75 460 l 1,5,-1
 475 460 l 1,6,-1
 475 345 l 1,7,-1
 75 345 l 1,4,-1
EndSplineSet
EndChar

StartChar: greater
Encoding: 62 62 31
Width: 550
Flags: W
LayerCount: 2
Fore
SplineSet
75 86 m 1,0,-1
 75 219 l 1,1,-1
 374 336 l 1,2,-1
 75 452 l 1,3,-1
 75 583 l 1,4,-1
 475 414 l 1,5,-1
 475 251 l 1,6,-1
 75 86 l 1,0,-1
EndSplineSet
EndChar

StartChar: question
Encoding: 63 63 32
Width: 380
Flags: W
LayerCount: 2
Fore
SplineSet
82 0 m 1,0,-1
 82 130 l 1,1,-1
 232 130 l 1,2,-1
 232 0 l 1,3,-1
 82 0 l 1,0,-1
350 528 m 0,4,5
 350 504 350 504 347.5 485.5 c 128,-1,6
 345 467 345 467 339 451 c 128,-1,7
 333 435 333 435 322.5 419.5 c 128,-1,8
 312 404 312 404 297 386 c 2,9,-1
 224 298 l 1,10,-1
 224 228 l 1,11,-1
 89 228 l 1,12,-1
 89 337 l 1,13,-1
 169 435 l 2,14,15
 181 450 181 450 190 461.5 c 128,-1,16
 199 473 199 473 204.5 483 c 128,-1,17
 210 493 210 493 212.5 503 c 128,-1,18
 215 513 215 513 215 526 c 0,19,20
 215 545 215 545 212.5 558 c 128,-1,21
 210 571 210 571 201.5 579.5 c 128,-1,22
 193 588 193 588 177.5 591.5 c 128,-1,23
 162 595 162 595 135 595 c 0,24,25
 115 595 115 595 85 590.5 c 128,-1,26
 55 586 55 586 30 580 c 1,27,-1
 30 693 l 1,28,29
 40 695 40 695 56 698 c 128,-1,30
 72 701 72 701 90 703.5 c 128,-1,31
 108 706 108 706 126 707.5 c 128,-1,32
 144 709 144 709 157 709 c 0,33,34
 205 709 205 709 241.5 702 c 128,-1,35
 278 695 278 695 302 675 c 128,-1,36
 326 655 326 655 338 620 c 128,-1,37
 350 585 350 585 350 528 c 0,4,5
EndSplineSet
EndChar

StartChar: at
Encoding: 64 64 33
Width: 843
Flags: W
LayerCount: 2
Fore
SplineSet
462 441 m 1,0,1
 456 443 456 443 443 444.5 c 128,-1,2
 430 446 430 446 415 446 c 0,3,4
 369 446 369 446 369 345 c 0,5,6
 369 288 369 288 378 266.5 c 128,-1,7
 387 245 387 245 414 245 c 0,8,9
 431 245 431 245 441 251.5 c 128,-1,10
 451 258 451 258 455.5 267.5 c 128,-1,11
 460 277 460 277 461 289 c 128,-1,12
 462 301 462 301 462 312 c 2,13,-1
 462 441 l 1,0,1
768 401 m 0,14,15
 768 344 768 344 762.5 292.5 c 128,-1,16
 757 241 757 241 740 201.5 c 128,-1,17
 723 162 723 162 690.5 139 c 128,-1,18
 658 116 658 116 605 116 c 0,19,20
 570 116 570 116 538.5 135 c 128,-1,21
 507 154 507 154 494 201 c 1,22,23
 488 192 488 192 479.5 181.5 c 128,-1,24
 471 171 471 171 458 163 c 128,-1,25
 445 155 445 155 426.5 149.5 c 128,-1,26
 408 144 408 144 383 144 c 0,27,28
 355 144 355 144 330.5 151 c 128,-1,29
 306 158 306 158 288 178.5 c 128,-1,30
 270 199 270 199 259.5 236.5 c 128,-1,31
 249 274 249 274 249 335 c 0,32,33
 249 404 249 404 264.5 445 c 128,-1,34
 280 486 280 486 306.5 508 c 128,-1,35
 333 530 333 530 369.5 537 c 128,-1,36
 406 544 406 544 448 544 c 0,37,38
 459 544 459 544 476.5 543 c 128,-1,39
 494 542 494 542 512.5 540 c 128,-1,40
 531 538 531 538 548.5 535.5 c 128,-1,41
 566 533 566 533 577 530 c 1,42,-1
 577 241 l 2,43,44
 577 226 577 226 584.5 218.5 c 128,-1,45
 592 211 592 211 603 211 c 0,46,47
 615 211 615 211 622 215.5 c 128,-1,48
 629 220 629 220 632 238.5 c 128,-1,49
 635 257 635 257 636 295.5 c 128,-1,50
 637 334 637 334 637 401 c 0,51,52
 637 469 637 469 631 508 c 128,-1,53
 625 547 625 547 603 567 c 128,-1,54
 581 587 581 587 538.5 592.5 c 128,-1,55
 496 598 496 598 423 598 c 0,56,57
 355 598 355 598 312.5 588 c 128,-1,58
 270 578 270 578 246.5 550.5 c 128,-1,59
 223 523 223 523 214.5 473.5 c 128,-1,60
 206 424 206 424 206 345 c 0,61,62
 206 267 206 267 214 219 c 128,-1,63
 222 171 222 171 244.5 145 c 128,-1,64
 267 119 267 119 306.5 110.5 c 128,-1,65
 346 102 346 102 409 102 c 0,66,67
 446 102 446 102 483 104.5 c 128,-1,68
 520 107 520 107 541 109 c 1,69,-1
 541 -1 l 1,70,71
 528 -3 528 -3 511 -4 c 128,-1,72
 494 -5 494 -5 476 -6.5 c 128,-1,73
 458 -8 458 -8 440.5 -8.5 c 128,-1,74
 423 -9 423 -9 409 -9 c 0,75,76
 310 -9 310 -9 245.5 7.5 c 128,-1,77
 181 24 181 24 143 64.5 c 128,-1,78
 105 105 105 105 90 173.5 c 128,-1,79
 75 242 75 242 75 345 c 0,80,81
 75 451 75 451 94 521 c 128,-1,82
 113 591 113 591 154.5 633 c 128,-1,83
 196 675 196 675 262.5 692 c 128,-1,84
 329 709 329 709 423 709 c 256,85,86
 517 709 517 709 582.5 696.5 c 128,-1,87
 648 684 648 684 689.5 650.5 c 128,-1,88
 731 617 731 617 749.5 557 c 128,-1,89
 768 497 768 497 768 401 c 0,14,15
EndSplineSet
EndChar

StartChar: A
Encoding: 65 65 34
Width: 545
Flags: W
LayerCount: 2
Fore
SplineSet
273 612 m 1,0,-1
 213 281 l 1,1,-1
 335 281 l 1,2,-1
 273 612 l 1,0,-1
389 0 m 1,3,-1
 357 163 l 1,4,-1
 190 163 l 1,5,-1
 158 0 l 1,6,-1
 15 0 l 1,7,-1
 175 700 l 1,8,-1
 377 700 l 1,9,-1
 530 0 l 1,10,-1
 389 0 l 1,3,-1
EndSplineSet
Substitution2: "'ordn' Ordinals in Latin lookup 4 subtable" ordfeminine
Substitution2: "'aalt' Access All Alternates in Latin lookup 0 subtable" ordfeminine
Position2: "'cpsp' Capital Spacing in Latin lookup 0 subtable" dx=5 dy=0 dh=10 dv=0
EndChar

StartChar: B
Encoding: 66 66 35
Width: 547
Flags: W
LayerCount: 2
Fore
SplineSet
353 214 m 0,0,1
 353 243 353 243 346 261.5 c 128,-1,2
 339 280 339 280 327 291.5 c 128,-1,3
 315 303 315 303 299.5 307.5 c 128,-1,4
 284 312 284 312 267 312 c 2,5,-1
 207 312 l 1,6,-1
 207 114 l 1,7,8
 218 114 218 114 229 113 c 0,9,10
 239 112 239 112 252 111.5 c 128,-1,11
 265 111 265 111 279 111 c 0,12,13
 321 111 321 111 337 138.5 c 128,-1,14
 353 166 353 166 353 214 c 0,0,1
338 510 m 0,15,16
 338 548 338 548 321 569 c 128,-1,17
 304 590 304 590 274 590 c 0,18,19
 262 590 262 590 250 589.5 c 128,-1,20
 238 589 238 589 228 588 c 0,21,22
 217 587 217 587 207 586 c 1,23,-1
 207 424 l 1,24,-1
 260 424 l 2,25,26
 302 424 302 424 320 444 c 128,-1,27
 338 464 338 464 338 510 c 0,15,16
492 215 m 0,28,29
 492 145 492 145 475 101.5 c 128,-1,30
 458 58 458 58 428 33.5 c 128,-1,31
 398 9 398 9 357 0 c 128,-1,32
 316 -9 316 -9 268 -9 c 0,33,34
 236 -9 236 -9 201.5 -8 c 128,-1,35
 167 -7 167 -7 138 -5 c 0,36,37
 104 -3 104 -3 70 0 c 1,38,-1
 70 700 l 1,39,40
 103 703 103 703 136 705 c 0,41,42
 164 707 164 707 195.5 708 c 128,-1,43
 227 709 227 709 252 709 c 0,44,45
 313 709 313 709 355 698 c 128,-1,46
 397 687 397 687 423.5 664 c 128,-1,47
 450 641 450 641 461.5 605 c 128,-1,48
 473 569 473 569 473 519 c 0,49,50
 473 483 473 483 465 458 c 128,-1,51
 457 433 457 433 444.5 416.5 c 128,-1,52
 432 400 432 400 416 391 c 128,-1,53
 400 382 400 382 384 377 c 1,54,55
 404 375 404 375 423.5 364.5 c 128,-1,56
 443 354 443 354 458 334.5 c 128,-1,57
 473 315 473 315 482.5 285.5 c 128,-1,58
 492 256 492 256 492 215 c 0,28,29
EndSplineSet
Position2: "'cpsp' Capital Spacing in Latin lookup 0 subtable" dx=5 dy=0 dh=10 dv=0
EndChar

StartChar: C
Encoding: 67 67 36
Width: 433
Flags: W
LayerCount: 2
Fore
SplineSet
393 8 m 1,0,1
 385 6 385 6 369.5 3.5 c 128,-1,2
 354 1 354 1 336.5 -1.5 c 128,-1,3
 319 -4 319 -4 301.5 -5.5 c 128,-1,4
 284 -7 284 -7 272 -7 c 0,5,6
 215 -7 215 -7 173 8 c 128,-1,7
 131 23 131 23 103.5 63.5 c 128,-1,8
 76 104 76 104 63 175.5 c 128,-1,9
 50 247 50 247 50 361 c 256,10,11
 50 475 50 475 65 543.5 c 128,-1,12
 80 612 80 612 110 648 c 128,-1,13
 140 684 140 684 184 695.5 c 128,-1,14
 228 707 228 707 285 707 c 0,15,16
 295 707 295 707 311 705.5 c 128,-1,17
 327 704 327 704 343.5 702 c 128,-1,18
 360 700 360 700 373.5 697.5 c 128,-1,19
 387 695 387 695 393 693 c 1,20,-1
 393 572 l 1,21,22
 368 578 368 578 333.5 582.5 c 128,-1,23
 299 587 299 587 272 587 c 0,24,25
 250 587 250 587 234.5 579.5 c 128,-1,26
 219 572 219 572 209 548 c 128,-1,27
 199 524 199 524 194 478 c 128,-1,28
 189 432 189 432 189 354 c 256,29,30
 189 276 189 276 193.5 229 c 128,-1,31
 198 182 198 182 207.5 156 c 128,-1,32
 217 130 217 130 233 121.5 c 128,-1,33
 249 113 249 113 272 113 c 0,34,35
 303 113 303 113 338.5 118 c 128,-1,36
 374 123 374 123 393 128 c 1,37,-1
 393 8 l 1,0,1
EndSplineSet
Position2: "'cpsp' Capital Spacing in Latin lookup 0 subtable" dx=5 dy=0 dh=10 dv=0
EndChar

StartChar: D
Encoding: 68 68 37
Width: 546
Flags: W
LayerCount: 2
Fore
SplineSet
357 354 m 0,0,1
 357 435 357 435 351.5 481.5 c 128,-1,2
 346 528 346 528 335.5 552 c 128,-1,3
 325 576 325 576 308.5 582.5 c 128,-1,4
 292 589 292 589 269 589 c 0,5,6
 255 589 255 589 243.5 588.5 c 128,-1,7
 232 588 232 588 224 587 c 0,8,9
 214 586 214 586 207 585 c 1,10,-1
 207 115 l 1,11,12
 213 114 213 114 222 113 c 0,13,14
 230 112 230 112 241 111.5 c 128,-1,15
 252 111 252 111 268 111 c 0,16,17
 291 111 291 111 308 122 c 128,-1,18
 325 133 325 133 336 160.5 c 128,-1,19
 347 188 347 188 352 235 c 128,-1,20
 357 282 357 282 357 354 c 0,0,1
496 361 m 0,21,22
 496 249 496 249 481 177 c 128,-1,23
 466 105 466 105 436 63.5 c 128,-1,24
 406 22 406 22 361.5 6 c 128,-1,25
 317 -10 317 -10 259 -10 c 0,26,27
 233 -10 233 -10 200 -8.5 c 128,-1,28
 167 -7 167 -7 138 -5 c 0,29,30
 105 -2 105 -2 70 0 c 1,31,-1
 70 700 l 1,32,33
 105 702 105 702 138 705 c 0,34,35
 166 707 166 707 196 708.5 c 128,-1,36
 226 710 226 710 247 710 c 0,37,38
 307 710 307 710 353.5 697 c 128,-1,39
 400 684 400 684 431.5 646 c 128,-1,40
 463 608 463 608 479.5 540 c 128,-1,41
 496 472 496 472 496 361 c 0,21,22
EndSplineSet
Position2: "'cpsp' Capital Spacing in Latin lookup 0 subtable" dx=5 dy=0 dh=10 dv=0
EndChar

StartChar: E
Encoding: 69 69 38
Width: 478
Flags: W
LayerCount: 2
Fore
SplineSet
70 0 m 1,0,-1
 70 700 l 1,1,-1
 428 700 l 1,2,-1
 428 592 l 1,3,-1
 207 592 l 1,4,-1
 207 415 l 1,5,-1
 403 415 l 1,6,-1
 403 308 l 1,7,-1
 207 308 l 1,8,-1
 207 108 l 1,9,-1
 428 108 l 1,10,-1
 428 0 l 1,11,-1
 70 0 l 1,0,-1
EndSplineSet
Position2: "'cpsp' Capital Spacing in Latin lookup 0 subtable" dx=5 dy=0 dh=10 dv=0
EndChar

StartChar: F
Encoding: 70 70 39
Width: 483
Flags: W
LayerCount: 2
Fore
SplineSet
222 592 m 1,0,-1
 222 405 l 1,1,-1
 418 405 l 1,2,-1
 418 297 l 1,3,-1
 222 297 l 1,4,-1
 222 0 l 1,5,-1
 85 0 l 1,6,-1
 85 700 l 1,7,-1
 443 700 l 1,8,-1
 443 592 l 1,9,-1
 222 592 l 1,0,-1
EndSplineSet
Position2: "'cpsp' Capital Spacing in Latin lookup 0 subtable" dx=5 dy=0 dh=10 dv=0
EndChar

StartChar: G
Encoding: 71 71 40
Width: 510
Flags: W
LayerCount: 2
Fore
SplineSet
455 9 m 1,0,1
 415 1 415 1 369.5 -4 c 128,-1,2
 324 -9 324 -9 283 -9 c 0,3,4
 220 -9 220 -9 175.5 7 c 128,-1,5
 131 23 131 23 103 64.5 c 128,-1,6
 75 106 75 106 62.5 177.5 c 128,-1,7
 50 249 50 249 50 361 c 0,8,9
 50 472 50 472 67 540 c 128,-1,10
 84 608 84 608 116.5 645.5 c 128,-1,11
 149 683 149 683 197 696 c 128,-1,12
 245 709 245 709 307 709 c 0,13,14
 332 709 332 709 367.5 704 c 128,-1,15
 403 699 403 699 434 692 c 1,16,-1
 434 574 l 1,17,18
 402 580 402 580 365.5 584.5 c 128,-1,19
 329 589 329 589 297 589 c 0,20,21
 266 589 266 589 245 580 c 128,-1,22
 224 571 224 571 211.5 545.5 c 128,-1,23
 199 520 199 520 194 474 c 128,-1,24
 189 428 189 428 189 354 c 0,25,26
 189 279 189 279 193.5 231.5 c 128,-1,27
 198 184 198 184 208.5 157 c 128,-1,28
 219 130 219 130 236.5 120.5 c 128,-1,29
 254 111 254 111 280 111 c 0,30,31
 291 111 291 111 301.5 111 c 128,-1,32
 312 111 312 111 322 112 c 1,33,-1
 322 270 l 1,34,-1
 258 270 l 1,35,-1
 258 388 l 1,36,-1
 455 388 l 1,37,-1
 455 9 l 1,0,1
EndSplineSet
Position2: "'cpsp' Capital Spacing in Latin lookup 0 subtable" dx=5 dy=0 dh=10 dv=0
EndChar

StartChar: H
Encoding: 72 72 41
Width: 570
Flags: W
LayerCount: 2
Fore
SplineSet
363 0 m 1,0,-1
 363 297 l 1,1,-1
 207 297 l 1,2,-1
 207 0 l 1,3,-1
 70 0 l 1,4,-1
 70 700 l 1,5,-1
 207 700 l 1,6,-1
 207 411 l 1,7,-1
 363 411 l 1,8,-1
 363 700 l 1,9,-1
 500 700 l 1,10,-1
 500 0 l 1,11,-1
 363 0 l 1,0,-1
EndSplineSet
Position2: "'cpsp' Capital Spacing in Latin lookup 0 subtable" dx=5 dy=0 dh=10 dv=0
EndChar

StartChar: I
Encoding: 73 73 42
Width: 347
Flags: W
LayerCount: 2
Fore
SplineSet
35 0 m 1,0,-1
 35 106 l 1,1,-1
 105 106 l 1,2,-1
 105 594 l 1,3,-1
 35 594 l 1,4,-1
 35 700 l 1,5,-1
 312 700 l 1,6,-1
 312 594 l 1,7,-1
 242 594 l 1,8,-1
 242 106 l 1,9,-1
 312 106 l 1,10,-1
 312 0 l 1,11,-1
 35 0 l 1,0,-1
EndSplineSet
Position2: "'cpsp' Capital Spacing in Latin lookup 0 subtable" dx=5 dy=0 dh=10 dv=0
EndChar

StartChar: J
Encoding: 74 74 43
Width: 416
Flags: W
LayerCount: 2
Fore
SplineSet
351 261 m 1,0,1
 351 183 351 183 342 131 c 128,-1,2
 333 79 333 79 310 47.5 c 128,-1,3
 287 16 287 16 249 3 c 128,-1,4
 211 -10 211 -10 152 -10 c 0,5,6
 140 -10 140 -10 123.5 -9 c 128,-1,7
 107 -8 107 -8 90.5 -6 c 128,-1,8
 74 -4 74 -4 58 -1.5 c 128,-1,9
 42 1 42 1 30 4 c 1,10,-1
 30 123 l 1,11,12
 51 119 51 119 81.5 116 c 128,-1,13
 112 113 112 113 136 113 c 256,14,15
 160 113 160 113 175 120.5 c 128,-1,16
 190 128 190 128 198.5 144.5 c 128,-1,17
 207 161 207 161 210.5 188 c 128,-1,18
 214 215 214 215 214 254 c 2,19,-1
 214 582 l 1,20,-1
 72 582 l 1,21,-1
 72 700 l 1,22,-1
 351 700 l 1,23,-1
 351 261 l 1,24,-1
 351 261 l 1,0,1
EndSplineSet
Position2: "'cpsp' Capital Spacing in Latin lookup 0 subtable" dx=5 dy=0 dh=10 dv=0
EndChar

StartChar: K
Encoding: 75 75 44
Width: 547
Flags: W
LayerCount: 2
Fore
SplineSet
369 0 m 1,0,-1
 227 275 l 1,1,-1
 207 244 l 1,2,-1
 207 0 l 1,3,-1
 70 0 l 1,4,-1
 70 700 l 1,5,-1
 207 700 l 1,6,-1
 207 458 l 1,7,-1
 368 700 l 1,8,-1
 522 700 l 1,9,-1
 313 396 l 1,10,-1
 527 0 l 1,11,-1
 369 0 l 1,0,-1
EndSplineSet
Position2: "'cpsp' Capital Spacing in Latin lookup 0 subtable" dx=5 dy=0 dh=10 dv=0
EndChar

StartChar: L
Encoding: 76 76 45
Width: 420
Flags: W
LayerCount: 2
Fore
SplineSet
70 0 m 1,0,-1
 70 700 l 1,1,-1
 207 700 l 1,2,-1
 207 116 l 1,3,-1
 410 116 l 1,4,-1
 410 0 l 1,5,-1
 70 0 l 1,0,-1
EndSplineSet
Position2: "'cpsp' Capital Spacing in Latin lookup 0 subtable" dx=5 dy=0 dh=10 dv=0
EndChar

StartChar: M
Encoding: 77 77 46
Width: 666
Flags: W
LayerCount: 2
Fore
SplineSet
472 0 m 1,0,-1
 472 599 l 1,1,-1
 386 235 l 1,2,-1
 282 235 l 1,3,-1
 192 599 l 1,4,-1
 192 0 l 1,5,-1
 70 0 l 1,6,-1
 70 700 l 1,7,-1
 278 700 l 1,8,-1
 337 431 l 1,9,-1
 397 700 l 1,10,-1
 596 700 l 1,11,-1
 596 0 l 1,12,-1
 472 0 l 1,0,-1
EndSplineSet
Position2: "'cpsp' Capital Spacing in Latin lookup 0 subtable" dx=5 dy=0 dh=10 dv=0
EndChar

StartChar: N
Encoding: 78 78 47
Width: 592
Flags: W
LayerCount: 2
Fore
SplineSet
323 0 m 1,0,-1
 191 562 l 1,1,-1
 191 0 l 1,2,-1
 70 0 l 1,3,-1
 70 700 l 1,4,-1
 269 700 l 1,5,-1
 403 127 l 1,6,-1
 403 700 l 1,7,-1
 522 700 l 1,8,-1
 522 0 l 1,9,-1
 323 0 l 1,0,-1
EndSplineSet
Position2: "'cpsp' Capital Spacing in Latin lookup 0 subtable" dx=5 dy=0 dh=10 dv=0
EndChar

StartChar: O
Encoding: 79 79 48
Width: 568
Flags: W
LayerCount: 2
Fore
SplineSet
379 353 m 0,0,1
 379 430 379 430 374 478.5 c 128,-1,2
 369 527 369 527 358 554.5 c 128,-1,3
 347 582 347 582 329 592 c 128,-1,4
 311 602 311 602 284 602 c 256,5,6
 257 602 257 602 239 592 c 128,-1,7
 221 582 221 582 210 554.5 c 128,-1,8
 199 527 199 527 194 478.5 c 128,-1,9
 189 430 189 430 189 353 c 0,10,11
 189 277 189 277 194 228 c 128,-1,12
 199 179 199 179 210 150 c 128,-1,13
 221 121 221 121 239 109.5 c 128,-1,14
 257 98 257 98 284 98 c 256,15,16
 311 98 311 98 329 109.5 c 128,-1,17
 347 121 347 121 358 150 c 128,-1,18
 369 179 369 179 374 228 c 128,-1,19
 379 277 379 277 379 353 c 0,0,1
518 358 m 0,20,21
 518 266 518 266 509.5 197 c 128,-1,22
 501 128 501 128 475.5 82 c 128,-1,23
 450 36 450 36 404 13 c 128,-1,24
 358 -10 358 -10 284 -10 c 256,25,26
 210 -10 210 -10 164 13 c 128,-1,27
 118 36 118 36 92.5 82 c 128,-1,28
 67 128 67 128 58.5 197 c 128,-1,29
 50 266 50 266 50 358 c 0,30,31
 50 446 50 446 59.5 512 c 128,-1,32
 69 578 69 578 95 622 c 128,-1,33
 121 666 121 666 166.5 688 c 128,-1,34
 212 710 212 710 284 710 c 256,35,36
 356 710 356 710 401.5 688 c 128,-1,37
 447 666 447 666 473 622 c 128,-1,38
 499 578 499 578 508.5 512 c 128,-1,39
 518 446 518 446 518 358 c 0,20,21
EndSplineSet
Substitution2: "'ordn' Ordinals in Latin lookup 4 subtable" ordmasculine
Substitution2: "'aalt' Access All Alternates in Latin lookup 0 subtable" ordmasculine
Position2: "'cpsp' Capital Spacing in Latin lookup 0 subtable" dx=5 dy=0 dh=10 dv=0
EndChar

StartChar: P
Encoding: 80 80 49
Width: 520
Flags: W
LayerCount: 2
Fore
SplineSet
346 470 m 0,0,1
 346 529 346 529 330.5 559.5 c 128,-1,2
 315 590 315 590 272 590 c 0,3,4
 240 590 240 590 223 587 c 0,5,6
 213 585 213 585 207 584 c 1,7,-1
 207 359 l 1,8,-1
 270 359 l 2,9,10
 305 359 305 359 325.5 389 c 128,-1,11
 346 419 346 419 346 470 c 0,0,1
485 477 m 0,12,13
 485 411 485 411 471 366 c 128,-1,14
 457 321 457 321 429 293 c 128,-1,15
 401 265 401 265 359.5 253 c 128,-1,16
 318 241 318 241 264 241 c 2,17,-1
 207 241 l 1,18,-1
 207 0 l 1,19,-1
 70 0 l 1,20,-1
 70 700 l 1,21,22
 99 702 99 702 131 705 c 0,23,24
 158 707 158 707 190.5 708.5 c 128,-1,25
 223 710 223 710 254 710 c 0,26,27
 322 710 322 710 366.5 694.5 c 128,-1,28
 411 679 411 679 437.5 649.5 c 128,-1,29
 464 620 464 620 474.5 576.5 c 128,-1,30
 485 533 485 533 485 477 c 0,12,13
EndSplineSet
Position2: "'cpsp' Capital Spacing in Latin lookup 0 subtable" dx=5 dy=0 dh=10 dv=0
EndChar

StartChar: Q
Encoding: 81 81 50
Width: 568
Flags: W
LayerCount: 2
Fore
SplineSet
248 -8 m 1,0,1
 185 -3 185 -3 146.5 22.5 c 128,-1,2
 108 48 108 48 86.5 94 c 128,-1,3
 65 140 65 140 57.5 206 c 128,-1,4
 50 272 50 272 50 358 c 0,5,6
 50 446 50 446 59.5 512 c 128,-1,7
 69 578 69 578 95 622 c 128,-1,8
 121 666 121 666 166.5 688 c 128,-1,9
 212 710 212 710 284 710 c 256,10,11
 356 710 356 710 401.5 688 c 128,-1,12
 447 666 447 666 473 622 c 128,-1,13
 499 578 499 578 508.5 512 c 128,-1,14
 518 446 518 446 518 358 c 0,15,16
 518 229 518 229 497.5 145.5 c 128,-1,17
 477 62 477 62 419 23 c 1,18,-1
 518 0 l 1,19,-1
 518 -124 l 1,20,-1
 248 -8 l 1,0,1
379 353 m 0,21,22
 379 430 379 430 374 478.5 c 128,-1,23
 369 527 369 527 358 554.5 c 128,-1,24
 347 582 347 582 329 592 c 128,-1,25
 311 602 311 602 284 602 c 256,26,27
 257 602 257 602 239 592 c 128,-1,28
 221 582 221 582 210 554.5 c 128,-1,29
 199 527 199 527 194 478.5 c 128,-1,30
 189 430 189 430 189 353 c 0,31,32
 189 277 189 277 194 228 c 128,-1,33
 199 179 199 179 210 150 c 128,-1,34
 221 121 221 121 239 109.5 c 128,-1,35
 257 98 257 98 284 98 c 256,36,37
 311 98 311 98 329 109.5 c 128,-1,38
 347 121 347 121 358 150 c 128,-1,39
 369 179 369 179 374 228 c 128,-1,40
 379 277 379 277 379 353 c 0,21,22
EndSplineSet
Position2: "'cpsp' Capital Spacing in Latin lookup 0 subtable" dx=5 dy=0 dh=10 dv=0
EndChar

StartChar: R
Encoding: 82 82 51
Width: 533
Flags: W
LayerCount: 2
Fore
SplineSet
478 488 m 0,0,1
 478 405 478 405 453 357.5 c 128,-1,2
 428 310 428 310 383 287 c 1,3,-1
 508 0 l 1,4,-1
 353 0 l 1,5,-1
 247 264 l 1,6,-1
 207 264 l 1,7,-1
 207 0 l 1,8,-1
 70 0 l 1,9,-1
 70 700 l 1,10,11
 99 702 99 702 131 705 c 0,12,13
 158 707 158 707 190.5 708.5 c 128,-1,14
 223 710 223 710 254 710 c 0,15,16
 319 710 319 710 362 696.5 c 128,-1,17
 405 683 405 683 431 655 c 128,-1,18
 457 627 457 627 467.5 585.5 c 128,-1,19
 478 544 478 544 478 488 c 0,0,1
339 481 m 0,20,21
 339 540 339 540 325 565 c 128,-1,22
 311 590 311 590 268 590 c 0,23,24
 244 590 244 590 226 587 c 0,25,26
 215 585 215 585 207 584 c 1,27,-1
 207 382 l 1,28,-1
 270 382 l 2,29,30
 301 382 301 382 320 407 c 128,-1,31
 339 432 339 432 339 481 c 0,20,21
EndSplineSet
Position2: "'cpsp' Capital Spacing in Latin lookup 0 subtable" dx=5 dy=0 dh=10 dv=0
EndChar

StartChar: S
Encoding: 83 83 52
Width: 424
Flags: W
LayerCount: 2
Fore
SplineSet
404 208 m 0,0,1
 404 138 404 138 386.5 95.5 c 128,-1,2
 369 53 369 53 338.5 30 c 128,-1,3
 308 7 308 7 265.5 0 c 128,-1,4
 223 -7 223 -7 173 -7 c 0,5,6
 157 -7 157 -7 137.5 -6 c 128,-1,7
 118 -5 118 -5 98.5 -3 c 128,-1,8
 79 -1 79 -1 61.5 2 c 128,-1,9
 44 5 44 5 31 8 c 1,10,-1
 31 127 l 1,11,12
 43 124 43 124 59.5 121 c 128,-1,13
 76 118 76 118 94 116 c 128,-1,14
 112 114 112 114 130 112.5 c 128,-1,15
 148 111 148 111 163 111 c 0,16,17
 210 111 210 111 237.5 130.5 c 128,-1,18
 265 150 265 150 265 198 c 0,19,20
 265 225 265 225 259.5 244 c 128,-1,21
 254 263 254 263 243 275 c 128,-1,22
 232 287 232 287 216 294 c 128,-1,23
 200 301 200 301 180 305 c 0,24,25
 96 322 96 322 60.5 370 c 128,-1,26
 25 418 25 418 25 506 c 0,27,28
 25 562 25 562 40.5 600 c 128,-1,29
 56 638 56 638 86.5 662 c 128,-1,30
 117 686 117 686 161.5 696.5 c 128,-1,31
 206 707 206 707 263 707 c 0,32,33
 277 707 277 707 294 706 c 128,-1,34
 311 705 311 705 328 702.5 c 128,-1,35
 345 700 345 700 360.5 697.5 c 128,-1,36
 376 695 376 695 387 692 c 1,37,-1
 387 574 l 1,38,39
 374 577 374 577 356.5 579.5 c 128,-1,40
 339 582 339 582 320.5 584.5 c 128,-1,41
 302 587 302 587 284 588 c 128,-1,42
 266 589 266 589 253 589 c 0,43,44
 210 589 210 589 187 572 c 128,-1,45
 164 555 164 555 164 517 c 0,46,47
 164 493 164 493 167.5 477.5 c 128,-1,48
 171 462 171 462 180 452.5 c 128,-1,49
 189 443 189 443 204 437 c 128,-1,50
 219 431 219 431 243 426 c 0,51,52
 279 419 279 419 308.5 404.5 c 128,-1,53
 338 390 338 390 359.5 365 c 128,-1,54
 381 340 381 340 392.5 302 c 128,-1,55
 404 264 404 264 404 208 c 0,0,1
EndSplineSet
Position2: "'cpsp' Capital Spacing in Latin lookup 0 subtable" dx=5 dy=0 dh=10 dv=0
EndChar

StartChar: T
Encoding: 84 84 53
Width: 445
Flags: W
LayerCount: 2
Fore
SplineSet
291 579 m 1,0,-1
 291 0 l 1,1,-1
 154 0 l 1,2,-1
 154 579 l 1,3,-1
 10 579 l 1,4,-1
 10 700 l 1,5,-1
 435 700 l 1,6,-1
 435 579 l 1,7,-1
 291 579 l 1,0,-1
EndSplineSet
Position2: "'cpsp' Capital Spacing in Latin lookup 0 subtable" dx=5 dy=0 dh=10 dv=0
EndChar

StartChar: U
Encoding: 85 85 54
Width: 555
Flags: W
LayerCount: 2
Fore
SplineSet
490 215 m 2,0,1
 490 153 490 153 476 110.5 c 128,-1,2
 462 68 462 68 435 42 c 128,-1,3
 408 16 408 16 368.5 4.5 c 128,-1,4
 329 -7 329 -7 278 -7 c 256,5,6
 227 -7 227 -7 187.5 4.5 c 128,-1,7
 148 16 148 16 121 42 c 128,-1,8
 94 68 94 68 79.5 110.5 c 128,-1,9
 65 153 65 153 65 215 c 2,10,-1
 65 700 l 1,11,-1
 202 700 l 1,12,-1
 202 196 l 2,13,14
 202 111 202 111 278 111 c 0,15,16
 317 111 317 111 335 132.5 c 128,-1,17
 353 154 353 154 353 196 c 2,18,-1
 353 700 l 1,19,-1
 490 700 l 1,20,-1
 490 215 l 2,0,1
EndSplineSet
Position2: "'cpsp' Capital Spacing in Latin lookup 0 subtable" dx=5 dy=0 dh=10 dv=0
EndChar

StartChar: V
Encoding: 86 86 55
Width: 542
Flags: W
LayerCount: 2
Fore
SplineSet
376 0 m 1,0,-1
 165 0 l 1,1,-1
 25 700 l 1,2,-1
 169 700 l 1,3,-1
 274 98 l 1,4,-1
 383 700 l 1,5,-1
 517 700 l 1,6,-1
 376 0 l 1,0,-1
EndSplineSet
Position2: "'cpsp' Capital Spacing in Latin lookup 0 subtable" dx=5 dy=0 dh=10 dv=0
EndChar

StartChar: W
Encoding: 87 87 56
Width: 628
Flags: W
LayerCount: 2
Fore
SplineSet
549 0 m 1,0,-1
 356 0 l 1,1,-1
 314 235 l 1,2,-1
 264 0 l 1,3,-1
 79 0 l 1,4,-1
 45 700 l 1,5,-1
 167 700 l 1,6,-1
 194 107 l 1,7,-1
 265 405 l 1,8,-1
 379 405 l 1,9,-1
 442 107 l 1,10,-1
 470 700 l 1,11,-1
 583 700 l 1,12,-1
 549 0 l 1,0,-1
EndSplineSet
Position2: "'cpsp' Capital Spacing in Latin lookup 0 subtable" dx=5 dy=0 dh=10 dv=0
EndChar

StartChar: X
Encoding: 88 88 57
Width: 525
Flags: W
LayerCount: 2
Fore
SplineSet
355 0 m 1,0,-1
 263 232 l 1,1,-1
 164 0 l 1,2,-1
 15 0 l 1,3,-1
 195 363 l 1,4,-1
 35 700 l 1,5,-1
 187 700 l 1,6,-1
 269 493 l 1,7,-1
 354 700 l 1,8,-1
 503 700 l 1,9,-1
 336 364 l 1,10,-1
 510 0 l 1,11,-1
 355 0 l 1,0,-1
EndSplineSet
Position2: "'cpsp' Capital Spacing in Latin lookup 0 subtable" dx=5 dy=0 dh=10 dv=0
EndChar

StartChar: Y
Encoding: 89 89 58
Width: 531
Flags: W
LayerCount: 2
Fore
SplineSet
334 308 m 1,0,-1
 334 0 l 1,1,-1
 194 0 l 1,2,-1
 194 308 l 1,3,-1
 10 700 l 1,4,-1
 158 700 l 1,5,-1
 269 430 l 1,6,-1
 380 700 l 1,7,-1
 521 700 l 1,8,-1
 334 308 l 1,0,-1
EndSplineSet
Position2: "'cpsp' Capital Spacing in Latin lookup 0 subtable" dx=5 dy=0 dh=10 dv=0
EndChar

StartChar: Z
Encoding: 90 90 59
Width: 466
Flags: W
LayerCount: 2
Fore
SplineSet
182 119 m 1,0,-1
 421 119 l 1,1,-1
 421 0 l 1,2,-1
 35 0 l 1,3,-1
 35 133 l 1,4,-1
 285 581 l 1,5,-1
 58 581 l 1,6,-1
 58 700 l 1,7,-1
 431 700 l 1,8,-1
 431 567 l 1,9,-1
 182 119 l 1,0,-1
EndSplineSet
Position2: "'cpsp' Capital Spacing in Latin lookup 0 subtable" dx=5 dy=0 dh=10 dv=0
EndChar

StartChar: bracketleft
Encoding: 91 91 60
Width: 330
Flags: W
LayerCount: 2
Fore
SplineSet
70 -120 m 1,0,-1
 70 820 l 1,1,-1
 290 820 l 1,2,-1
 290 705 l 1,3,-1
 200 705 l 1,4,-1
 200 0 l 1,5,-1
 290 0 l 1,6,-1
 290 -120 l 1,7,-1
 70 -120 l 1,0,-1
EndSplineSet
EndChar

StartChar: backslash
Encoding: 92 92 61
Width: 325
Flags: W
LayerCount: 2
Fore
SplineSet
-20 810 m 1,0,-1
 109 810 l 1,1,-1
 345 -110 l 1,2,-1
 216 -110 l 1,3,-1
 -20 810 l 1,0,-1
EndSplineSet
EndChar

StartChar: bracketright
Encoding: 93 93 62
Width: 330
Flags: W
LayerCount: 2
Fore
SplineSet
40 -120 m 1,0,-1
 40 0 l 1,1,-1
 130 0 l 1,2,-1
 130 705 l 1,3,-1
 40 705 l 1,4,-1
 40 820 l 1,5,-1
 260 820 l 1,6,-1
 260 -120 l 1,7,-1
 40 -120 l 1,0,-1
EndSplineSet
EndChar

StartChar: asciicircum
Encoding: 94 94 63
Width: 497
Flags: W
LayerCount: 2
Fore
SplineSet
316 420 m 1,0,-1
 251 660 l 1,1,-1
 168 420 l 1,2,-1
 30 420 l 1,3,-1
 164 760 l 1,4,-1
 338 760 l 1,5,-1
 467 420 l 1,6,-1
 316 420 l 1,0,-1
EndSplineSet
EndChar

StartChar: underscore
Encoding: 95 95 64
Width: 510
Flags: W
LayerCount: 2
Fore
SplineSet
3 -170 m 1,0,-1
 3 -50 l 1,1,-1
 507 -50 l 1,2,-1
 507 -170 l 1,3,-1
 3 -170 l 1,0,-1
EndSplineSet
EndChar

StartChar: quoteleft
Encoding: 8216 8216 65
Width: 235
Flags: W
LayerCount: 2
Fore
SplineSet
110 699 m 1,0,-1
 205 699 l 1,1,-1
 175 542 l 1,2,-1
 175 432 l 1,3,-1
 40 432 l 1,4,-1
 40 542 l 1,5,-1
 110 699 l 1,0,-1
EndSplineSet
EndChar

StartChar: a
Encoding: 97 97 66
Width: 509
Flags: W
LayerCount: 2
Fore
SplineSet
416 0 m 2,0,1
 396 0 396 0 370 8 c 128,-1,2
 344 16 344 16 330 41 c 1,3,4
 311 18 311 18 280 4.5 c 128,-1,5
 249 -9 249 -9 198 -9 c 0,6,7
 165 -9 165 -9 137 -1 c 128,-1,8
 109 7 109 7 88.5 25.5 c 128,-1,9
 68 44 68 44 56.5 74.5 c 128,-1,10
 45 105 45 105 45 151 c 0,11,12
 45 242 45 242 99.5 280 c 128,-1,13
 154 318 154 318 257 318 c 2,14,-1
 302 318 l 1,15,-1
 302 339 l 2,16,17
 302 368 302 368 287.5 383.5 c 128,-1,18
 273 399 273 399 235 399 c 0,19,20
 192 399 192 399 155.5 392.5 c 128,-1,21
 119 386 119 386 81 375 c 1,22,-1
 81 489 l 1,23,24
 95 493 95 493 114 496.5 c 128,-1,25
 133 500 133 500 153.5 503 c 128,-1,26
 174 506 174 506 195.5 507.5 c 128,-1,27
 217 509 217 509 235 509 c 0,28,29
 299 509 299 509 338 498.5 c 128,-1,30
 377 488 377 488 398.5 466 c 128,-1,31
 420 444 420 444 427.5 410 c 128,-1,32
 435 376 435 376 435 330 c 2,33,-1
 435 132 l 2,34,35
 435 117 435 117 443 108.5 c 128,-1,36
 451 100 451 100 474 100 c 1,37,-1
 474 0 l 1,38,-1
 416 0 l 2,0,1
236 103 m 0,39,40
 257 103 257 103 269.5 110.5 c 128,-1,41
 282 118 282 118 289.5 129 c 128,-1,42
 297 140 297 140 299.5 152.5 c 128,-1,43
 302 165 302 165 302 175 c 2,44,-1
 302 220 l 1,45,-1
 252 220 l 2,46,47
 220 220 220 220 200 206 c 128,-1,48
 180 192 180 192 180 158 c 0,49,50
 180 135 180 135 192.5 119 c 128,-1,51
 205 103 205 103 236 103 c 0,39,40
EndSplineSet
Substitution2: "'ordn' Ordinals in Latin lookup 4 subtable" ordfeminine
Substitution2: "'aalt' Access All Alternates in Latin lookup 0 subtable" ordfeminine
EndChar

StartChar: b
Encoding: 98 98 67
Width: 517
Flags: W
LayerCount: 2
Fore
SplineSet
467 282 m 0,0,1
 467 200 467 200 454.5 144 c 128,-1,2
 442 88 442 88 414.5 54 c 128,-1,3
 387 20 387 20 341.5 5.5 c 128,-1,4
 296 -9 296 -9 230 -9 c 0,5,6
 176 -9 176 -9 134.5 -4 c 128,-1,7
 93 1 93 1 65 5 c 1,8,-1
 65 700 l 1,9,-1
 198 700 l 1,10,-1
 198 474 l 1,11,12
 219 490 219 490 245.5 499.5 c 128,-1,13
 272 509 272 509 304 509 c 0,14,15
 345 509 345 509 376 497.5 c 128,-1,16
 407 486 407 486 427 460 c 128,-1,17
 447 434 447 434 457 390.5 c 128,-1,18
 467 347 467 347 467 282 c 0,0,1
269 395 m 0,19,20
 236 395 236 395 217 371 c 128,-1,21
 198 347 198 347 198 320 c 2,22,-1
 198 107 l 1,23,24
 209 106 209 106 219 105.5 c 128,-1,25
 229 105 229 105 239 105 c 0,26,27
 267 105 267 105 285 111.5 c 128,-1,28
 303 118 303 118 313.5 136.5 c 128,-1,29
 324 155 324 155 328 187.5 c 128,-1,30
 332 220 332 220 332 272 c 0,31,32
 332 310 332 310 329 334 c 128,-1,33
 326 358 326 358 318.5 371.5 c 128,-1,34
 311 385 311 385 299 390 c 128,-1,35
 287 395 287 395 269 395 c 0,19,20
EndSplineSet
EndChar

StartChar: c
Encoding: 99 99 68
Width: 407
Flags: W
LayerCount: 2
Fore
SplineSet
367 6 m 1,0,1
 343 -1 343 -1 311 -5 c 128,-1,2
 279 -9 279 -9 252 -9 c 0,3,4
 203 -9 203 -9 165.5 1 c 128,-1,5
 128 11 128 11 102.5 40 c 128,-1,6
 77 69 77 69 63.5 121.5 c 128,-1,7
 50 174 50 174 50 260 c 0,8,9
 50 394 50 394 102.5 451.5 c 128,-1,10
 155 509 155 509 253 509 c 0,11,12
 278 509 278 509 311.5 504.5 c 128,-1,13
 345 500 345 500 367 495 c 1,14,-1
 367 378 l 1,15,16
 353 381 353 381 341.5 383.5 c 128,-1,17
 330 386 330 386 318 388 c 128,-1,18
 306 390 306 390 292 391 c 128,-1,19
 278 392 278 392 259 392 c 0,20,21
 242 392 242 392 228.5 386 c 128,-1,22
 215 380 215 380 206 363.5 c 128,-1,23
 197 347 197 347 192 317.5 c 128,-1,24
 187 288 187 288 187 240 c 0,25,26
 187 165 187 165 204.5 136.5 c 128,-1,27
 222 108 222 108 257 108 c 0,28,29
 295 108 295 108 320 113 c 128,-1,30
 345 118 345 118 367 122 c 1,31,-1
 367 6 l 1,0,1
EndSplineSet
EndChar

StartChar: d
Encoding: 100 100 69
Width: 524
Flags: W
LayerCount: 2
Fore
SplineSet
50 237 m 0,0,1
 50 314 50 314 64 366 c 128,-1,2
 78 418 78 418 107 450 c 128,-1,3
 136 482 136 482 181.5 495.5 c 128,-1,4
 227 509 227 509 290 509 c 0,5,6
 300 509 300 509 309 508.5 c 128,-1,7
 318 508 318 508 326 508 c 1,8,-1
 326 700 l 1,9,-1
 459 700 l 1,10,-1
 459 0 l 1,11,-1
 351 0 l 1,12,-1
 341 41 l 1,13,14
 317 18 317 18 286 4.5 c 128,-1,15
 255 -9 255 -9 216 -9 c 0,16,17
 174 -9 174 -9 143 2.5 c 128,-1,18
 112 14 112 14 91 42 c 128,-1,19
 70 70 70 70 60 117.5 c 128,-1,20
 50 165 50 165 50 237 c 0,0,1
251 105 m 0,21,22
 268 105 268 105 281.5 111.5 c 128,-1,23
 295 118 295 118 305 129 c 128,-1,24
 315 140 315 140 320.5 153.5 c 128,-1,25
 326 167 326 167 326 180 c 2,26,-1
 326 392 l 1,27,28
 315 393 315 393 303.5 394 c 128,-1,29
 292 395 292 395 281 395 c 0,30,31
 255 395 255 395 236.5 388.5 c 128,-1,32
 218 382 218 382 206.5 363.5 c 128,-1,33
 195 345 195 345 190 312.5 c 128,-1,34
 185 280 185 280 185 228 c 0,35,36
 185 190 185 190 188.5 166 c 128,-1,37
 192 142 192 142 200 128.5 c 128,-1,38
 208 115 208 115 220.5 110 c 128,-1,39
 233 105 233 105 251 105 c 0,21,22
EndSplineSet
EndChar

StartChar: e
Encoding: 101 101 70
Width: 489
Flags: W
LayerCount: 2
Fore
SplineSet
185 201 m 1,0,1
 188 146 188 146 205.5 125.5 c 128,-1,2
 223 105 223 105 268 105 c 0,3,4
 310 105 310 105 347.5 110 c 128,-1,5
 385 115 385 115 407 120 c 1,6,-1
 407 8 l 1,7,8
 395 5 395 5 377 1.5 c 128,-1,9
 359 -2 359 -2 339 -4 c 128,-1,10
 319 -6 319 -6 300.5 -7.5 c 128,-1,11
 282 -9 282 -9 268 -9 c 0,12,13
 214 -9 214 -9 173 0 c 128,-1,14
 132 9 132 9 104.5 37 c 128,-1,15
 77 65 77 65 63.5 115.5 c 128,-1,16
 50 166 50 166 50 250 c 0,17,18
 50 319 50 319 63.5 368.5 c 128,-1,19
 77 418 77 418 103.5 449 c 128,-1,20
 130 480 130 480 168 494.5 c 128,-1,21
 206 509 206 509 255 509 c 0,22,23
 312 509 312 509 348.5 494 c 128,-1,24
 385 479 385 479 406 450.5 c 128,-1,25
 427 422 427 422 435.5 380 c 128,-1,26
 444 338 444 338 444 285 c 2,27,-1
 444 201 l 1,28,-1
 185 201 l 1,0,1
253 399 m 0,29,30
 222 399 222 399 206.5 377 c 128,-1,31
 191 355 191 355 186 299 c 1,32,-1
 316 299 l 1,33,-1
 316 325 l 2,34,35
 316 362 316 362 301 380.5 c 128,-1,36
 286 399 286 399 253 399 c 0,29,30
EndSplineSet
EndChar

StartChar: f
Encoding: 102 102 71
Width: 341
Flags: W
LayerCount: 2
Fore
SplineSet
223 387 m 1,0,-1
 223 0 l 1,1,-1
 90 0 l 1,2,-1
 90 387 l 1,3,-1
 25 387 l 1,4,-1
 25 500 l 1,5,-1
 90 500 l 1,6,-1
 90 540 l 2,7,8
 90 591 90 591 99.5 624 c 128,-1,9
 109 657 109 657 128 676 c 128,-1,10
 147 695 147 695 175.5 702 c 128,-1,11
 204 709 204 709 241 709 c 0,12,13
 273 709 273 709 304.5 704.5 c 128,-1,14
 336 700 336 700 351 697 c 1,15,-1
 351 584 l 1,16,17
 335 588 335 588 314 591.5 c 128,-1,18
 293 595 293 595 266 595 c 0,19,20
 241 595 241 595 232 582.5 c 128,-1,21
 223 570 223 570 223 549 c 2,22,-1
 223 500 l 1,23,-1
 332 500 l 1,24,-1
 332 387 l 1,25,-1
 223 387 l 1,0,-1
EndSplineSet
EndChar

StartChar: g
Encoding: 103 103 72
Width: 548
Flags: W
LayerCount: 2
Fore
SplineSet
478 326 m 0,0,1
 478 236 478 236 422 195.5 c 128,-1,2
 366 155 366 155 252 155 c 0,3,4
 220 155 220 155 193 158 c 1,5,6
 187 146 187 146 187 129 c 0,7,8
 187 123 187 123 189 113 c 1,9,10
 221 116 221 116 254 117.5 c 128,-1,11
 287 119 287 119 307 119 c 0,12,13
 352 119 352 119 387 111 c 128,-1,14
 422 103 422 103 446.5 84.5 c 128,-1,15
 471 66 471 66 483.5 35 c 128,-1,16
 496 4 496 4 496 -42 c 0,17,18
 496 -92 496 -92 477 -121.5 c 128,-1,19
 458 -151 458 -151 426 -167 c 128,-1,20
 394 -183 394 -183 352.5 -187.5 c 128,-1,21
 311 -192 311 -192 265 -192 c 0,22,23
 246 -192 246 -192 218.5 -190.5 c 128,-1,24
 191 -189 191 -189 163 -186.5 c 128,-1,25
 135 -184 135 -184 110 -181 c 128,-1,26
 85 -178 85 -178 71 -175 c 1,27,-1
 71 -67 l 1,28,29
 90 -70 90 -70 114.5 -73.5 c 128,-1,30
 139 -77 139 -77 166 -79 c 128,-1,31
 193 -81 193 -81 220 -82.5 c 128,-1,32
 247 -84 247 -84 271 -84 c 0,33,34
 322 -84 322 -84 340.5 -73 c 128,-1,35
 359 -62 359 -62 359 -39 c 0,36,37
 359 -20 359 -20 347.5 -7 c 128,-1,38
 336 6 336 6 298 6 c 0,39,40
 284 6 284 6 259.5 5 c 128,-1,41
 235 4 235 4 208.5 2.5 c 128,-1,42
 182 1 182 1 157 -1 c 128,-1,43
 132 -3 132 -3 117 -5 c 1,44,45
 102 9 102 9 86 38.5 c 128,-1,46
 70 68 70 68 70 108 c 0,47,48
 70 160 70 160 96 195 c 1,49,50
 70 217 70 217 57.5 250.5 c 128,-1,51
 45 284 45 284 45 334 c 0,52,53
 45 392 45 392 65 426.5 c 128,-1,54
 85 461 85 461 118 479.5 c 128,-1,55
 151 498 151 498 192.5 503.5 c 128,-1,56
 234 509 234 509 277 509 c 0,57,58
 327 509 327 509 364 497 c 1,59,-1
 528 504 l 1,60,-1
 528 402 l 1,61,-1
 464 406 l 1,62,63
 478 370 478 370 478 326 c 0,0,1
345 334 m 0,64,65
 345 372 345 372 328 386.5 c 128,-1,66
 311 401 311 401 267 401 c 0,67,68
 213 401 213 401 195.5 384 c 128,-1,69
 178 367 178 367 178 326 c 0,70,71
 178 261 178 261 252 261 c 0,72,73
 274 261 274 261 291.5 263.5 c 128,-1,74
 309 266 309 266 321 274 c 128,-1,75
 333 282 333 282 339 296.5 c 128,-1,76
 345 311 345 311 345 334 c 0,64,65
EndSplineSet
EndChar

StartChar: h
Encoding: 104 104 73
Width: 524
Flags: W
LayerCount: 2
Fore
SplineSet
65 0 m 1,0,-1
 65 700 l 1,1,-1
 198 700 l 1,2,-1
 198 475 l 1,3,4
 219 491 219 491 245 500 c 128,-1,5
 271 509 271 509 302 509 c 0,6,7
 354 509 354 509 385.5 497 c 128,-1,8
 417 485 417 485 434.5 460 c 128,-1,9
 452 435 452 435 458 398 c 128,-1,10
 464 361 464 361 464 310 c 2,11,-1
 464 0 l 1,12,-1
 331 0 l 1,13,-1
 331 313 l 2,14,15
 331 363 331 363 316.5 378.5 c 128,-1,16
 302 394 302 394 275 394 c 0,17,18
 237 394 237 394 218.5 372 c 128,-1,19
 200 350 200 350 198 324 c 1,20,-1
 198 0 l 1,21,-1
 65 0 l 1,0,-1
EndSplineSet
EndChar

StartChar: i
Encoding: 105 105 74
Width: 263
Flags: W
LayerCount: 2
Fore
SplineSet
60 585 m 1,0,-1
 60 700 l 1,1,-1
 203 700 l 1,2,-1
 203 585 l 1,3,-1
 60 585 l 1,0,-1
65 0 m 1,4,-1
 65 500 l 1,5,-1
 198 500 l 1,6,-1
 198 0 l 1,7,-1
 65 0 l 1,4,-1
EndSplineSet
EndChar

StartChar: j
Encoding: 106 106 75
Width: 263
Flags: W
LayerCount: 2
Fore
SplineSet
198 -13 m 2,0,1
 198 -61 198 -61 189 -92.5 c 128,-1,2
 180 -124 180 -124 161 -142.5 c 128,-1,3
 142 -161 142 -161 112 -169 c 128,-1,4
 82 -177 82 -177 40 -177 c 0,5,6
 16 -177 16 -177 -4.5 -175.5 c 128,-1,7
 -25 -174 -25 -174 -45 -172 c 1,8,-1
 -45 -60 l 1,9,10
 -32 -62 -32 -62 -13 -62.5 c 128,-1,11
 6 -63 6 -63 18 -63 c 0,12,13
 45 -63 45 -63 55 -53.5 c 128,-1,14
 65 -44 65 -44 65 -18 c 2,15,-1
 65 500 l 1,16,-1
 198 500 l 1,17,-1
 198 -13 l 2,0,1
60 585 m 1,18,-1
 60 700 l 1,19,-1
 203 700 l 1,20,-1
 203 585 l 1,21,-1
 60 585 l 1,18,-1
EndSplineSet
EndChar

StartChar: k
Encoding: 107 107 76
Width: 495
Flags: W
LayerCount: 2
Fore
SplineSet
327 0 m 1,0,-1
 219 207 l 1,1,-1
 198 180 l 1,2,-1
 198 0 l 1,3,-1
 65 0 l 1,4,-1
 65 700 l 1,5,-1
 198 700 l 1,6,-1
 198 350 l 1,7,-1
 318 500 l 1,8,-1
 470 500 l 1,9,-1
 301 300 l 1,10,-1
 480 0 l 1,11,-1
 327 0 l 1,0,-1
EndSplineSet
EndChar

StartChar: l
Encoding: 108 108 77
Width: 290
Flags: W
LayerCount: 2
Fore
SplineSet
265 3 m 1,0,1
 254 1 254 1 228.5 -2 c 128,-1,2
 203 -5 203 -5 174 -5 c 0,3,4
 112 -5 112 -5 88.5 32.5 c 128,-1,5
 65 70 65 70 65 148 c 2,6,-1
 65 700 l 1,7,-1
 198 700 l 1,8,-1
 198 153 l 2,9,10
 198 129 198 129 204 119.5 c 128,-1,11
 210 110 210 110 229 110 c 0,12,13
 240 110 240 110 250.5 111.5 c 128,-1,14
 261 113 261 113 265 114 c 1,15,-1
 265 3 l 1,0,1
EndSplineSet
EndChar

StartChar: m
Encoding: 109 109 78
Width: 750
Flags: W
LayerCount: 2
Fore
SplineSet
65 0 m 1,0,-1
 65 500 l 1,1,-1
 173 500 l 1,2,-1
 181 463 l 1,3,4
 203 484 203 484 231 496.5 c 128,-1,5
 259 509 259 509 292 509 c 0,6,7
 340 509 340 509 369 496 c 128,-1,8
 398 483 398 483 415 458 c 1,9,10
 438 481 438 481 469 495 c 128,-1,11
 500 509 500 509 538 509 c 0,12,13
 588 509 588 509 618 496.5 c 128,-1,14
 648 484 648 484 664 459 c 128,-1,15
 680 434 680 434 685 397 c 128,-1,16
 690 360 690 360 690 310 c 2,17,-1
 690 0 l 1,18,-1
 557 0 l 1,19,-1
 557 313 l 2,20,21
 557 363 557 363 546 378.5 c 128,-1,22
 535 394 535 394 511 394 c 0,23,24
 476 394 476 394 461 372 c 128,-1,25
 446 350 446 350 444 324 c 1,26,-1
 444 0 l 1,27,-1
 311 0 l 1,28,-1
 311 313 l 2,29,30
 311 363 311 363 300 378.5 c 128,-1,31
 289 394 289 394 265 394 c 0,32,33
 229 394 229 394 213.5 370 c 128,-1,34
 198 346 198 346 198 319 c 2,35,-1
 198 0 l 1,36,-1
 65 0 l 1,0,-1
EndSplineSet
EndChar

StartChar: n
Encoding: 110 110 79
Width: 524
Flags: W
LayerCount: 2
Fore
SplineSet
65 0 m 1,0,-1
 65 500 l 1,1,-1
 173 500 l 1,2,-1
 182 461 l 1,3,4
 205 483 205 483 235 496 c 128,-1,5
 265 509 265 509 302 509 c 0,6,7
 354 509 354 509 385.5 497 c 128,-1,8
 417 485 417 485 434.5 460 c 128,-1,9
 452 435 452 435 458 398 c 128,-1,10
 464 361 464 361 464 310 c 2,11,-1
 464 0 l 1,12,-1
 331 0 l 1,13,-1
 331 313 l 2,14,15
 331 363 331 363 316.5 378.5 c 128,-1,16
 302 394 302 394 275 394 c 0,17,18
 237 394 237 394 218.5 372 c 128,-1,19
 200 350 200 350 198 324 c 1,20,-1
 198 0 l 1,21,-1
 65 0 l 1,0,-1
EndSplineSet
EndChar

StartChar: o
Encoding: 111 111 80
Width: 530
Flags: W
LayerCount: 2
Fore
SplineSet
480 260 m 0,0,1
 480 181 480 181 466 129.5 c 128,-1,2
 452 78 452 78 425 47.5 c 128,-1,3
 398 17 398 17 357.5 5 c 128,-1,4
 317 -7 317 -7 264 -7 c 256,5,6
 211 -7 211 -7 171 5 c 128,-1,7
 131 17 131 17 104 47.5 c 128,-1,8
 77 78 77 78 63.5 129.5 c 128,-1,9
 50 181 50 181 50 260 c 0,10,11
 50 388 50 388 100.5 447.5 c 128,-1,12
 151 507 151 507 264 507 c 256,13,14
 377 507 377 507 428.5 447.5 c 128,-1,15
 480 388 480 388 480 260 c 0,0,1
344 245 m 0,16,17
 344 289 344 289 340 318.5 c 128,-1,18
 336 348 336 348 326.5 366 c 128,-1,19
 317 384 317 384 302 391.5 c 128,-1,20
 287 399 287 399 264 399 c 0,21,22
 242 399 242 399 227 391.5 c 128,-1,23
 212 384 212 384 203 366 c 128,-1,24
 194 348 194 348 190 318.5 c 128,-1,25
 186 289 186 289 186 245 c 0,26,27
 186 203 186 203 189.5 175.5 c 128,-1,28
 193 148 193 148 202 131.5 c 128,-1,29
 211 115 211 115 226 108 c 128,-1,30
 241 101 241 101 264 101 c 256,31,32
 287 101 287 101 302.5 108 c 128,-1,33
 318 115 318 115 327 131.5 c 128,-1,34
 336 148 336 148 340 175.5 c 128,-1,35
 344 203 344 203 344 245 c 0,16,17
EndSplineSet
Substitution2: "'ordn' Ordinals in Latin lookup 4 subtable" ordmasculine
Substitution2: "'aalt' Access All Alternates in Latin lookup 0 subtable" ordmasculine
EndChar

StartChar: p
Encoding: 112 112 81
Width: 519
Flags: W
LayerCount: 2
Fore
SplineSet
65 -170 m 1,0,-1
 65 500 l 1,1,-1
 173 500 l 1,2,-1
 183 459 l 1,3,4
 206 482 206 482 236 495.5 c 128,-1,5
 266 509 266 509 306 509 c 0,6,7
 347 509 347 509 378 497.5 c 128,-1,8
 409 486 409 486 429 460 c 128,-1,9
 449 434 449 434 459 390.5 c 128,-1,10
 469 347 469 347 469 282 c 0,11,12
 469 200 469 200 456.5 144 c 128,-1,13
 444 88 444 88 416.5 54 c 128,-1,14
 389 20 389 20 344 5.5 c 128,-1,15
 299 -9 299 -9 234 -9 c 0,16,17
 225 -9 225 -9 216 -9 c 128,-1,18
 207 -9 207 -9 198 -8 c 1,19,-1
 198 -170 l 1,20,-1
 65 -170 l 1,0,-1
271 395 m 0,21,22
 238 395 238 395 218 371 c 128,-1,23
 198 347 198 347 198 320 c 2,24,-1
 198 107 l 1,25,26
 209 106 209 106 220 105.5 c 128,-1,27
 231 105 231 105 241 105 c 0,28,29
 269 105 269 105 287 111.5 c 128,-1,30
 305 118 305 118 315.5 136.5 c 128,-1,31
 326 155 326 155 330 187.5 c 128,-1,32
 334 220 334 220 334 272 c 0,33,34
 334 310 334 310 331 334 c 128,-1,35
 328 358 328 358 320.5 371.5 c 128,-1,36
 313 385 313 385 301 390 c 128,-1,37
 289 395 289 395 271 395 c 0,21,22
EndSplineSet
EndChar

StartChar: q
Encoding: 113 113 82
Width: 524
Flags: W
LayerCount: 2
Fore
SplineSet
50 237 m 0,0,1
 50 314 50 314 63.5 366 c 128,-1,2
 77 418 77 418 105.5 450 c 128,-1,3
 134 482 134 482 178.5 495.5 c 128,-1,4
 223 509 223 509 286 509 c 0,5,6
 313 509 313 509 334.5 508 c 128,-1,7
 356 507 356 507 375.5 505.5 c 128,-1,8
 395 504 395 504 415 501.5 c 128,-1,9
 435 499 435 499 459 495 c 1,10,-1
 459 -170 l 1,11,-1
 326 -170 l 1,12,-1
 326 30 l 1,13,14
 303 12 303 12 275.5 1.5 c 128,-1,15
 248 -9 248 -9 213 -9 c 0,16,17
 171 -9 171 -9 140.5 2.5 c 128,-1,18
 110 14 110 14 89.5 42 c 128,-1,19
 69 70 69 70 59.5 117.5 c 128,-1,20
 50 165 50 165 50 237 c 0,0,1
248 105 m 0,21,22
 264 105 264 105 278 111.5 c 128,-1,23
 292 118 292 118 302.5 128 c 128,-1,24
 313 138 313 138 319 151 c 128,-1,25
 325 164 325 164 326 177 c 1,26,-1
 326 392 l 1,27,28
 313 393 313 393 300.5 394 c 128,-1,29
 288 395 288 395 277 395 c 0,30,31
 251 395 251 395 233 388.5 c 128,-1,32
 215 382 215 382 204.5 363.5 c 128,-1,33
 194 345 194 345 189.5 312.5 c 128,-1,34
 185 280 185 280 185 228 c 0,35,36
 185 190 185 190 188 166 c 128,-1,37
 191 142 191 142 198.5 128.5 c 128,-1,38
 206 115 206 115 218 110 c 128,-1,39
 230 105 230 105 248 105 c 0,21,22
EndSplineSet
EndChar

StartChar: r
Encoding: 114 114 83
Width: 353
Flags: W
LayerCount: 2
Fore
SplineSet
65 0 m 1,0,-1
 65 500 l 1,1,-1
 173 500 l 1,2,-1
 183 455 l 1,3,4
 203 479 203 479 229 494 c 128,-1,5
 255 509 255 509 287 509 c 0,6,7
 310 509 310 509 333 504 c 1,8,-1
 333 372 l 1,9,10
 320 375 320 375 308.5 376.5 c 128,-1,11
 297 378 297 378 283 378 c 0,12,13
 258 378 258 378 242 365.5 c 128,-1,14
 226 353 226 353 216 332.5 c 128,-1,15
 206 312 206 312 202 286 c 128,-1,16
 198 260 198 260 198 233 c 2,17,-1
 198 0 l 1,18,-1
 65 0 l 1,0,-1
EndSplineSet
EndChar

StartChar: s
Encoding: 115 115 84
Width: 425
Flags: W
LayerCount: 2
Fore
SplineSet
385 151 m 0,0,1
 385 105 385 105 370.5 74.5 c 128,-1,2
 356 44 356 44 329.5 25.5 c 128,-1,3
 303 7 303 7 266 -1 c 128,-1,4
 229 -9 229 -9 184 -9 c 0,5,6
 165 -9 165 -9 145 -7.5 c 128,-1,7
 125 -6 125 -6 106.5 -3.5 c 128,-1,8
 88 -1 88 -1 72.5 1.5 c 128,-1,9
 57 4 57 4 47 7 c 1,10,-1
 47 121 l 1,11,12
 67 116 67 116 99 109.5 c 128,-1,13
 131 103 131 103 166 103 c 256,14,15
 201 103 201 103 224.5 111 c 128,-1,16
 248 119 248 119 248 145 c 0,17,18
 248 168 248 168 235.5 180 c 128,-1,19
 223 192 223 192 185 199 c 0,20,21
 108 213 108 213 76.5 251 c 128,-1,22
 45 289 45 289 45 353 c 0,23,24
 45 437 45 437 96 473 c 128,-1,25
 147 509 147 509 253 509 c 0,26,27
 268 509 268 509 285 507 c 128,-1,28
 302 505 302 505 318 502.5 c 128,-1,29
 334 500 334 500 347.5 497 c 128,-1,30
 361 494 361 494 368 492 c 1,31,-1
 368 378 l 1,32,33
 345 385 345 385 317.5 391 c 128,-1,34
 290 397 290 397 249 397 c 0,35,36
 212 397 212 397 196 388 c 128,-1,37
 180 379 180 379 180 356 c 0,38,39
 180 338 180 338 196 328.5 c 128,-1,40
 212 319 212 319 245 314 c 0,41,42
 323 301 323 301 354 260.5 c 128,-1,43
 385 220 385 220 385 151 c 0,0,1
EndSplineSet
EndChar

StartChar: t
Encoding: 116 116 85
Width: 348
Flags: W
LayerCount: 2
Fore
SplineSet
218 385 m 1,0,-1
 218 150 l 2,1,2
 218 126 218 126 227.5 115.5 c 128,-1,3
 237 105 237 105 260 105 c 0,4,5
 276 105 276 105 294 108 c 128,-1,6
 312 111 312 111 323 114 c 1,7,-1
 323 3 l 1,8,9
 318 2 318 2 306 -0.5 c 128,-1,10
 294 -3 294 -3 279 -4.5 c 128,-1,11
 264 -6 264 -6 248 -7.5 c 128,-1,12
 232 -9 232 -9 218 -9 c 0,13,14
 176 -9 176 -9 150 4.5 c 128,-1,15
 124 18 124 18 109.5 40.5 c 128,-1,16
 95 63 95 63 90 92.5 c 128,-1,17
 85 122 85 122 85 155 c 2,18,-1
 85 385 l 1,19,-1
 20 385 l 1,20,-1
 20 500 l 1,21,-1
 85 500 l 1,22,-1
 85 620 l 1,23,-1
 218 620 l 1,24,-1
 218 500 l 1,25,-1
 318 500 l 1,26,-1
 318 385 l 1,27,-1
 218 385 l 1,0,-1
EndSplineSet
EndChar

StartChar: u
Encoding: 117 117 86
Width: 518
Flags: W
LayerCount: 2
Fore
SplineSet
193 500 m 1,0,-1
 193 182 l 2,1,2
 193 157 193 157 197 142 c 128,-1,3
 201 127 201 127 208 119 c 128,-1,4
 215 111 215 111 225.5 108.5 c 128,-1,5
 236 106 236 106 249 106 c 0,6,7
 287 106 287 106 303.5 130 c 128,-1,8
 320 154 320 154 320 181 c 2,9,-1
 320 500 l 1,10,-1
 453 500 l 1,11,-1
 453 0 l 1,12,-1
 345 0 l 1,13,-1
 336 39 l 1,14,15
 313 17 313 17 284 4 c 128,-1,16
 255 -9 255 -9 217 -9 c 0,17,18
 170 -9 170 -9 139.5 3 c 128,-1,19
 109 15 109 15 91.5 39.5 c 128,-1,20
 74 64 74 64 67 100.5 c 128,-1,21
 60 137 60 137 60 186 c 2,22,-1
 60 500 l 1,23,-1
 193 500 l 1,0,-1
EndSplineSet
EndChar

StartChar: v
Encoding: 118 118 87
Width: 492
Flags: W
LayerCount: 2
Fore
SplineSet
343 -1 m 1,0,-1
 150 -1 l 1,1,-1
 20 499 l 1,2,-1
 159 499 l 1,3,-1
 248 95 l 1,4,-1
 338 499 l 1,5,-1
 472 499 l 1,6,-1
 343 -1 l 1,0,-1
EndSplineSet
EndChar

StartChar: w
Encoding: 119 119 88
Width: 642
Flags: W
LayerCount: 2
Fore
SplineSet
550 0 m 1,0,-1
 375 0 l 1,1,-1
 321 246 l 1,2,-1
 262 0 l 1,3,-1
 92 0 l 1,4,-1
 15 500 l 1,5,-1
 148 500 l 1,6,-1
 195 118 l 1,7,-1
 268 410 l 1,8,-1
 386 410 l 1,9,-1
 454 118 l 1,10,-1
 502 500 l 1,11,-1
 627 500 l 1,12,-1
 550 0 l 1,0,-1
EndSplineSet
EndChar

StartChar: x
Encoding: 120 120 89
Width: 505
Flags: W
LayerCount: 2
Fore
SplineSet
326 0 m 1,0,-1
 251 151 l 1,1,-1
 172 0 l 1,2,-1
 25 0 l 1,3,-1
 174 260 l 1,4,-1
 41 500 l 1,5,-1
 194 500 l 1,6,-1
 255 381 l 1,7,-1
 316 500 l 1,8,-1
 462 500 l 1,9,-1
 326 272 l 1,10,-1
 480 0 l 1,11,-1
 326 0 l 1,0,-1
EndSplineSet
EndChar

StartChar: y
Encoding: 121 121 90
Width: 493
Flags: W
LayerCount: 2
Fore
SplineSet
345 -42 m 2,0,1
 313 -177 313 -177 203 -177 c 0,2,3
 195 -177 195 -177 181.5 -176.5 c 128,-1,4
 168 -176 168 -176 154.5 -175.5 c 128,-1,5
 141 -175 141 -175 129.5 -174 c 128,-1,6
 118 -173 118 -173 113 -172 c 1,7,-1
 113 -59 l 1,8,9
 137 -62 137 -62 162 -62 c 0,10,11
 203 -62 203 -62 211 -18 c 2,12,-1
 214 0 l 1,13,-1
 180 0 l 1,14,-1
 20 500 l 1,15,-1
 162 500 l 1,16,-1
 259 111 l 1,17,-1
 344 500 l 1,18,-1
 473 500 l 1,19,-1
 345 -42 l 2,0,1
EndSplineSet
EndChar

StartChar: z
Encoding: 122 122 91
Width: 418
Flags: W
LayerCount: 2
Fore
SplineSet
182 107 m 1,0,-1
 378 107 l 1,1,-1
 378 0 l 1,2,-1
 30 0 l 1,3,-1
 30 111 l 1,4,-1
 237 393 l 1,5,-1
 50 393 l 1,6,-1
 50 500 l 1,7,-1
 388 500 l 1,8,-1
 388 380 l 1,9,-1
 182 107 l 1,0,-1
EndSplineSet
EndChar

StartChar: braceleft
Encoding: 123 123 92
Width: 345
Flags: W
LayerCount: 2
Fore
SplineSet
139 350 m 1,0,1
 156 347 156 347 173 338 c 128,-1,2
 190 329 190 329 203.5 313 c 128,-1,3
 217 297 217 297 225.5 273 c 128,-1,4
 234 249 234 249 234 216 c 2,5,-1
 234 20 l 2,6,7
 234 -17 234 -17 272 -17 c 0,8,9
 280 -17 280 -17 287.5 -16 c 128,-1,10
 295 -15 295 -15 300 -14 c 1,11,-1
 300 -122 l 1,12,13
 292 -124 292 -124 273.5 -125.5 c 128,-1,14
 255 -127 255 -127 245 -127 c 0,15,16
 215 -127 215 -127 190 -118 c 128,-1,17
 165 -109 165 -109 146 -90.5 c 128,-1,18
 127 -72 127 -72 116.5 -42 c 128,-1,19
 106 -12 106 -12 106 30 c 2,20,-1
 106 196 l 2,21,22
 106 219 106 219 99.5 235 c 128,-1,23
 93 251 93 251 82 261 c 128,-1,24
 71 271 71 271 57.5 275.5 c 128,-1,25
 44 280 44 280 30 280 c 1,26,-1
 30 420 l 1,27,28
 58 420 58 420 82 439 c 128,-1,29
 106 458 106 458 106 504 c 2,30,-1
 106 670 l 2,31,32
 106 712 106 712 116.5 742 c 128,-1,33
 127 772 127 772 146 790.5 c 128,-1,34
 165 809 165 809 190 818 c 128,-1,35
 215 827 215 827 245 827 c 0,36,37
 255 827 255 827 273.5 825.5 c 128,-1,38
 292 824 292 824 300 822 c 1,39,-1
 300 714 l 1,40,41
 295 715 295 715 287.5 716 c 128,-1,42
 280 717 280 717 272 717 c 0,43,44
 234 717 234 717 234 680 c 2,45,-1
 234 484 l 2,46,47
 234 451 234 451 225.5 427 c 128,-1,48
 217 403 217 403 203.5 387 c 128,-1,49
 190 371 190 371 173 362 c 128,-1,50
 156 353 156 353 139 350 c 1,0,1
EndSplineSet
EndChar

StartChar: bar
Encoding: 124 124 93
Width: 310
Flags: W
LayerCount: 2
Fore
SplineSet
90 -110 m 1,0,-1
 90 810 l 1,1,-1
 220 810 l 1,2,-1
 220 -110 l 1,3,-1
 90 -110 l 1,0,-1
EndSplineSet
EndChar

StartChar: braceright
Encoding: 125 125 94
Width: 345
Flags: W
LayerCount: 2
Fore
SplineSet
206 350 m 1,0,1
 189 353 189 353 172 362 c 128,-1,2
 155 371 155 371 141.5 387 c 128,-1,3
 128 403 128 403 119.5 427 c 128,-1,4
 111 451 111 451 111 484 c 2,5,-1
 111 680 l 2,6,7
 111 717 111 717 73 717 c 0,8,9
 65 717 65 717 57.5 716 c 128,-1,10
 50 715 50 715 45 714 c 1,11,-1
 45 822 l 1,12,13
 53 824 53 824 71.5 825.5 c 128,-1,14
 90 827 90 827 100 827 c 0,15,16
 130 827 130 827 155 818 c 128,-1,17
 180 809 180 809 199 790.5 c 128,-1,18
 218 772 218 772 228.5 742 c 128,-1,19
 239 712 239 712 239 670 c 2,20,-1
 239 504 l 2,21,22
 239 458 239 458 263 439 c 128,-1,23
 287 420 287 420 315 420 c 1,24,-1
 315 280 l 1,25,26
 301 280 301 280 287.5 275.5 c 128,-1,27
 274 271 274 271 263 261 c 128,-1,28
 252 251 252 251 245.5 235 c 128,-1,29
 239 219 239 219 239 196 c 2,30,-1
 239 30 l 2,31,32
 239 -12 239 -12 228.5 -42 c 128,-1,33
 218 -72 218 -72 199 -90.5 c 128,-1,34
 180 -109 180 -109 155 -118 c 128,-1,35
 130 -127 130 -127 100 -127 c 0,36,37
 90 -127 90 -127 71.5 -125.5 c 128,-1,38
 53 -124 53 -124 45 -122 c 1,39,-1
 45 -14 l 1,40,41
 50 -15 50 -15 57.5 -16 c 128,-1,42
 65 -17 65 -17 73 -17 c 0,43,44
 111 -17 111 -17 111 20 c 2,45,-1
 111 216 l 2,46,47
 111 249 111 249 119.5 273 c 128,-1,48
 128 297 128 297 141.5 313 c 128,-1,49
 155 329 155 329 172 338 c 128,-1,50
 189 347 189 347 206 350 c 1,0,1
EndSplineSet
EndChar

StartChar: asciitilde
Encoding: 126 126 95
Width: 510
Flags: W
LayerCount: 2
Fore
SplineSet
75 354 m 1,0,1
 110 375 110 375 133.5 382 c 128,-1,2
 157 389 157 389 179 389 c 0,3,4
 199 389 199 389 219.5 383 c 128,-1,5
 240 377 240 377 260.5 369.5 c 128,-1,6
 281 362 281 362 301 356 c 128,-1,7
 321 350 321 350 340 350 c 0,8,9
 366 350 366 350 390 360 c 128,-1,10
 414 370 414 370 435 384 c 1,11,-1
 435 266 l 1,12,13
 412 251 412 251 385.5 241 c 128,-1,14
 359 231 359 231 331 231 c 0,15,16
 310 231 310 231 290.5 237.5 c 128,-1,17
 271 244 271 244 251.5 251.5 c 128,-1,18
 232 259 232 259 212.5 265.5 c 128,-1,19
 193 272 193 272 172 272 c 0,20,21
 146 272 146 272 121 261 c 128,-1,22
 96 250 96 250 75 236 c 1,23,-1
 75 354 l 1,0,1
EndSplineSet
EndChar

StartChar: exclamdown
Encoding: 161 161 96
Width: 270
Flags: W
LayerCount: 2
Fore
SplineSet
210 500 m 1,0,-1
 210 370 l 1,1,-1
 60 370 l 1,2,-1
 60 500 l 1,3,-1
 210 500 l 1,0,-1
203 272 m 1,4,-1
 203 -200 l 1,5,-1
 68 -200 l 1,6,-1
 68 272 l 1,7,-1
 203 272 l 1,4,-1
EndSplineSet
EndChar

StartChar: cent
Encoding: 162 162 97
Width: 470
Flags: W
LayerCount: 2
Fore
SplineSet
217 -110 m 1,0,-1
 217 -6 l 1,1,2
 182 -1 182 -1 155.5 14 c 128,-1,3
 129 29 129 29 111 59.5 c 128,-1,4
 93 90 93 90 83.5 138.5 c 128,-1,5
 74 187 74 187 74 259 c 0,6,7
 74 371 74 371 110.5 429 c 128,-1,8
 147 487 147 487 217 502 c 1,9,-1
 217 600 l 1,10,-1
 342 600 l 1,11,-1
 342 503 l 1,12,13
 356 501 356 501 368.5 498.5 c 128,-1,14
 381 496 381 496 391 494 c 1,15,-1
 391 377 l 1,16,17
 377 380 377 380 365.5 382.5 c 128,-1,18
 354 385 354 385 342 387 c 128,-1,19
 330 389 330 389 316 390 c 128,-1,20
 302 391 302 391 283 391 c 0,21,22
 266 391 266 391 252.5 385 c 128,-1,23
 239 379 239 379 230 362.5 c 128,-1,24
 221 346 221 346 216 316.5 c 128,-1,25
 211 287 211 287 211 239 c 0,26,27
 211 164 211 164 228.5 135.5 c 128,-1,28
 246 107 246 107 281 107 c 0,29,30
 319 107 319 107 344 112 c 128,-1,31
 369 117 369 117 391 121 c 1,32,-1
 391 5 l 1,33,34
 380 2 380 2 368 -0.5 c 128,-1,35
 356 -3 356 -3 342 -5 c 1,36,-1
 342 -110 l 1,37,-1
 217 -110 l 1,0,-1
EndSplineSet
EndChar

StartChar: sterling
Encoding: 163 163 98
Width: 470
Flags: W
LayerCount: 2
Fore
SplineSet
253 423 m 1,0,-1
 356 423 l 1,1,-1
 356 310 l 1,2,-1
 253 310 l 1,3,-1
 253 113 l 1,4,-1
 426 113 l 1,5,-1
 426 0 l 1,6,-1
 51 0 l 1,7,-1
 51 113 l 1,8,-1
 116 113 l 1,9,-1
 116 310 l 1,10,-1
 51 310 l 1,11,-1
 51 423 l 1,12,-1
 116 423 l 1,13,-1
 116 449 l 2,14,15
 116 527 116 527 125.5 577.5 c 128,-1,16
 135 628 135 628 156.5 656.5 c 128,-1,17
 178 685 178 685 214.5 696 c 128,-1,18
 251 707 251 707 305 707 c 0,19,20
 314 707 314 707 327.5 706.5 c 128,-1,21
 341 706 341 706 357 704.5 c 128,-1,22
 373 703 373 703 388.5 701.5 c 128,-1,23
 404 700 404 700 416 698 c 1,24,-1
 416 583 l 1,25,26
 395 587 395 587 372 589.5 c 128,-1,27
 349 592 349 592 337 592 c 0,28,29
 308 592 308 592 291.5 587.5 c 128,-1,30
 275 583 275 583 266.5 568.5 c 128,-1,31
 258 554 258 554 255.5 527.5 c 128,-1,32
 253 501 253 501 253 456 c 2,33,-1
 253 423 l 1,0,-1
EndSplineSet
EndChar

StartChar: fraction
Encoding: 8260 8260 99
Width: 230
Flags: W
LayerCount: 2
Fore
SplineSet
19 -100 m 1,0,-1
 -100 -100 l 1,1,-1
 210 810 l 1,2,-1
 329 810 l 1,3,-1
 19 -100 l 1,0,-1
EndSplineSet
EndChar

StartChar: yen
Encoding: 165 165 100
Width: 470
Flags: W
LayerCount: 2
Fore
SplineSet
303 265 m 1,0,-1
 303 220 l 1,1,-1
 409 220 l 1,2,-1
 409 115 l 1,3,-1
 303 115 l 1,4,-1
 303 0 l 1,5,-1
 163 0 l 1,6,-1
 163 115 l 1,7,-1
 59 115 l 1,8,-1
 59 220 l 1,9,-1
 163 220 l 1,10,-1
 163 265 l 1,11,-1
 59 265 l 1,12,-1
 59 370 l 1,13,-1
 151 370 l 1,14,-1
 10 700 l 1,15,-1
 153 700 l 1,16,-1
 238 477 l 1,17,-1
 322 700 l 1,18,-1
 460 700 l 1,19,-1
 315 370 l 1,20,-1
 409 370 l 1,21,-1
 409 265 l 1,22,-1
 303 265 l 1,0,-1
EndSplineSet
EndChar

StartChar: florin
Encoding: 402 402 101
Width: 306
Flags: W
LayerCount: 2
Fore
SplineSet
223 387 m 1,0,-1
 223 -13 l 2,1,2
 223 -61 223 -61 214 -92.5 c 128,-1,3
 205 -124 205 -124 186 -142.5 c 128,-1,4
 167 -161 167 -161 137 -169 c 128,-1,5
 107 -177 107 -177 65 -177 c 0,6,7
 41 -177 41 -177 20.5 -175.5 c 128,-1,8
 0 -174 0 -174 -20 -172 c 1,9,-1
 -20 -60 l 1,10,11
 -7 -62 -7 -62 12 -62.5 c 128,-1,12
 31 -63 31 -63 43 -63 c 0,13,14
 70 -63 70 -63 80 -53.5 c 128,-1,15
 90 -44 90 -44 90 -18 c 2,16,-1
 90 387 l 1,17,-1
 25 387 l 1,18,-1
 25 500 l 1,19,-1
 90 500 l 1,20,-1
 90 540 l 2,21,22
 90 591 90 591 99.5 624 c 128,-1,23
 109 657 109 657 128 676 c 128,-1,24
 147 695 147 695 175.5 702 c 128,-1,25
 204 709 204 709 241 709 c 0,26,27
 273 709 273 709 304.5 704.5 c 128,-1,28
 336 700 336 700 351 697 c 1,29,-1
 351 584 l 1,30,31
 335 588 335 588 314 591.5 c 128,-1,32
 293 595 293 595 266 595 c 0,33,34
 241 595 241 595 232 582.5 c 128,-1,35
 223 570 223 570 223 549 c 2,36,-1
 223 500 l 1,37,-1
 332 500 l 1,38,-1
 332 387 l 1,39,-1
 223 387 l 1,0,-1
EndSplineSet
EndChar

StartChar: section
Encoding: 167 167 102
Width: 470
Flags: W
LayerCount: 2
Fore
SplineSet
58 345 m 0,0,1
 58 380 58 380 75.5 407 c 128,-1,2
 93 434 93 434 117 452 c 1,3,4
 72 493 72 493 72 553 c 0,5,6
 72 637 72 637 122.5 673 c 128,-1,7
 173 709 173 709 279 709 c 0,8,9
 294 709 294 709 310.5 707 c 128,-1,10
 327 705 327 705 342.5 702.5 c 128,-1,11
 358 700 358 700 371 697 c 128,-1,12
 384 694 384 694 391 692 c 1,13,-1
 391 578 l 1,14,15
 368 585 368 585 342 591 c 128,-1,16
 316 597 316 597 275 597 c 0,17,18
 238 597 238 597 222.5 588 c 128,-1,19
 207 579 207 579 207 556 c 0,20,21
 207 542 207 542 221 532 c 128,-1,22
 235 522 235 522 268 514 c 0,23,24
 307 505 307 505 333.5 493 c 128,-1,25
 360 481 360 481 376.5 463 c 128,-1,26
 393 445 393 445 400.5 419 c 128,-1,27
 408 393 408 393 408 355 c 0,28,29
 408 319 408 319 390.5 294 c 128,-1,30
 373 269 373 269 348 252 c 1,31,32
 371 231 371 231 382.5 203.5 c 128,-1,33
 394 176 394 176 394 147 c 0,34,35
 394 63 394 63 344 27 c 128,-1,36
 294 -9 294 -9 187 -9 c 0,37,38
 172 -9 172 -9 155.5 -7 c 128,-1,39
 139 -5 139 -5 123.5 -2.5 c 128,-1,40
 108 0 108 0 95.5 3 c 128,-1,41
 83 6 83 6 75 8 c 1,42,-1
 75 122 l 1,43,44
 98 115 98 115 124 109 c 128,-1,45
 150 103 150 103 191 103 c 0,46,47
 228 103 228 103 243.5 112 c 128,-1,48
 259 121 259 121 259 144 c 0,49,50
 259 158 259 158 245 168 c 128,-1,51
 231 178 231 178 198 186 c 0,52,53
 159 195 159 195 132.5 207.5 c 128,-1,54
 106 220 106 220 89.5 238.5 c 128,-1,55
 73 257 73 257 65.5 283 c 128,-1,56
 58 309 58 309 58 345 c 0,0,1
275 345 m 0,57,58
 275 374 275 374 264 386.5 c 128,-1,59
 253 399 253 399 226 405 c 1,60,61
 210 398 210 398 200.5 385.5 c 128,-1,62
 191 373 191 373 191 355 c 0,63,64
 191 326 191 326 202 313.5 c 128,-1,65
 213 301 213 301 240 294 c 1,66,67
 255 302 255 302 265 314 c 128,-1,68
 275 326 275 326 275 345 c 0,57,58
EndSplineSet
EndChar

StartChar: currency
Encoding: 164 164 103
Width: 570
Flags: W
LayerCount: 2
Fore
SplineSet
85 185 m 1,0,1
 74 210 74 210 69.5 239 c 128,-1,2
 65 268 65 268 65 300 c 0,3,4
 65 365 65 365 86 414 c 1,5,-1
 13 487 l 1,6,-1
 98 572 l 1,7,-1
 164 506 l 1,8,9
 215 537 215 537 285 537 c 0,10,11
 353 537 353 537 406 506 c 1,12,-1
 472 572 l 1,13,-1
 557 487 l 1,14,-1
 489 419 l 1,15,16
 515 367 515 367 515 300 c 0,17,18
 515 234 515 234 489 180 c 1,19,-1
 557 113 l 1,20,-1
 472 28 l 1,21,-1
 407 92 l 1,22,23
 357 63 357 63 285 63 c 0,24,25
 212 63 212 63 162 92 c 1,26,-1
 98 28 l 1,27,-1
 13 113 l 1,28,-1
 85 185 l 1,0,1
383 300 m 0,29,30
 383 356 383 356 359 393 c 128,-1,31
 335 430 335 430 285 430 c 256,32,33
 235 430 235 430 211 393 c 128,-1,34
 187 356 187 356 187 300 c 256,35,36
 187 244 187 244 211 207 c 128,-1,37
 235 170 235 170 285 170 c 0,38,39
 310 170 310 170 328.5 180 c 128,-1,40
 347 190 347 190 359 207.5 c 128,-1,41
 371 225 371 225 377 248.5 c 128,-1,42
 383 272 383 272 383 300 c 0,29,30
EndSplineSet
EndChar

StartChar: quotesingle
Encoding: 39 39 104
Width: 225
Flags: W
LayerCount: 2
Fore
SplineSet
155 433 m 1,0,-1
 70 433 l 1,1,-1
 40 590 l 1,2,-1
 40 700 l 1,3,-1
 185 700 l 1,4,-1
 185 590 l 1,5,-1
 155 433 l 1,0,-1
EndSplineSet
EndChar

StartChar: quotedblleft
Encoding: 8220 8220 105
Width: 405
Flags: W
LayerCount: 2
Fore
SplineSet
110 699 m 1,0,-1
 205 699 l 1,1,-1
 175 542 l 1,2,-1
 175 432 l 1,3,-1
 40 432 l 1,4,-1
 40 542 l 1,5,-1
 110 699 l 1,0,-1
280 699 m 1,6,-1
 375 699 l 1,7,-1
 345 542 l 1,8,-1
 345 432 l 1,9,-1
 210 432 l 1,10,-1
 210 542 l 1,11,-1
 280 699 l 1,6,-1
EndSplineSet
EndChar

StartChar: guillemotleft
Encoding: 171 171 106
Width: 465
Flags: W
LayerCount: 2
Fore
SplineSet
137 92 m 1,0,-1
 50 299 l 1,1,-1
 137 506 l 1,2,-1
 245 506 l 1,3,-1
 184 299 l 1,4,-1
 245 92 l 1,5,-1
 137 92 l 1,0,-1
307 92 m 1,6,-1
 220 299 l 1,7,-1
 307 506 l 1,8,-1
 415 506 l 1,9,-1
 354 299 l 1,10,-1
 415 92 l 1,11,-1
 307 92 l 1,6,-1
EndSplineSet
EndChar

StartChar: guilsinglleft
Encoding: 8249 8249 107
Width: 295
Flags: W
LayerCount: 2
Fore
SplineSet
137 92 m 1,0,-1
 50 299 l 1,1,-1
 137 506 l 1,2,-1
 245 506 l 1,3,-1
 184 299 l 1,4,-1
 245 92 l 1,5,-1
 137 92 l 1,0,-1
EndSplineSet
EndChar

StartChar: guilsinglright
Encoding: 8250 8250 108
Width: 295
Flags: W
LayerCount: 2
Fore
SplineSet
50 92 m 1,0,-1
 111 299 l 1,1,-1
 50 506 l 1,2,-1
 158 506 l 1,3,-1
 245 299 l 1,4,-1
 158 92 l 1,5,-1
 50 92 l 1,0,-1
EndSplineSet
EndChar

StartChar: fi
Encoding: 64257 64257 109
Width: 543
Flags: W
LayerCount: 2
Fore
SplineSet
345 0 m 1,0,-1
 345 387 l 1,1,-1
 223 387 l 1,2,-1
 223 0 l 1,3,-1
 90 0 l 1,4,-1
 90 387 l 1,5,-1
 25 387 l 1,6,-1
 25 500 l 1,7,-1
 90 500 l 1,8,-1
 90 540 l 2,9,10
 90 591 90 591 100.5 624 c 128,-1,11
 111 657 111 657 132.5 676 c 128,-1,12
 154 695 154 695 186 702 c 128,-1,13
 218 709 218 709 261 709 c 0,14,15
 285 709 285 709 310.5 707.5 c 128,-1,16
 336 706 336 706 359.5 703 c 128,-1,17
 383 700 383 700 404 697 c 128,-1,18
 425 694 425 694 441 691 c 1,19,-1
 441 578 l 1,20,21
 414 583 414 583 373 589 c 128,-1,22
 332 595 332 595 286 595 c 0,23,24
 248 595 248 595 235.5 586.5 c 128,-1,25
 223 578 223 578 223 549 c 2,26,-1
 223 500 l 1,27,-1
 478 500 l 1,28,-1
 478 0 l 1,29,-1
 345 0 l 1,0,-1
EndSplineSet
Ligature2: "'liga' Standard Ligatures in Latin lookup 3 subtable" f i
EndChar

StartChar: fl
Encoding: 64258 64258 110
Width: 570
Flags: W
LayerCount: 2
Fore
SplineSet
545 3 m 1,0,1
 534 1 534 1 508.5 -2 c 128,-1,2
 483 -5 483 -5 454 -5 c 0,3,4
 392 -5 392 -5 368.5 32.5 c 128,-1,5
 345 70 345 70 345 148 c 2,6,-1
 345 387 l 1,7,-1
 223 387 l 1,8,-1
 223 0 l 1,9,-1
 90 0 l 1,10,-1
 90 387 l 1,11,-1
 25 387 l 1,12,-1
 25 500 l 1,13,-1
 90 500 l 1,14,-1
 90 540 l 2,15,16
 90 591 90 591 100.5 624 c 128,-1,17
 111 657 111 657 132.5 676 c 128,-1,18
 154 695 154 695 186 702 c 128,-1,19
 218 709 218 709 261 709 c 0,20,21
 284 709 284 709 307.5 706 c 128,-1,22
 331 703 331 703 345 700 c 1,23,-1
 478 700 l 1,24,-1
 478 153 l 2,25,26
 478 129 478 129 484 119.5 c 128,-1,27
 490 110 490 110 509 110 c 0,28,29
 520 110 520 110 530.5 111.5 c 128,-1,30
 541 113 541 113 545 114 c 1,31,-1
 545 3 l 1,0,1
223 500 m 1,32,-1
 345 500 l 1,33,-1
 345 590 l 1,34,35
 331 592 331 592 316 593.5 c 128,-1,36
 301 595 301 595 286 595 c 0,37,38
 248 595 248 595 235.5 586.5 c 128,-1,39
 223 578 223 578 223 549 c 2,40,-1
 223 500 l 1,32,-1
EndSplineSet
Ligature2: "'liga' Standard Ligatures in Latin lookup 3 subtable" f l
EndChar

StartChar: endash
Encoding: 8211 8211 111
Width: 550
Flags: W
LayerCount: 2
Fore
SplineSet
75 245 m 1,0,-1
 75 360 l 1,1,-1
 475 360 l 1,2,-1
 475 245 l 1,3,-1
 75 245 l 1,0,-1
EndSplineSet
EndChar

StartChar: dagger
Encoding: 8224 8224 112
Width: 470
Flags: W
LayerCount: 2
Fore
SplineSet
171 0 m 1,0,-1
 171 385 l 1,1,-1
 50 385 l 1,2,-1
 50 500 l 1,3,-1
 171 500 l 1,4,-1
 171 700 l 1,5,-1
 301 700 l 1,6,-1
 301 500 l 1,7,-1
 421 500 l 1,8,-1
 421 385 l 1,9,-1
 301 385 l 1,10,-1
 301 0 l 1,11,-1
 171 0 l 1,0,-1
EndSplineSet
EndChar

StartChar: daggerdbl
Encoding: 8225 8225 113
Width: 470
Flags: W
LayerCount: 2
Fore
SplineSet
171 0 m 1,0,-1
 171 200 l 1,1,-1
 50 200 l 1,2,-1
 50 315 l 1,3,-1
 171 315 l 1,4,-1
 171 395 l 1,5,-1
 50 395 l 1,6,-1
 50 510 l 1,7,-1
 171 510 l 1,8,-1
 171 700 l 1,9,-1
 301 700 l 1,10,-1
 301 510 l 1,11,-1
 421 510 l 1,12,-1
 421 395 l 1,13,-1
 301 395 l 1,14,-1
 301 315 l 1,15,-1
 421 315 l 1,16,-1
 421 200 l 1,17,-1
 301 200 l 1,18,-1
 301 0 l 1,19,-1
 171 0 l 1,0,-1
EndSplineSet
EndChar

StartChar: periodcentered
Encoding: 183 183 114
Width: 250
Flags: W
LayerCount: 2
Fore
SplineSet
50 244 m 1,0,-1
 50 374 l 1,1,-1
 200 374 l 1,2,-1
 200 244 l 1,3,-1
 50 244 l 1,0,-1
EndSplineSet
EndChar

StartChar: paragraph
Encoding: 182 182 115
Width: 555
Flags: W
LayerCount: 2
Fore
SplineSet
377 0 m 1,0,-1
 377 700 l 1,1,-1
 500 700 l 1,2,-1
 500 0 l 1,3,-1
 377 0 l 1,0,-1
333 0 m 1,4,-1
 207 0 l 1,5,-1
 207 354 l 1,6,-1
 188 354 l 2,7,8
 161 354 161 354 134.5 361 c 128,-1,9
 108 368 108 368 87 387.5 c 128,-1,10
 66 407 66 407 53 442 c 128,-1,11
 40 477 40 477 40 533 c 0,12,13
 40 587 40 587 54.5 621.5 c 128,-1,14
 69 656 69 656 92.5 675.5 c 128,-1,15
 116 695 116 695 146.5 702 c 128,-1,16
 177 709 177 709 209 709 c 0,17,18
 234 709 234 709 256 708 c 128,-1,19
 278 707 278 707 295 705 c 0,20,21
 315 703 315 703 333 700 c 1,22,-1
 333 593 l 1,23,24
 313 597 313 597 288.5 599.5 c 128,-1,25
 264 602 264 602 249 602 c 0,26,27
 200 602 200 602 182 587 c 128,-1,28
 164 572 164 572 164 531 c 0,29,30
 164 492 164 492 180 477 c 128,-1,31
 196 462 196 462 228 462 c 2,32,-1
 333 462 l 1,33,-1
 333 0 l 1,4,-1
EndSplineSet
EndChar

StartChar: bullet
Encoding: 8226 8226 116
Width: 305
Flags: W
LayerCount: 2
Fore
SplineSet
50 215 m 1,0,-1
 50 410 l 1,1,-1
 255 410 l 1,2,-1
 255 215 l 1,3,-1
 50 215 l 1,0,-1
EndSplineSet
EndChar

StartChar: quotesinglbase
Encoding: 8218 8218 117
Width: 235
Flags: W
LayerCount: 2
Fore
SplineSet
125 -157 m 1,0,-1
 30 -157 l 1,1,-1
 60 0 l 1,2,-1
 60 110 l 1,3,-1
 195 110 l 1,4,-1
 195 0 l 1,5,-1
 125 -157 l 1,0,-1
EndSplineSet
EndChar

StartChar: quotedblbase
Encoding: 8222 8222 118
Width: 395
Flags: W
LayerCount: 2
Fore
SplineSet
295 -157 m 1,0,-1
 200 -157 l 1,1,-1
 230 0 l 1,2,-1
 230 110 l 1,3,-1
 365 110 l 1,4,-1
 365 0 l 1,5,-1
 295 -157 l 1,0,-1
125 -157 m 1,6,-1
 30 -157 l 1,7,-1
 60 0 l 1,8,-1
 60 110 l 1,9,-1
 195 110 l 1,10,-1
 195 0 l 1,11,-1
 125 -157 l 1,6,-1
EndSplineSet
EndChar

StartChar: quotedblright
Encoding: 8221 8221 119
Width: 395
Flags: W
LayerCount: 2
Fore
SplineSet
295 433 m 1,0,-1
 200 433 l 1,1,-1
 230 590 l 1,2,-1
 230 700 l 1,3,-1
 365 700 l 1,4,-1
 365 590 l 1,5,-1
 295 433 l 1,0,-1
125 433 m 1,6,-1
 30 433 l 1,7,-1
 60 590 l 1,8,-1
 60 700 l 1,9,-1
 195 700 l 1,10,-1
 195 590 l 1,11,-1
 125 433 l 1,6,-1
EndSplineSet
EndChar

StartChar: guillemotright
Encoding: 187 187 120
Width: 465
Flags: W
LayerCount: 2
Fore
SplineSet
220 92 m 1,0,-1
 281 299 l 1,1,-1
 220 506 l 1,2,-1
 328 506 l 1,3,-1
 415 299 l 1,4,-1
 328 92 l 1,5,-1
 220 92 l 1,0,-1
50 92 m 1,6,-1
 111 299 l 1,7,-1
 50 506 l 1,8,-1
 158 506 l 1,9,-1
 245 299 l 1,10,-1
 158 92 l 1,11,-1
 50 92 l 1,6,-1
EndSplineSet
EndChar

StartChar: ellipsis
Encoding: 8230 8230 121
Width: 750
Flags: W
LayerCount: 2
Fore
SplineSet
50 0 m 1,0,-1
 50 130 l 1,1,-1
 200 130 l 1,2,-1
 200 0 l 1,3,-1
 50 0 l 1,0,-1
300 0 m 1,4,-1
 300 130 l 1,5,-1
 450 130 l 1,6,-1
 450 0 l 1,7,-1
 300 0 l 1,4,-1
550 0 m 1,8,-1
 550 130 l 1,9,-1
 700 130 l 1,10,-1
 700 0 l 1,11,-1
 550 0 l 1,8,-1
EndSplineSet
EndChar

StartChar: perthousand
Encoding: 8240 8240 122
Width: 1269
Flags: W
LayerCount: 2
Fore
SplineSet
270 496 m 0,0,1
 270 534 270 534 268 558.5 c 128,-1,2
 266 583 266 583 260.5 596.5 c 128,-1,3
 255 610 255 610 246 615 c 128,-1,4
 237 620 237 620 222 620 c 256,5,6
 207 620 207 620 198 615.5 c 128,-1,7
 189 611 189 611 183.5 597.5 c 128,-1,8
 178 584 178 584 176 559.5 c 128,-1,9
 174 535 174 535 174 496 c 0,10,11
 174 459 174 459 176 435 c 128,-1,12
 178 411 178 411 183 397 c 128,-1,13
 188 383 188 383 197.5 377.5 c 128,-1,14
 207 372 207 372 222 372 c 256,15,16
 237 372 237 372 246.5 377.5 c 128,-1,17
 256 383 256 383 261 397 c 128,-1,18
 266 411 266 411 268 435 c 128,-1,19
 270 459 270 459 270 496 c 0,0,1
379 500 m 256,20,21
 379 453 379 453 372.5 413.5 c 128,-1,22
 366 374 366 374 349 345 c 128,-1,23
 332 316 332 316 301 299.5 c 128,-1,24
 270 283 270 283 222 283 c 256,25,26
 174 283 174 283 143 299.5 c 128,-1,27
 112 316 112 316 95 345 c 128,-1,28
 78 374 78 374 71.5 413.5 c 128,-1,29
 65 453 65 453 65 500 c 256,30,31
 65 547 65 547 71.5 585.5 c 128,-1,32
 78 624 78 624 95 651.5 c 128,-1,33
 112 679 112 679 143 694 c 128,-1,34
 174 709 174 709 222 709 c 256,35,36
 270 709 270 709 301 694 c 128,-1,37
 332 679 332 679 349 651.5 c 128,-1,38
 366 624 366 624 372.5 585.5 c 128,-1,39
 379 547 379 547 379 500 c 256,20,21
395 0 m 1,40,-1
 277 0 l 1,41,-1
 522 700 l 1,42,-1
 640 700 l 1,43,-1
 395 0 l 1,40,-1
742 204 m 0,44,45
 742 242 742 242 740 266.5 c 128,-1,46
 738 291 738 291 732.5 304.5 c 128,-1,47
 727 318 727 318 718 323 c 128,-1,48
 709 328 709 328 694 328 c 256,49,50
 679 328 679 328 670 323.5 c 128,-1,51
 661 319 661 319 655.5 305.5 c 128,-1,52
 650 292 650 292 648 267.5 c 128,-1,53
 646 243 646 243 646 204 c 0,54,55
 646 167 646 167 648 143 c 128,-1,56
 650 119 650 119 655 105 c 128,-1,57
 660 91 660 91 669.5 85.5 c 128,-1,58
 679 80 679 80 694 80 c 256,59,60
 709 80 709 80 718.5 85.5 c 128,-1,61
 728 91 728 91 733 105 c 128,-1,62
 738 119 738 119 740 143 c 128,-1,63
 742 167 742 167 742 204 c 0,44,45
851 208 m 256,64,65
 851 161 851 161 844.5 121.5 c 128,-1,66
 838 82 838 82 821 53 c 128,-1,67
 804 24 804 24 773 7.5 c 128,-1,68
 742 -9 742 -9 694 -9 c 256,69,70
 646 -9 646 -9 615 7.5 c 128,-1,71
 584 24 584 24 567 53 c 128,-1,72
 550 82 550 82 543.5 121.5 c 128,-1,73
 537 161 537 161 537 208 c 256,74,75
 537 255 537 255 543.5 293.5 c 128,-1,76
 550 332 550 332 567 359.5 c 128,-1,77
 584 387 584 387 615 402 c 128,-1,78
 646 417 646 417 694 417 c 256,79,80
 742 417 742 417 773 402 c 128,-1,81
 804 387 804 387 821 359.5 c 128,-1,82
 838 332 838 332 844.5 293.5 c 128,-1,83
 851 255 851 255 851 208 c 256,64,65
1095 204 m 0,84,85
 1095 242 1095 242 1093 266.5 c 128,-1,86
 1091 291 1091 291 1085.5 304.5 c 128,-1,87
 1080 318 1080 318 1071 323 c 128,-1,88
 1062 328 1062 328 1047 328 c 256,89,90
 1032 328 1032 328 1023 323.5 c 128,-1,91
 1014 319 1014 319 1008.5 305.5 c 128,-1,92
 1003 292 1003 292 1001 267.5 c 128,-1,93
 999 243 999 243 999 204 c 0,94,95
 999 167 999 167 1001 143 c 128,-1,96
 1003 119 1003 119 1008 105 c 128,-1,97
 1013 91 1013 91 1022.5 85.5 c 128,-1,98
 1032 80 1032 80 1047 80 c 256,99,100
 1062 80 1062 80 1071.5 85.5 c 128,-1,101
 1081 91 1081 91 1086 105 c 128,-1,102
 1091 119 1091 119 1093 143 c 128,-1,103
 1095 167 1095 167 1095 204 c 0,84,85
1204 208 m 256,104,105
 1204 161 1204 161 1197.5 121.5 c 128,-1,106
 1191 82 1191 82 1174 53 c 128,-1,107
 1157 24 1157 24 1126 7.5 c 128,-1,108
 1095 -9 1095 -9 1047 -9 c 256,109,110
 999 -9 999 -9 968 7.5 c 128,-1,111
 937 24 937 24 920 53 c 128,-1,112
 903 82 903 82 896.5 121.5 c 128,-1,113
 890 161 890 161 890 208 c 256,114,115
 890 255 890 255 896.5 293.5 c 128,-1,116
 903 332 903 332 920 359.5 c 128,-1,117
 937 387 937 387 968 402 c 128,-1,118
 999 417 999 417 1047 417 c 256,119,120
 1095 417 1095 417 1126 402 c 128,-1,121
 1157 387 1157 387 1174 359.5 c 128,-1,122
 1191 332 1191 332 1197.5 293.5 c 128,-1,123
 1204 255 1204 255 1204 208 c 256,104,105
EndSplineSet
Ligature2: "'frac' Diagonal Fractions in Latin lookup 1 subtable" zero fraction zero zero
Ligature2: "'frac' Diagonal Fractions in Latin lookup 1 subtable" zero slash zero zero
EndChar

StartChar: questiondown
Encoding: 191 191 123
Width: 380
Flags: W
LayerCount: 2
Fore
SplineSet
298 500 m 1,0,-1
 298 370 l 1,1,-1
 148 370 l 1,2,-1
 148 500 l 1,3,-1
 298 500 l 1,0,-1
30 -28 m 0,4,5
 30 -3 30 -3 33 15.5 c 128,-1,6
 36 34 36 34 42 50 c 128,-1,7
 48 66 48 66 58 81 c 128,-1,8
 68 96 68 96 83 114 c 2,9,-1
 156 202 l 1,10,-1
 156 272 l 1,11,-1
 291 272 l 1,12,-1
 291 163 l 1,13,-1
 211 65 l 2,14,15
 199 50 199 50 190 39 c 128,-1,16
 181 28 181 28 175.5 18 c 128,-1,17
 170 8 170 8 167.5 -2.5 c 128,-1,18
 165 -13 165 -13 165 -26 c 0,19,20
 165 -45 165 -45 167.5 -58 c 128,-1,21
 170 -71 170 -71 178.5 -79.5 c 128,-1,22
 187 -88 187 -88 202.5 -91.5 c 128,-1,23
 218 -95 218 -95 245 -95 c 0,24,25
 265 -95 265 -95 295 -90.5 c 128,-1,26
 325 -86 325 -86 350 -80 c 1,27,-1
 350 -193 l 1,28,29
 340 -195 340 -195 324 -198 c 128,-1,30
 308 -201 308 -201 290 -203.5 c 128,-1,31
 272 -206 272 -206 254.5 -207.5 c 128,-1,32
 237 -209 237 -209 223 -209 c 0,33,34
 175 -209 175 -209 138.5 -202 c 128,-1,35
 102 -195 102 -195 78 -175 c 128,-1,36
 54 -155 54 -155 42 -120 c 128,-1,37
 30 -85 30 -85 30 -28 c 0,4,5
EndSplineSet
EndChar

StartChar: grave
Encoding: 96 96 124
Width: 313
Flags: W
LayerCount: 2
Fore
SplineSet
177 580 m 1,0,-1
 25 715 l 1,1,-1
 184 715 l 1,2,-1
 288 580 l 1,3,-1
 177 580 l 1,0,-1
EndSplineSet
EndChar

StartChar: acute
Encoding: 180 180 125
Width: 313
Flags: W
LayerCount: 2
Fore
SplineSet
25 580 m 1,0,-1
 129 715 l 1,1,-1
 288 715 l 1,2,-1
 136 580 l 1,3,-1
 25 580 l 1,0,-1
EndSplineSet
EndChar

StartChar: circumflex
Encoding: 710 710 126
Width: 433
Flags: W
LayerCount: 2
Fore
SplineSet
266 580 m 1,0,-1
 216 654 l 1,1,-1
 166 580 l 1,2,-1
 20 580 l 1,3,-1
 142 715 l 1,4,-1
 290 715 l 1,5,-1
 413 580 l 1,6,-1
 266 580 l 1,0,-1
EndSplineSet
EndChar

StartChar: tilde
Encoding: 732 732 127
Width: 380
Flags: W
LayerCount: 2
Fore
SplineSet
25 687 m 1,0,1
 48 706 48 706 74.5 713 c 128,-1,2
 101 720 101 720 121 720 c 0,3,4
 139 720 139 720 158 714 c 128,-1,5
 177 708 177 708 196 700.5 c 128,-1,6
 215 693 215 693 232.5 687 c 128,-1,7
 250 681 250 681 265 681 c 0,8,9
 291 681 291 681 313 690.5 c 128,-1,10
 335 700 335 700 355 717 c 1,11,-1
 355 613 l 1,12,13
 335 594 335 594 310 587 c 128,-1,14
 285 580 285 580 259 580 c 0,15,16
 240 580 240 580 221.5 586 c 128,-1,17
 203 592 203 592 184.5 599.5 c 128,-1,18
 166 607 166 607 148.5 613 c 128,-1,19
 131 619 131 619 115 619 c 0,20,21
 89 619 89 619 65 608 c 128,-1,22
 41 597 41 597 25 583 c 1,23,-1
 25 687 l 1,0,1
EndSplineSet
EndChar

StartChar: macron
Encoding: 175 175 128
Width: 345
Flags: W
LayerCount: 2
Fore
SplineSet
25 591 m 1,0,-1
 25 700 l 1,1,-1
 320 700 l 1,2,-1
 320 591 l 1,3,-1
 25 591 l 1,0,-1
EndSplineSet
EndChar

StartChar: breve
Encoding: 728 728 129
Width: 374
Flags: W
LayerCount: 2
Fore
SplineSet
142 716 m 1,0,1
 144 692 144 692 155.5 678.5 c 128,-1,2
 167 665 167 665 187 665 c 256,3,4
 207 665 207 665 219 679 c 128,-1,5
 231 693 231 693 232 716 c 1,6,-1
 349 716 l 1,7,8
 348 695 348 695 339 670 c 128,-1,9
 330 645 330 645 311 623 c 128,-1,10
 292 601 292 601 261 586 c 128,-1,11
 230 571 230 571 185 571 c 256,12,13
 140 571 140 571 109.5 586 c 128,-1,14
 79 601 79 601 60.5 623 c 128,-1,15
 42 645 42 645 34 670 c 128,-1,16
 26 695 26 695 25 716 c 1,17,-1
 142 716 l 1,0,1
EndSplineSet
EndChar

StartChar: dotaccent
Encoding: 729 729 130
Width: 193
Flags: W
LayerCount: 2
Fore
SplineSet
25 585 m 1,0,-1
 25 700 l 1,1,-1
 168 700 l 1,2,-1
 168 585 l 1,3,-1
 25 585 l 1,0,-1
EndSplineSet
EndChar

StartChar: dieresis
Encoding: 168 168 131
Width: 380
Flags: W
LayerCount: 2
Fore
SplineSet
225 560 m 1,0,-1
 225 675 l 1,1,-1
 355 675 l 1,2,-1
 355 560 l 1,3,-1
 225 560 l 1,0,-1
25 560 m 1,4,-1
 25 675 l 1,5,-1
 155 675 l 1,6,-1
 155 560 l 1,7,-1
 25 560 l 1,4,-1
EndSplineSet
EndChar

StartChar: ring
Encoding: 730 730 132
Width: 282
Flags: W
LayerCount: 2
Fore
SplineSet
169 646 m 256,0,1
 169 671 169 671 164 683 c 128,-1,2
 159 695 159 695 141 695 c 256,3,4
 123 695 123 695 118 683 c 128,-1,5
 113 671 113 671 113 646 c 256,6,7
 113 621 113 621 118 609 c 128,-1,8
 123 597 123 597 141 597 c 0,9,10
 158 597 158 597 163.5 609 c 128,-1,11
 169 621 169 621 169 646 c 256,0,1
257 645 m 256,12,13
 257 587 257 587 229.5 555 c 128,-1,14
 202 523 202 523 141 523 c 256,15,16
 80 523 80 523 52.5 555 c 128,-1,17
 25 587 25 587 25 645 c 256,18,19
 25 703 25 703 53 735 c 128,-1,20
 81 767 81 767 141 767 c 256,21,22
 201 767 201 767 229 735 c 128,-1,23
 257 703 257 703 257 645 c 256,12,13
EndSplineSet
EndChar

StartChar: cedilla
Encoding: 184 184 133
Width: 336
Flags: W
LayerCount: 2
Fore
SplineSet
65 -127 m 1,0,1
 79 -129 79 -129 93.5 -130.5 c 128,-1,2
 108 -132 108 -132 119 -132 c 0,3,4
 142 -132 142 -132 150.5 -127.5 c 128,-1,5
 159 -123 159 -123 159 -109 c 0,6,7
 159 -96 159 -96 142 -91 c 128,-1,8
 125 -86 125 -86 76 -86 c 1,9,-1
 98 50 l 1,10,-1
 194 50 l 1,11,-1
 183 -19 l 1,12,13
 228 -24 228 -24 248.5 -50 c 128,-1,14
 269 -76 269 -76 269 -113 c 0,15,16
 269 -137 269 -137 262.5 -157 c 128,-1,17
 256 -177 256 -177 241 -191.5 c 128,-1,18
 226 -206 226 -206 201.5 -214 c 128,-1,19
 177 -222 177 -222 141 -222 c 0,20,21
 124 -222 124 -222 101.5 -219.5 c 128,-1,22
 79 -217 79 -217 65 -214 c 1,23,-1
 65 -127 l 1,0,1
EndSplineSet
EndChar

StartChar: hungarumlaut
Encoding: 733 733 134
Width: 518
Flags: W
LayerCount: 2
Fore
SplineSet
131 598 m 1,0,-1
 25 598 l 1,1,-1
 128 745 l 1,2,-1
 298 745 l 1,3,-1
 131 598 l 1,0,-1
326 598 m 1,4,-1
 220 598 l 1,5,-1
 323 745 l 1,6,-1
 493 745 l 1,7,-1
 326 598 l 1,4,-1
EndSplineSet
EndChar

StartChar: ogonek
Encoding: 731 731 135
Width: 338
Flags: W
LayerCount: 2
Fore
SplineSet
274 -188 m 1,0,1
 267 -190 267 -190 256 -191.5 c 128,-1,2
 245 -193 245 -193 233 -194.5 c 128,-1,3
 221 -196 221 -196 209.5 -197 c 128,-1,4
 198 -198 198 -198 189 -198 c 0,5,6
 118 -198 118 -198 91.5 -165 c 128,-1,7
 65 -132 65 -132 65 -70 c 0,8,9
 65 -23 65 -23 82.5 8 c 128,-1,10
 100 39 100 39 119 60 c 1,11,-1
 219 60 l 1,12,13
 199 30 199 30 186.5 -2.5 c 128,-1,14
 174 -35 174 -35 174 -54 c 0,15,16
 174 -74 174 -74 183.5 -87 c 128,-1,17
 193 -100 193 -100 213 -100 c 0,18,19
 224 -100 224 -100 242 -97.5 c 128,-1,20
 260 -95 260 -95 274 -93 c 1,21,-1
 274 -188 l 1,0,1
EndSplineSet
EndChar

StartChar: caron
Encoding: 711 711 136
Width: 433
Flags: W
LayerCount: 2
Fore
SplineSet
167 716 m 1,0,-1
 217 642 l 1,1,-1
 267 716 l 1,2,-1
 413 716 l 1,3,-1
 291 581 l 1,4,-1
 143 581 l 1,5,-1
 20 716 l 1,6,-1
 167 716 l 1,0,-1
EndSplineSet
EndChar

StartChar: emdash
Encoding: 8212 8212 137
Width: 605
Flags: W
LayerCount: 2
Fore
SplineSet
55 245 m 1,0,-1
 55 360 l 1,1,-1
 550 360 l 1,2,-1
 550 245 l 1,3,-1
 55 245 l 1,0,-1
EndSplineSet
EndChar

StartChar: AE
Encoding: 198 198 138
Width: 781
Flags: W
LayerCount: 2
Fore
SplineSet
383 0 m 1,0,-1
 364 163 l 1,1,-1
 200 163 l 1,2,-1
 154 0 l 1,3,-1
 15 0 l 1,4,-1
 225 700 l 1,5,-1
 711 700 l 1,6,-1
 711 592 l 1,7,-1
 444 592 l 1,8,-1
 470 415 l 1,9,-1
 703 415 l 1,10,-1
 703 308 l 1,11,-1
 486 308 l 1,12,-1
 516 108 l 1,13,-1
 731 108 l 1,14,-1
 731 0 l 1,15,-1
 383 0 l 1,0,-1
232 281 m 1,16,-1
 350 281 l 1,17,-1
 315 580 l 1,18,-1
 232 281 l 1,16,-1
EndSplineSet
Position2: "'cpsp' Capital Spacing in Latin lookup 0 subtable" dx=5 dy=0 dh=10 dv=0
EndChar

StartChar: ordfeminine
Encoding: 170 170 139
Width: 431
Flags: W
LayerCount: 2
Fore
SplineSet
325 326 m 2,0,1
 314 326 314 326 296.5 334 c 128,-1,2
 279 342 279 342 272 366 c 1,3,4
 246 321 246 321 167 321 c 0,5,6
 146 321 146 321 126 326.5 c 128,-1,7
 106 332 106 332 90.5 345.5 c 128,-1,8
 75 359 75 359 65 382.5 c 128,-1,9
 55 406 55 406 55 442 c 0,10,11
 55 475 55 475 67.5 498 c 128,-1,12
 80 521 80 521 101.5 536 c 128,-1,13
 123 551 123 551 151.5 557.5 c 128,-1,14
 180 564 180 564 211 564 c 2,15,-1
 242 564 l 1,16,-1
 242 574 l 2,17,18
 242 594 242 594 231 608 c 128,-1,19
 220 622 220 622 192 622 c 0,20,21
 160 622 160 622 135.5 618.5 c 128,-1,22
 111 615 111 615 83 607 c 1,23,-1
 83 692 l 1,24,25
 94 695 94 695 109 698 c 128,-1,26
 124 701 124 701 140.5 703 c 128,-1,27
 157 705 157 705 173.5 706 c 128,-1,28
 190 707 190 707 204 707 c 0,29,30
 246 707 246 707 274.5 697 c 128,-1,31
 303 687 303 687 319.5 668.5 c 128,-1,32
 336 650 336 650 343 623.5 c 128,-1,33
 350 597 350 597 350 563 c 2,34,-1
 350 429 l 2,35,36
 350 405 350 405 376 405 c 1,37,-1
 376 326 l 1,38,-1
 325 326 l 2,0,1
62 0 m 1,39,-1
 62 115 l 1,40,-1
 363 115 l 1,41,-1
 363 0 l 1,42,-1
 62 0 l 1,39,-1
202 409 m 0,43,44
 223 409 223 409 231.5 420 c 128,-1,45
 240 431 240 431 242 448 c 1,46,-1
 242 490 l 1,47,-1
 217 490 l 2,48,49
 195 490 195 490 179 481 c 128,-1,50
 163 472 163 472 163 447 c 0,51,52
 163 432 163 432 172.5 420.5 c 128,-1,53
 182 409 182 409 202 409 c 0,43,44
EndSplineSet
EndChar

StartChar: Lslash
Encoding: 321 321 140
Width: 430
Flags: W
LayerCount: 2
Fore
SplineSet
80 0 m 1,0,-1
 80 320 l 1,1,-1
 20 290 l 1,2,-1
 20 408 l 1,3,-1
 80 439 l 1,4,-1
 80 700 l 1,5,-1
 217 700 l 1,6,-1
 217 509 l 1,7,-1
 305 555 l 1,8,-1
 305 435 l 1,9,-1
 217 390 l 1,10,-1
 217 116 l 1,11,-1
 420 116 l 1,12,-1
 420 0 l 1,13,-1
 80 0 l 1,0,-1
EndSplineSet
Position2: "'cpsp' Capital Spacing in Latin lookup 0 subtable" dx=5 dy=0 dh=10 dv=0
EndChar

StartChar: Oslash
Encoding: 216 216 141
Width: 548
Flags: W
LayerCount: 2
Fore
SplineSet
523 358 m 0,0,1
 523 266 523 266 514.5 197 c 128,-1,2
 506 128 506 128 480.5 82 c 128,-1,3
 455 36 455 36 409 13 c 128,-1,4
 363 -10 363 -10 289 -10 c 0,5,6
 269 -10 269 -10 252 -8 c 128,-1,7
 235 -6 235 -6 219 -3 c 1,8,-1
 191 -91 l 1,9,-1
 91 -91 l 1,10,-1
 132 37 l 1,11,12
 85 80 85 80 70 160 c 128,-1,13
 55 240 55 240 55 358 c 0,14,15
 55 446 55 446 64.5 512 c 128,-1,16
 74 578 74 578 100 622 c 128,-1,17
 126 666 126 666 171.5 688 c 128,-1,18
 217 710 217 710 289 710 c 0,19,20
 305 710 305 710 319 708.5 c 128,-1,21
 333 707 333 707 347 705 c 1,22,-1
 375 791 l 1,23,-1
 475 791 l 1,24,-1
 436 670 l 1,25,26
 487 630 487 630 505 553 c 128,-1,27
 523 476 523 476 523 358 c 0,0,1
384 353 m 0,28,29
 384 437 384 437 378 489 c 1,30,-1
 254 104 l 1,31,32
 262 100 262 100 270 99 c 128,-1,33
 278 98 278 98 289 98 c 0,34,35
 316 98 316 98 334 109.5 c 128,-1,36
 352 121 352 121 363 150 c 128,-1,37
 374 179 374 179 379 228 c 128,-1,38
 384 277 384 277 384 353 c 0,28,29
194 353 m 0,39,40
 194 319 194 319 195 291 c 128,-1,41
 196 263 196 263 198 240 c 1,42,-1
 313 599 l 1,43,44
 301 602 301 602 289 602 c 0,45,46
 262 602 262 602 244 592 c 128,-1,47
 226 582 226 582 215 554.5 c 128,-1,48
 204 527 204 527 199 478.5 c 128,-1,49
 194 430 194 430 194 353 c 0,39,40
EndSplineSet
Position2: "'cpsp' Capital Spacing in Latin lookup 0 subtable" dx=5 dy=0 dh=10 dv=0
EndChar

StartChar: OE
Encoding: 338 338 142
Width: 795
Flags: W
LayerCount: 2
Fore
SplineSet
368 0 m 1,0,1
 350 -5 350 -5 329 -7.5 c 128,-1,2
 308 -10 308 -10 284 -10 c 0,3,4
 210 -10 210 -10 164 13 c 128,-1,5
 118 36 118 36 92.5 82 c 128,-1,6
 67 128 67 128 58.5 197 c 128,-1,7
 50 266 50 266 50 358 c 0,8,9
 50 446 50 446 59.5 512 c 128,-1,10
 69 578 69 578 95 622 c 128,-1,11
 121 666 121 666 166.5 688 c 128,-1,12
 212 710 212 710 284 710 c 0,13,14
 308 710 308 710 329 707.5 c 128,-1,15
 350 705 350 705 368 700 c 1,16,-1
 745 700 l 1,17,-1
 745 592 l 1,18,-1
 488 592 l 1,19,20
 502 557 502 557 508.5 513 c 128,-1,21
 515 469 515 469 517 415 c 1,22,-1
 720 415 l 1,23,-1
 720 308 l 1,24,-1
 517 308 l 1,25,26
 515 245 515 245 508.5 195.5 c 128,-1,27
 502 146 502 146 487 108 c 1,28,-1
 745 108 l 1,29,-1
 745 0 l 1,30,-1
 368 0 l 1,0,1
379 353 m 0,31,32
 379 430 379 430 374 478.5 c 128,-1,33
 369 527 369 527 358 554.5 c 128,-1,34
 347 582 347 582 329 592 c 128,-1,35
 311 602 311 602 284 602 c 256,36,37
 257 602 257 602 239 592 c 128,-1,38
 221 582 221 582 210 554.5 c 128,-1,39
 199 527 199 527 194 478.5 c 128,-1,40
 189 430 189 430 189 353 c 0,41,42
 189 277 189 277 194 228 c 128,-1,43
 199 179 199 179 210 150 c 128,-1,44
 221 121 221 121 239 109.5 c 128,-1,45
 257 98 257 98 284 98 c 256,46,47
 311 98 311 98 329 109.5 c 128,-1,48
 347 121 347 121 358 150 c 128,-1,49
 369 179 369 179 374 228 c 128,-1,50
 379 277 379 277 379 353 c 0,31,32
EndSplineSet
Position2: "'cpsp' Capital Spacing in Latin lookup 0 subtable" dx=5 dy=0 dh=10 dv=0
EndChar

StartChar: ordmasculine
Encoding: 186 186 143
Width: 434
Flags: W
LayerCount: 2
Fore
SplineSet
269 512 m 0,0,1
 269 578 269 578 258 600.5 c 128,-1,2
 247 623 247 623 217 623 c 0,3,4
 202 623 202 623 192 618.5 c 128,-1,5
 182 614 182 614 176 601.5 c 128,-1,6
 170 589 170 589 167.5 567.5 c 128,-1,7
 165 546 165 546 165 512 c 0,8,9
 165 456 165 456 176 430.5 c 128,-1,10
 187 405 187 405 217 405 c 256,11,12
 247 405 247 405 258 430.5 c 128,-1,13
 269 456 269 456 269 512 c 0,0,1
379 522 m 0,14,15
 379 463 379 463 369 424 c 128,-1,16
 359 385 359 385 338.5 361.5 c 128,-1,17
 318 338 318 338 288 328.5 c 128,-1,18
 258 319 258 319 217 319 c 0,19,20
 177 319 177 319 146.5 328.5 c 128,-1,21
 116 338 116 338 95.5 361.5 c 128,-1,22
 75 385 75 385 65 424 c 128,-1,23
 55 463 55 463 55 522 c 0,24,25
 55 618 55 618 92 663.5 c 128,-1,26
 129 709 129 709 217 709 c 256,27,28
 305 709 305 709 342 663.5 c 128,-1,29
 379 618 379 618 379 522 c 0,14,15
58 0 m 1,30,-1
 58 115 l 1,31,-1
 372 115 l 1,32,-1
 372 0 l 1,33,-1
 58 0 l 1,30,-1
EndSplineSet
EndChar

StartChar: ae
Encoding: 230 230 144
Width: 741
Flags: W
LayerCount: 2
Fore
SplineSet
441 209 m 1,0,1
 442 179 442 179 446.5 159 c 128,-1,2
 451 139 451 139 461 127 c 128,-1,3
 471 115 471 115 486.5 110 c 128,-1,4
 502 105 502 105 525 105 c 0,5,6
 567 105 567 105 604.5 110 c 128,-1,7
 642 115 642 115 664 120 c 1,8,-1
 664 8 l 1,9,10
 652 5 652 5 634 1.5 c 128,-1,11
 616 -2 616 -2 596 -4 c 128,-1,12
 576 -6 576 -6 557.5 -7.5 c 128,-1,13
 539 -9 539 -9 525 -9 c 0,14,15
 463 -9 463 -9 421 3 c 128,-1,16
 379 15 379 15 354 53 c 1,17,18
 334 24 334 24 297 7.5 c 128,-1,19
 260 -9 260 -9 203 -9 c 0,20,21
 170 -9 170 -9 142 -1.5 c 128,-1,22
 114 6 114 6 93.5 24 c 128,-1,23
 73 42 73 42 61.5 72 c 128,-1,24
 50 102 50 102 50 148 c 0,25,26
 50 193 50 193 64 223.5 c 128,-1,27
 78 254 78 254 105 272.5 c 128,-1,28
 132 291 132 291 171.5 299 c 128,-1,29
 211 307 211 307 262 307 c 2,30,-1
 307 307 l 1,31,-1
 307 339 l 2,32,33
 307 368 307 368 292.5 383.5 c 128,-1,34
 278 399 278 399 240 399 c 0,35,36
 197 399 197 399 160.5 392.5 c 128,-1,37
 124 386 124 386 86 375 c 1,38,-1
 86 489 l 1,39,40
 100 493 100 493 119 496.5 c 128,-1,41
 138 500 138 500 158.5 503 c 128,-1,42
 179 506 179 506 200.5 507.5 c 128,-1,43
 222 509 222 509 240 509 c 0,44,45
 297 509 297 509 333 500 c 128,-1,46
 369 491 369 491 390 474 c 1,47,48
 435 509 435 509 512 509 c 0,49,50
 569 509 569 509 605.5 494 c 128,-1,51
 642 479 642 479 663 450.5 c 128,-1,52
 684 422 684 422 692.5 380 c 128,-1,53
 701 338 701 338 701 285 c 2,54,-1
 701 209 l 1,55,-1
 441 209 l 1,0,1
241 103 m 0,56,57
 262 103 262 103 274.5 110.5 c 128,-1,58
 287 118 287 118 294.5 129 c 128,-1,59
 302 140 302 140 304.5 152.5 c 128,-1,60
 307 165 307 165 307 175 c 2,61,-1
 307 209 l 1,62,-1
 257 209 l 2,63,64
 225 209 225 209 205 197.5 c 128,-1,65
 185 186 185 186 185 155 c 0,66,67
 185 132 185 132 197.5 117.5 c 128,-1,68
 210 103 210 103 241 103 c 0,56,57
510 399 m 0,69,70
 480 399 480 399 464 379 c 128,-1,71
 448 359 448 359 443 307 c 1,72,-1
 573 307 l 1,73,-1
 573 325 l 2,74,75
 573 362 573 362 558 380.5 c 128,-1,76
 543 399 543 399 510 399 c 0,69,70
EndSplineSet
EndChar

StartChar: dotlessi
Encoding: 305 305 145
Width: 263
Flags: W
LayerCount: 2
Fore
SplineSet
65 0 m 1,0,-1
 65 500 l 1,1,-1
 198 500 l 1,2,-1
 198 0 l 1,3,-1
 65 0 l 1,0,-1
EndSplineSet
EndChar

StartChar: lslash
Encoding: 322 322 146
Width: 300
Flags: W
LayerCount: 2
Fore
SplineSet
275 3 m 1,0,1
 264 1 264 1 238.5 -2 c 128,-1,2
 213 -5 213 -5 184 -5 c 0,3,4
 122 -5 122 -5 98.5 32.5 c 128,-1,5
 75 70 75 70 75 148 c 2,6,-1
 75 319 l 1,7,-1
 25 290 l 1,8,-1
 25 408 l 1,9,-1
 75 438 l 1,10,-1
 75 700 l 1,11,-1
 208 700 l 1,12,-1
 208 518 l 1,13,-1
 270 555 l 1,14,-1
 270 435 l 1,15,-1
 208 398 l 1,16,-1
 208 153 l 2,17,18
 208 129 208 129 214 119.5 c 128,-1,19
 220 110 220 110 239 110 c 0,20,21
 250 110 250 110 260.5 111.5 c 128,-1,22
 271 113 271 113 275 114 c 1,23,-1
 275 3 l 1,0,1
EndSplineSet
EndChar

StartChar: oslash
Encoding: 248 248 147
Width: 530
Flags: W
LayerCount: 2
Fore
SplineSet
480 260 m 0,0,1
 480 181 480 181 466 129.5 c 128,-1,2
 452 78 452 78 425 47.5 c 128,-1,3
 398 17 398 17 357.5 5 c 128,-1,4
 317 -7 317 -7 264 -7 c 0,5,6
 238 -7 238 -7 215 -4 c 1,7,-1
 183 -89 l 1,8,-1
 88 -89 l 1,9,-1
 131 24 l 1,10,11
 90 50 90 50 70 106.5 c 128,-1,12
 50 163 50 163 50 260 c 0,13,14
 50 388 50 388 100.5 447.5 c 128,-1,15
 151 507 151 507 264 507 c 0,16,17
 278 507 278 507 291 506 c 128,-1,18
 304 505 304 505 316 503 c 1,19,-1
 349 589 l 1,20,-1
 443 589 l 1,21,-1
 399 473 l 1,22,23
 480 419 480 419 480 260 c 0,0,1
186 245 m 0,24,25
 186 204 186 204 189 175 c 1,26,-1
 275 398 l 1,27,28
 272 399 272 399 264 399 c 0,29,30
 242 399 242 399 227 391.5 c 128,-1,31
 212 384 212 384 203 366 c 128,-1,32
 194 348 194 348 190 318.5 c 128,-1,33
 186 289 186 289 186 245 c 0,24,25
344 245 m 0,34,35
 344 267 344 267 343 285.5 c 128,-1,36
 342 304 342 304 340 319 c 1,37,-1
 256 101 l 1,38,-1
 264 101 l 2,39,40
 287 101 287 101 302.5 108 c 128,-1,41
 318 115 318 115 327 131.5 c 128,-1,42
 336 148 336 148 340 175.5 c 128,-1,43
 344 203 344 203 344 245 c 0,34,35
EndSplineSet
EndChar

StartChar: oe
Encoding: 339 339 148
Width: 779
Flags: W
LayerCount: 2
Fore
SplineSet
475 201 m 1,0,1
 478 146 478 146 495.5 125.5 c 128,-1,2
 513 105 513 105 558 105 c 0,3,4
 600 105 600 105 637.5 110 c 128,-1,5
 675 115 675 115 697 120 c 1,6,-1
 697 8 l 1,7,8
 685 5 685 5 667 1.5 c 128,-1,9
 649 -2 649 -2 629 -4 c 128,-1,10
 609 -6 609 -6 590.5 -7.5 c 128,-1,11
 572 -9 572 -9 558 -9 c 0,12,13
 506 -9 506 -9 468 1 c 128,-1,14
 430 11 430 11 404 36 c 1,15,16
 355 -7 355 -7 264 -7 c 0,17,18
 211 -7 211 -7 171 5 c 128,-1,19
 131 17 131 17 104 47.5 c 128,-1,20
 77 78 77 78 63.5 129.5 c 128,-1,21
 50 181 50 181 50 260 c 0,22,23
 50 388 50 388 100.5 447.5 c 128,-1,24
 151 507 151 507 264 507 c 0,25,26
 313 507 313 507 349 493.5 c 128,-1,27
 385 480 385 480 410 457 c 1,28,29
 434 481 434 481 467.5 495 c 128,-1,30
 501 509 501 509 545 509 c 0,31,32
 602 509 602 509 638.5 494 c 128,-1,33
 675 479 675 479 696 450.5 c 128,-1,34
 717 422 717 422 725.5 380 c 128,-1,35
 734 338 734 338 734 285 c 2,36,-1
 734 201 l 1,37,-1
 475 201 l 1,0,1
344 245 m 0,38,39
 344 289 344 289 340 318.5 c 128,-1,40
 336 348 336 348 326.5 366 c 128,-1,41
 317 384 317 384 302 391.5 c 128,-1,42
 287 399 287 399 264 399 c 0,43,44
 242 399 242 399 227 391.5 c 128,-1,45
 212 384 212 384 203 366 c 128,-1,46
 194 348 194 348 190 318.5 c 128,-1,47
 186 289 186 289 186 245 c 0,48,49
 186 203 186 203 189.5 175.5 c 128,-1,50
 193 148 193 148 202 131.5 c 128,-1,51
 211 115 211 115 226 108 c 128,-1,52
 241 101 241 101 264 101 c 256,53,54
 287 101 287 101 302.5 108 c 128,-1,55
 318 115 318 115 327 131.5 c 128,-1,56
 336 148 336 148 340 175.5 c 128,-1,57
 344 203 344 203 344 245 c 0,38,39
543 399 m 0,58,59
 512 399 512 399 496.5 377 c 128,-1,60
 481 355 481 355 476 299 c 1,61,-1
 606 299 l 1,62,-1
 606 325 l 2,63,64
 606 362 606 362 591 380.5 c 128,-1,65
 576 399 576 399 543 399 c 0,58,59
EndSplineSet
EndChar

StartChar: germandbls
Encoding: 223 223 149
Width: 537
Flags: W
LayerCount: 2
Fore
SplineSet
492 166 m 0,0,1
 492 112 492 112 477.5 78 c 128,-1,2
 463 44 463 44 438.5 24.5 c 128,-1,3
 414 5 414 5 382 -2 c 128,-1,4
 350 -9 350 -9 315 -9 c 0,5,6
 306 -9 306 -9 294.5 -8.5 c 128,-1,7
 283 -8 283 -8 270 -6.5 c 128,-1,8
 257 -5 257 -5 244.5 -3.5 c 128,-1,9
 232 -2 232 -2 223 0 c 1,10,-1
 223 114 l 1,11,12
 237 109 237 109 257.5 106 c 128,-1,13
 278 103 278 103 288 103 c 0,14,15
 355 103 355 103 355 161 c 0,16,17
 355 191 355 191 339.5 208 c 128,-1,18
 324 225 324 225 292 239 c 0,19,20
 249 259 249 259 230 288 c 128,-1,21
 211 317 211 317 211 370 c 0,22,23
 211 421 211 421 240 455 c 128,-1,24
 269 489 269 489 319 496 c 1,25,26
 322 503 322 503 325 516 c 128,-1,27
 328 529 328 529 328 537 c 0,28,29
 328 564 328 564 315 580.5 c 128,-1,30
 302 597 302 597 262 597 c 0,31,32
 226 597 226 597 212.5 576.5 c 128,-1,33
 199 556 199 556 199 510 c 2,34,-1
 199 0 l 1,35,-1
 65 0 l 1,36,-1
 65 503 l 2,37,38
 65 545 65 545 74.5 582 c 128,-1,39
 84 619 84 619 106.5 647.5 c 128,-1,40
 129 676 129 676 167 692.5 c 128,-1,41
 205 709 205 709 262 709 c 0,42,43
 348 709 348 709 398 669 c 128,-1,44
 448 629 448 629 448 557 c 0,45,46
 448 520 448 520 444 485.5 c 128,-1,47
 440 451 440 451 432 413 c 1,48,49
 379 413 379 413 359.5 403.5 c 128,-1,50
 340 394 340 394 340 369 c 0,51,52
 340 355 340 355 349 348.5 c 128,-1,53
 358 342 358 342 374 335 c 0,54,55
 399 325 399 325 420.5 312.5 c 128,-1,56
 442 300 442 300 458 280.5 c 128,-1,57
 474 261 474 261 483 233 c 128,-1,58
 492 205 492 205 492 166 c 0,0,1
EndSplineSet
EndChar

StartChar: onesuperior
Encoding: 185 185 150
Width: 410
Flags: W
LayerCount: 2
Fore
SplineSet
77 205 m 1,0,-1
 77 305 l 1,1,-1
 160 305 l 1,2,-1
 160 597 l 1,3,-1
 69 558 l 1,4,-1
 69 662 l 1,5,-1
 152 700 l 1,6,-1
 275 700 l 1,7,-1
 275 305 l 1,8,-1
 342 305 l 1,9,-1
 342 205 l 1,10,-1
 77 205 l 1,0,-1
EndSplineSet
EndChar

StartChar: logicalnot
Encoding: 172 172 151
Width: 575
Flags: W
LayerCount: 2
Fore
SplineSet
395 106 m 1,0,-1
 395 245 l 1,1,-1
 60 245 l 1,2,-1
 60 360 l 1,3,-1
 515 360 l 1,4,-1
 515 106 l 1,5,-1
 395 106 l 1,0,-1
EndSplineSet
EndChar

StartChar: mu
Encoding: 181 181 152
Width: 523
Flags: W
LayerCount: 2
Fore
SplineSet
65 -170 m 1,0,-1
 65 500 l 1,1,-1
 198 500 l 1,2,-1
 198 182 l 2,3,4
 198 157 198 157 202 142 c 128,-1,5
 206 127 206 127 213 119 c 128,-1,6
 220 111 220 111 230.5 108.5 c 128,-1,7
 241 106 241 106 254 106 c 0,8,9
 292 106 292 106 308.5 130 c 128,-1,10
 325 154 325 154 325 181 c 2,11,-1
 325 500 l 1,12,-1
 458 500 l 1,13,-1
 458 0 l 1,14,-1
 350 0 l 1,15,-1
 341 39 l 1,16,17
 318 17 318 17 289 4 c 128,-1,18
 260 -9 260 -9 222 -9 c 0,19,20
 215 -9 215 -9 209 -8.5 c 128,-1,21
 203 -8 203 -8 198 -8 c 1,22,-1
 198 -170 l 1,23,-1
 65 -170 l 1,0,-1
EndSplineSet
EndChar

StartChar: trademark
Encoding: 8482 8482 153
Width: 810
Flags: W
LayerCount: 2
Fore
SplineSet
651 194 m 1,0,-1
 651 612 l 1,1,-1
 591 361 l 1,2,-1
 493 361 l 1,3,-1
 439 612 l 1,4,-1
 439 194 l 1,5,-1
 334 194 l 1,6,-1
 334 609 l 1,7,-1
 244 609 l 1,8,-1
 244 194 l 1,9,-1
 136 194 l 1,10,-1
 136 609 l 1,11,-1
 30 609 l 1,12,-1
 30 700 l 1,13,-1
 507 700 l 1,14,-1
 547 505 l 1,15,-1
 583 700 l 1,16,-1
 755 700 l 1,17,-1
 755 194 l 1,18,-1
 651 194 l 1,0,-1
EndSplineSet
EndChar

StartChar: Eth
Encoding: 208 208 154
Width: 561
Flags: W
LayerCount: 2
Fore
SplineSet
511 361 m 0,0,1
 511 249 511 249 496 177 c 128,-1,2
 481 105 481 105 451 63.5 c 128,-1,3
 421 22 421 22 376.5 6 c 128,-1,4
 332 -10 332 -10 274 -10 c 0,5,6
 248 -10 248 -10 215 -8.5 c 128,-1,7
 182 -7 182 -7 153 -5 c 0,8,9
 120 -2 120 -2 85 0 c 1,10,-1
 85 325 l 1,11,-1
 30 325 l 1,12,-1
 30 440 l 1,13,-1
 85 440 l 1,14,-1
 85 700 l 1,15,16
 120 702 120 702 153 705 c 0,17,18
 181 707 181 707 211 708.5 c 128,-1,19
 241 710 241 710 262 710 c 0,20,21
 322 710 322 710 368.5 697 c 128,-1,22
 415 684 415 684 446.5 646 c 128,-1,23
 478 608 478 608 494.5 540 c 128,-1,24
 511 472 511 472 511 361 c 0,0,1
372 354 m 0,25,26
 372 435 372 435 366.5 481.5 c 128,-1,27
 361 528 361 528 350.5 552 c 128,-1,28
 340 576 340 576 323.5 582.5 c 128,-1,29
 307 589 307 589 284 589 c 0,30,31
 270 589 270 589 258.5 588.5 c 128,-1,32
 247 588 247 588 239 587 c 0,33,34
 229 586 229 586 222 585 c 1,35,-1
 222 440 l 1,36,-1
 305 440 l 1,37,-1
 305 325 l 1,38,-1
 222 325 l 1,39,-1
 222 115 l 1,40,41
 228 114 228 114 237 113 c 0,42,43
 245 112 245 112 256 111.5 c 128,-1,44
 267 111 267 111 283 111 c 0,45,46
 306 111 306 111 323 122 c 128,-1,47
 340 133 340 133 351 160.5 c 128,-1,48
 362 188 362 188 367 235 c 128,-1,49
 372 282 372 282 372 354 c 0,25,26
EndSplineSet
Position2: "'cpsp' Capital Spacing in Latin lookup 0 subtable" dx=5 dy=0 dh=10 dv=0
EndChar

StartChar: onehalf
Encoding: 189 189 155
Width: 875
Flags: W
LayerCount: 2
Fore
SplineSet
52 205 m 1,0,-1
 52 305 l 1,1,-1
 135 305 l 1,2,-1
 135 597 l 1,3,-1
 44 558 l 1,4,-1
 44 662 l 1,5,-1
 127 700 l 1,6,-1
 250 700 l 1,7,-1
 250 305 l 1,8,-1
 317 305 l 1,9,-1
 317 205 l 1,10,-1
 52 205 l 1,0,-1
574 0 m 1,11,-1
 574 104 l 1,12,-1
 676 228 l 1,13,14
 693 247 693 247 703.5 261.5 c 128,-1,15
 714 276 714 276 719.5 290 c 128,-1,16
 725 304 725 304 727 319 c 128,-1,17
 729 334 729 334 729 352 c 0,18,19
 729 372 729 372 716.5 388.5 c 128,-1,20
 704 405 704 405 669 405 c 0,21,22
 645 405 645 405 625 401.5 c 128,-1,23
 605 398 605 398 587 394 c 1,24,-1
 587 491 l 1,25,26
 590 491 590 491 601 493 c 128,-1,27
 612 495 612 495 626.5 497 c 128,-1,28
 641 499 641 499 657.5 500.5 c 128,-1,29
 674 502 674 502 689 502 c 0,30,31
 764 502 764 502 804 460 c 128,-1,32
 844 418 844 418 844 345 c 0,33,34
 844 262 844 262 796 205 c 2,35,-1
 706 98 l 1,36,-1
 850 98 l 1,37,-1
 850 0 l 1,38,-1
 574 0 l 1,11,-1
355 -100 m 1,39,-1
 236 -100 l 1,40,-1
 546 810 l 1,41,-1
 665 810 l 1,42,-1
 355 -100 l 1,39,-1
EndSplineSet
Ligature2: "'frac' Diagonal Fractions in Latin lookup 1 subtable" onesuperior fraction twosuperior
Ligature2: "'frac' Diagonal Fractions in Latin lookup 1 subtable" onesuperior fraction two
Ligature2: "'frac' Diagonal Fractions in Latin lookup 1 subtable" onesuperior slash twosuperior
Ligature2: "'frac' Diagonal Fractions in Latin lookup 1 subtable" onesuperior slash two
Ligature2: "'frac' Diagonal Fractions in Latin lookup 1 subtable" one fraction twosuperior
Ligature2: "'frac' Diagonal Fractions in Latin lookup 1 subtable" one fraction two
Ligature2: "'frac' Diagonal Fractions in Latin lookup 1 subtable" one slash twosuperior
Ligature2: "'frac' Diagonal Fractions in Latin lookup 1 subtable" one slash two
EndChar

StartChar: plusminus
Encoding: 177 177 156
Width: 550
Flags: W
LayerCount: 2
Fore
SplineSet
75 0 m 1,0,-1
 75 115 l 1,1,-1
 485 115 l 1,2,-1
 485 0 l 1,3,-1
 75 0 l 1,0,-1
341 245 m 1,4,-1
 341 157 l 1,5,-1
 219 157 l 1,6,-1
 219 245 l 1,7,-1
 69 245 l 1,8,-1
 69 360 l 1,9,-1
 219 360 l 1,10,-1
 219 518 l 1,11,-1
 341 518 l 1,12,-1
 341 360 l 1,13,-1
 491 360 l 1,14,-1
 491 245 l 1,15,-1
 341 245 l 1,4,-1
EndSplineSet
EndChar

StartChar: Thorn
Encoding: 222 222 157
Width: 530
Flags: W
LayerCount: 2
Fore
SplineSet
485 360 m 0,0,1
 485 294 485 294 471 249 c 128,-1,2
 457 204 457 204 429 176 c 128,-1,3
 401 148 401 148 359.5 136 c 128,-1,4
 318 124 318 124 264 124 c 2,5,-1
 207 124 l 1,6,-1
 207 0 l 1,7,-1
 70 0 l 1,8,-1
 70 700 l 1,9,-1
 207 700 l 1,10,-1
 207 592 l 1,11,12
 219 592 219 592 230.5 592.5 c 128,-1,13
 242 593 242 593 254 593 c 0,14,15
 322 593 322 593 366.5 577.5 c 128,-1,16
 411 562 411 562 437.5 532.5 c 128,-1,17
 464 503 464 503 474.5 459.5 c 128,-1,18
 485 416 485 416 485 360 c 0,0,1
346 353 m 0,19,20
 346 412 346 412 330.5 442.5 c 128,-1,21
 315 473 315 473 272 473 c 0,22,23
 240 473 240 473 223 470 c 0,24,25
 213 468 213 468 207 467 c 1,26,-1
 207 242 l 1,27,-1
 270 242 l 2,28,29
 305 242 305 242 325.5 272 c 128,-1,30
 346 302 346 302 346 353 c 0,19,20
EndSplineSet
Position2: "'cpsp' Capital Spacing in Latin lookup 0 subtable" dx=5 dy=0 dh=10 dv=0
EndChar

StartChar: onequarter
Encoding: 188 188 158
Width: 875
Flags: W
LayerCount: 2
Fore
SplineSet
52 205 m 1,0,-1
 52 305 l 1,1,-1
 135 305 l 1,2,-1
 135 597 l 1,3,-1
 44 558 l 1,4,-1
 44 662 l 1,5,-1
 127 700 l 1,6,-1
 250 700 l 1,7,-1
 250 305 l 1,8,-1
 317 305 l 1,9,-1
 317 205 l 1,10,-1
 52 205 l 1,0,-1
770 117 m 1,11,-1
 770 0 l 1,12,-1
 656 0 l 1,13,-1
 656 117 l 1,14,-1
 512 117 l 1,15,-1
 512 221 l 1,16,-1
 583 495 l 1,17,-1
 692 495 l 1,18,-1
 620 211 l 1,19,-1
 658 211 l 1,20,-1
 669 324 l 1,21,-1
 770 324 l 1,22,-1
 770 211 l 1,23,-1
 815 205 l 1,24,-1
 815 117 l 1,25,-1
 770 117 l 1,11,-1
350 -100 m 1,26,-1
 231 -100 l 1,27,-1
 541 810 l 1,28,-1
 660 810 l 1,29,-1
 350 -100 l 1,26,-1
EndSplineSet
Ligature2: "'frac' Diagonal Fractions in Latin lookup 1 subtable" onesuperior fraction four
Ligature2: "'frac' Diagonal Fractions in Latin lookup 1 subtable" onesuperior slash four
Ligature2: "'frac' Diagonal Fractions in Latin lookup 1 subtable" one fraction four
Ligature2: "'frac' Diagonal Fractions in Latin lookup 1 subtable" one slash four
EndChar

StartChar: divide
Encoding: 247 247 159
Width: 550
Flags: W
LayerCount: 2
Fore
SplineSet
70 245 m 1,0,-1
 70 360 l 1,1,-1
 480 360 l 1,2,-1
 480 245 l 1,3,-1
 70 245 l 1,0,-1
200 45 m 1,4,-1
 200 175 l 1,5,-1
 350 175 l 1,6,-1
 350 45 l 1,7,-1
 200 45 l 1,4,-1
200 430 m 1,8,-1
 200 560 l 1,9,-1
 350 560 l 1,10,-1
 350 430 l 1,11,-1
 200 430 l 1,8,-1
EndSplineSet
EndChar

StartChar: brokenbar
Encoding: 166 166 160
Width: 310
Flags: W
LayerCount: 2
Fore
SplineSet
90 -110 m 1,0,-1
 90 250 l 1,1,-1
 220 250 l 1,2,-1
 220 -110 l 1,3,-1
 90 -110 l 1,0,-1
90 450 m 1,4,-1
 90 810 l 1,5,-1
 220 810 l 1,6,-1
 220 450 l 1,7,-1
 90 450 l 1,4,-1
EndSplineSet
EndChar

StartChar: degree
Encoding: 176 176 161
Width: 383
Flags: W
LayerCount: 2
Fore
SplineSet
249 542 m 256,0,1
 249 576 249 576 236 595.5 c 128,-1,2
 223 615 223 615 191 615 c 256,3,4
 159 615 159 615 146 595.5 c 128,-1,5
 133 576 133 576 133 542 c 256,6,7
 133 508 133 508 146 486 c 128,-1,8
 159 464 159 464 191 464 c 256,9,10
 223 464 223 464 236 486 c 128,-1,11
 249 508 249 508 249 542 c 256,0,1
363 541 m 0,12,13
 363 457 363 457 320 413.5 c 128,-1,14
 277 370 277 370 191 370 c 256,15,16
 105 370 105 370 62.5 413.5 c 128,-1,17
 20 457 20 457 20 541 c 0,18,19
 20 707 20 707 191 707 c 0,20,21
 363 707 363 707 363 541 c 0,12,13
EndSplineSet
EndChar

StartChar: thorn
Encoding: 254 254 162
Width: 519
Flags: W
LayerCount: 2
Fore
SplineSet
65 -170 m 1,0,-1
 65 700 l 1,1,-1
 198 700 l 1,2,-1
 198 -170 l 1,3,-1
 65 -170 l 1,0,-1
469 282 m 0,4,5
 469 200 469 200 456.5 144 c 128,-1,6
 444 88 444 88 416.5 54 c 128,-1,7
 389 20 389 20 344 5.5 c 128,-1,8
 299 -9 299 -9 234 -9 c 0,9,10
 195 -9 195 -9 153.5 -4 c 128,-1,11
 112 1 112 1 84 5 c 1,12,-1
 148 113 l 1,13,14
 161 112 161 112 189 108.5 c 128,-1,15
 217 105 217 105 241 105 c 0,16,17
 269 105 269 105 287 111.5 c 128,-1,18
 305 118 305 118 315.5 136.5 c 128,-1,19
 326 155 326 155 330 187.5 c 128,-1,20
 334 220 334 220 334 272 c 0,21,22
 334 310 334 310 331 334 c 128,-1,23
 328 358 328 358 320.5 371.5 c 128,-1,24
 313 385 313 385 301 390 c 128,-1,25
 289 395 289 395 271 395 c 0,26,27
 238 395 238 395 218 371 c 128,-1,28
 198 347 198 347 198 320 c 1,29,-1
 115 336 l 1,30,31
 124 367 124 367 139.5 398 c 128,-1,32
 155 429 155 429 178 453.5 c 128,-1,33
 201 478 201 478 232.5 493.5 c 128,-1,34
 264 509 264 509 306 509 c 0,35,36
 347 509 347 509 378 497.5 c 128,-1,37
 409 486 409 486 429 460 c 128,-1,38
 449 434 449 434 459 390.5 c 128,-1,39
 469 347 469 347 469 282 c 0,4,5
EndSplineSet
EndChar

StartChar: threequarters
Encoding: 190 190 163
Width: 875
Flags: W
LayerCount: 2
Fore
SplineSet
323 361 m 0,0,1
 323 313 323 313 311.5 281.5 c 128,-1,2
 300 250 300 250 280 231.5 c 128,-1,3
 260 213 260 213 231.5 205.5 c 128,-1,4
 203 198 203 198 170 198 c 0,5,6
 156 198 156 198 139.5 199.5 c 128,-1,7
 123 201 123 201 107 202.5 c 128,-1,8
 91 204 91 204 78.5 206 c 128,-1,9
 66 208 66 208 61 209 c 1,10,-1
 61 303 l 1,11,12
 75 300 75 300 97.5 295.5 c 128,-1,13
 120 291 120 291 145 291 c 0,14,15
 174 291 174 291 191 306 c 128,-1,16
 208 321 208 321 208 353 c 0,17,18
 208 424 208 424 143 424 c 2,19,-1
 100 424 l 1,20,-1
 100 515 l 1,21,-1
 136 515 l 2,22,23
 157 515 157 515 169.5 519.5 c 128,-1,24
 182 524 182 524 189 531.5 c 128,-1,25
 196 539 196 539 198 549 c 128,-1,26
 200 559 200 559 200 571 c 0,27,28
 200 614 200 614 146 614 c 0,29,30
 125 614 125 614 103.5 610 c 128,-1,31
 82 606 82 606 65 602 c 1,32,-1
 65 696 l 1,33,34
 68 697 68 697 78.5 698.5 c 128,-1,35
 89 700 89 700 103.5 702 c 128,-1,36
 118 704 118 704 134.5 705.5 c 128,-1,37
 151 707 151 707 166 707 c 0,38,39
 208 707 208 707 236.5 698.5 c 128,-1,40
 265 690 265 690 282.5 673 c 128,-1,41
 300 656 300 656 307 629 c 128,-1,42
 314 602 314 602 314 566 c 0,43,44
 314 537 314 537 297.5 509.5 c 128,-1,45
 281 482 281 482 251 472 c 1,46,47
 282 464 282 464 302.5 432.5 c 128,-1,48
 323 401 323 401 323 361 c 0,0,1
763 117 m 1,49,-1
 763 0 l 1,50,-1
 649 0 l 1,51,-1
 649 117 l 1,52,-1
 505 117 l 1,53,-1
 505 221 l 1,54,-1
 576 495 l 1,55,-1
 685 495 l 1,56,-1
 613 211 l 1,57,-1
 651 211 l 1,58,-1
 662 324 l 1,59,-1
 763 324 l 1,60,-1
 763 211 l 1,61,-1
 808 211 l 1,62,-1
 808 117 l 1,63,-1
 763 117 l 1,49,-1
339 -100 m 1,64,-1
 220 -100 l 1,65,-1
 530 810 l 1,66,-1
 649 810 l 1,67,-1
 339 -100 l 1,64,-1
EndSplineSet
Ligature2: "'frac' Diagonal Fractions in Latin lookup 1 subtable" threesuperior fraction four
Ligature2: "'frac' Diagonal Fractions in Latin lookup 1 subtable" threesuperior slash four
Ligature2: "'frac' Diagonal Fractions in Latin lookup 1 subtable" three fraction four
Ligature2: "'frac' Diagonal Fractions in Latin lookup 1 subtable" three slash four
EndChar

StartChar: twosuperior
Encoding: 178 178 164
Width: 410
Flags: W
LayerCount: 2
Fore
SplineSet
57 205 m 1,0,-1
 57 309 l 1,1,-1
 159 433 l 1,2,3
 176 452 176 452 186.5 466.5 c 128,-1,4
 197 481 197 481 202.5 495 c 128,-1,5
 208 509 208 509 210 524 c 128,-1,6
 212 539 212 539 212 557 c 0,7,8
 212 577 212 577 199.5 593.5 c 128,-1,9
 187 610 187 610 152 610 c 0,10,11
 128 610 128 610 108 606.5 c 128,-1,12
 88 603 88 603 70 599 c 1,13,-1
 70 696 l 1,14,15
 73 696 73 696 84 698 c 128,-1,16
 95 700 95 700 109.5 702 c 128,-1,17
 124 704 124 704 140.5 705.5 c 128,-1,18
 157 707 157 707 172 707 c 0,19,20
 247 707 247 707 287 665 c 128,-1,21
 327 623 327 623 327 550 c 0,22,23
 327 467 327 467 279 410 c 2,24,-1
 189 303 l 1,25,-1
 333 303 l 1,26,-1
 333 205 l 1,27,-1
 57 205 l 1,0,-1
EndSplineSet
EndChar

StartChar: registered
Encoding: 174 174 165
Width: 810
Flags: W
LayerCount: 2
Fore
SplineSet
740 350 m 256,0,1
 740 267 740 267 724 200.5 c 128,-1,2
 708 134 708 134 670 87.5 c 128,-1,3
 632 41 632 41 568.5 16 c 128,-1,4
 505 -9 505 -9 410 -9 c 256,5,6
 315 -9 315 -9 250 15.5 c 128,-1,7
 185 40 185 40 145 86 c 128,-1,8
 105 132 105 132 87.5 198.5 c 128,-1,9
 70 265 70 265 70 350 c 0,10,11
 70 433 70 433 87.5 499.5 c 128,-1,12
 105 566 105 566 145.5 612.5 c 128,-1,13
 186 659 186 659 251 684 c 128,-1,14
 316 709 316 709 410 709 c 0,15,16
 505 709 505 709 568 684 c 128,-1,17
 631 659 631 659 669.5 612 c 128,-1,18
 708 565 708 565 724 499 c 128,-1,19
 740 433 740 433 740 350 c 256,0,1
623 350 m 256,20,21
 623 416 623 416 616.5 465 c 128,-1,22
 610 514 610 514 588 546.5 c 128,-1,23
 566 579 566 579 523.5 595 c 128,-1,24
 481 611 481 611 410 611 c 256,25,26
 339 611 339 611 295 595.5 c 128,-1,27
 251 580 251 580 227 547.5 c 128,-1,28
 203 515 203 515 195 466 c 128,-1,29
 187 417 187 417 187 350 c 0,30,31
 187 284 187 284 195 234.5 c 128,-1,32
 203 185 203 185 227 153 c 128,-1,33
 251 121 251 121 295 105 c 128,-1,34
 339 89 339 89 410 89 c 256,35,36
 481 89 481 89 523.5 105 c 128,-1,37
 566 121 566 121 588 153.5 c 128,-1,38
 610 186 610 186 616.5 235 c 128,-1,39
 623 284 623 284 623 350 c 256,20,21
526 429 m 0,40,41
 526 384 526 384 512 358 c 128,-1,42
 498 332 498 332 474 319 c 1,43,-1
 549 159 l 1,44,-1
 456 159 l 1,45,-1
 395 306 l 1,46,-1
 383 306 l 1,47,-1
 383 159 l 1,48,-1
 300 159 l 1,49,-1
 300 544 l 1,50,51
 318 545 318 545 336 546 c 0,52,53
 352 547 352 547 370.5 547.5 c 128,-1,54
 389 548 389 548 406 548 c 0,55,56
 441 548 441 548 464 539.5 c 128,-1,57
 487 531 487 531 501 515.5 c 128,-1,58
 515 500 515 500 520.5 478 c 128,-1,59
 526 456 526 456 526 429 c 0,40,41
441 427 m 0,60,61
 441 457 441 457 434 467.5 c 128,-1,62
 427 478 427 478 400 478 c 0,63,64
 393 478 393 478 389 477 c 256,65,66
 385 476 385 476 383 476 c 1,67,-1
 383 378 l 1,68,-1
 393 378 l 2,69,70
 420 378 420 378 430.5 386.5 c 128,-1,71
 441 395 441 395 441 427 c 0,60,61
EndSplineSet
EndChar

StartChar: minus
Encoding: 8722 8722 166
Width: 550
Flags: W
LayerCount: 2
Fore
SplineSet
70 245 m 1,0,-1
 70 360 l 1,1,-1
 480 360 l 1,2,-1
 480 245 l 1,3,-1
 70 245 l 1,0,-1
EndSplineSet
EndChar

StartChar: eth
Encoding: 240 240 167
Width: 508
Flags: W
LayerCount: 2
Fore
SplineSet
50 210 m 0,0,1
 50 269 50 269 58 317 c 128,-1,2
 66 365 66 365 86 399 c 128,-1,3
 106 433 106 433 139.5 451 c 128,-1,4
 173 469 173 469 223 469 c 0,5,6
 249 469 249 469 271.5 463.5 c 128,-1,7
 294 458 294 458 314 448 c 1,8,9
 308 489 308 489 296.5 515 c 128,-1,10
 285 541 285 541 270 558 c 1,11,-1
 247 516 l 1,12,-1
 140 516 l 1,13,-1
 183 595 l 1,14,15
 163 597 163 597 141.5 597 c 128,-1,16
 120 597 120 597 97 597 c 1,17,-1
 97 709 l 1,18,19
 137 709 137 709 173 707.5 c 128,-1,20
 209 706 209 706 241 701 c 1,21,-1
 268 750 l 1,22,-1
 375 750 l 1,23,-1
 333 673 l 1,24,25
 362 658 362 658 384.5 633.5 c 128,-1,26
 407 609 407 609 422 571.5 c 128,-1,27
 437 534 437 534 445 482 c 128,-1,28
 453 430 453 430 453 361 c 0,29,30
 453 253 453 253 441 181.5 c 128,-1,31
 429 110 429 110 402.5 68 c 128,-1,32
 376 26 376 26 335 8.5 c 128,-1,33
 294 -9 294 -9 236 -9 c 0,34,35
 208 -9 208 -9 175.5 0 c 128,-1,36
 143 9 143 9 115 33.5 c 128,-1,37
 87 58 87 58 68.5 100.5 c 128,-1,38
 50 143 50 143 50 210 c 0,0,1
247 361 m 0,39,40
 214 361 214 361 198.5 324 c 128,-1,41
 183 287 183 287 183 221 c 0,42,43
 183 184 183 184 187 160.5 c 128,-1,44
 191 137 191 137 199 124 c 128,-1,45
 207 111 207 111 219.5 106 c 128,-1,46
 232 101 232 101 249 101 c 256,47,48
 266 101 266 101 279 109 c 128,-1,49
 292 117 292 117 301 143 c 128,-1,50
 310 169 310 169 315 217 c 128,-1,51
 320 265 320 265 320 346 c 1,52,53
 304 352 304 352 285.5 356.5 c 128,-1,54
 267 361 267 361 247 361 c 0,39,40
EndSplineSet
EndChar

StartChar: multiply
Encoding: 215 215 168
Width: 570
Flags: W
LayerCount: 2
Fore
SplineSet
200 300 m 1,0,-1
 83 417 l 1,1,-1
 168 502 l 1,2,-1
 285 385 l 1,3,-1
 402 502 l 1,4,-1
 487 417 l 1,5,-1
 370 300 l 1,6,-1
 487 183 l 1,7,-1
 402 98 l 1,8,-1
 285 215 l 1,9,-1
 168 98 l 1,10,-1
 83 183 l 1,11,-1
 200 300 l 1,0,-1
EndSplineSet
EndChar

StartChar: threesuperior
Encoding: 179 179 169
Width: 410
Flags: W
LayerCount: 2
Fore
SplineSet
331 361 m 0,0,1
 331 313 331 313 319.5 281.5 c 128,-1,2
 308 250 308 250 288 231.5 c 128,-1,3
 268 213 268 213 239.5 205.5 c 128,-1,4
 211 198 211 198 178 198 c 0,5,6
 164 198 164 198 147.5 199.5 c 128,-1,7
 131 201 131 201 115 202.5 c 128,-1,8
 99 204 99 204 86.5 206 c 128,-1,9
 74 208 74 208 69 209 c 1,10,-1
 69 303 l 1,11,12
 83 300 83 300 105.5 295.5 c 128,-1,13
 128 291 128 291 153 291 c 0,14,15
 182 291 182 291 199 306 c 128,-1,16
 216 321 216 321 216 353 c 0,17,18
 216 424 216 424 151 424 c 2,19,-1
 108 424 l 1,20,-1
 108 515 l 1,21,-1
 144 515 l 2,22,23
 165 515 165 515 177.5 519.5 c 128,-1,24
 190 524 190 524 197 531.5 c 128,-1,25
 204 539 204 539 206 549 c 128,-1,26
 208 559 208 559 208 571 c 0,27,28
 208 614 208 614 154 614 c 0,29,30
 133 614 133 614 111.5 610 c 128,-1,31
 90 606 90 606 73 602 c 1,32,-1
 73 696 l 1,33,34
 76 697 76 697 86.5 698.5 c 128,-1,35
 97 700 97 700 111.5 702 c 128,-1,36
 126 704 126 704 142.5 705.5 c 128,-1,37
 159 707 159 707 174 707 c 0,38,39
 216 707 216 707 244.5 698.5 c 128,-1,40
 273 690 273 690 290.5 673 c 128,-1,41
 308 656 308 656 315 629 c 128,-1,42
 322 602 322 602 322 566 c 0,43,44
 322 537 322 537 305.5 509.5 c 128,-1,45
 289 482 289 482 259 472 c 1,46,47
 290 464 290 464 310.5 432.5 c 128,-1,48
 331 401 331 401 331 361 c 0,0,1
EndSplineSet
EndChar

StartChar: copyright
Encoding: 169 169 170
Width: 810
Flags: W
LayerCount: 2
Fore
SplineSet
489 162 m 1,0,1
 485 161 485 161 475 159.5 c 128,-1,2
 465 158 465 158 453.5 157 c 128,-1,3
 442 156 442 156 431 155 c 128,-1,4
 420 154 420 154 413 154 c 0,5,6
 381 154 381 154 358.5 162.5 c 128,-1,7
 336 171 336 171 321.5 193.5 c 128,-1,8
 307 216 307 216 300.5 255.5 c 128,-1,9
 294 295 294 295 294 356 c 256,10,11
 294 417 294 417 301 454 c 128,-1,12
 308 491 308 491 323.5 511.5 c 128,-1,13
 339 532 339 532 362.5 539 c 128,-1,14
 386 546 386 546 419 546 c 0,15,16
 425 546 425 546 435 545 c 128,-1,17
 445 544 445 544 455.5 543 c 128,-1,18
 466 542 466 542 475.5 540.5 c 128,-1,19
 485 539 485 539 489 538 c 1,20,-1
 489 465 l 1,21,22
 475 468 475 468 461 469.5 c 128,-1,23
 447 471 447 471 436 471 c 0,24,25
 420 471 420 471 409.5 468.5 c 128,-1,26
 399 466 399 466 393 455 c 128,-1,27
 387 444 387 444 385 420 c 128,-1,28
 383 396 383 396 383 352 c 0,29,30
 383 307 383 307 385.5 282.5 c 128,-1,31
 388 258 388 258 394 246 c 128,-1,32
 400 234 400 234 410.5 231.5 c 128,-1,33
 421 229 421 229 437 229 c 0,34,35
 450 229 450 229 464 231 c 128,-1,36
 478 233 478 233 489 235 c 1,37,-1
 489 162 l 1,0,1
740 350 m 256,38,39
 740 267 740 267 724 200.5 c 128,-1,40
 708 134 708 134 670 87.5 c 128,-1,41
 632 41 632 41 568.5 16 c 128,-1,42
 505 -9 505 -9 410 -9 c 256,43,44
 315 -9 315 -9 250 15.5 c 128,-1,45
 185 40 185 40 145 86 c 128,-1,46
 105 132 105 132 87.5 198.5 c 128,-1,47
 70 265 70 265 70 350 c 0,48,49
 70 433 70 433 87.5 499.5 c 128,-1,50
 105 566 105 566 145.5 612.5 c 128,-1,51
 186 659 186 659 251 684 c 128,-1,52
 316 709 316 709 410 709 c 0,53,54
 505 709 505 709 568 684 c 128,-1,55
 631 659 631 659 669.5 612 c 128,-1,56
 708 565 708 565 724 499 c 128,-1,57
 740 433 740 433 740 350 c 256,38,39
623 350 m 256,58,59
 623 416 623 416 616.5 465 c 128,-1,60
 610 514 610 514 588 546.5 c 128,-1,61
 566 579 566 579 523.5 595 c 128,-1,62
 481 611 481 611 410 611 c 256,63,64
 339 611 339 611 295 595.5 c 128,-1,65
 251 580 251 580 227 547.5 c 128,-1,66
 203 515 203 515 195 466 c 128,-1,67
 187 417 187 417 187 350 c 0,68,69
 187 284 187 284 195 234.5 c 128,-1,70
 203 185 203 185 227 153 c 128,-1,71
 251 121 251 121 295 105 c 128,-1,72
 339 89 339 89 410 89 c 256,73,74
 481 89 481 89 523.5 105 c 128,-1,75
 566 121 566 121 588 153.5 c 128,-1,76
 610 186 610 186 616.5 235 c 128,-1,77
 623 284 623 284 623 350 c 256,58,59
EndSplineSet
EndChar

StartChar: Aacute
Encoding: 193 193 171
Width: 545
Flags: W
LayerCount: 2
Fore
SplineSet
164 726 m 1,0,-1
 268 841 l 1,1,-1
 429 841 l 1,2,-1
 277 726 l 1,3,-1
 164 726 l 1,0,-1
273 612 m 1,4,-1
 213 281 l 1,5,-1
 335 281 l 1,6,-1
 273 612 l 1,4,-1
389 0 m 1,7,-1
 357 163 l 1,8,-1
 190 163 l 1,9,-1
 158 0 l 1,10,-1
 15 0 l 1,11,-1
 175 700 l 1,12,-1
 377 700 l 1,13,-1
 530 0 l 1,14,-1
 389 0 l 1,7,-1
EndSplineSet
Position2: "'cpsp' Capital Spacing in Latin lookup 0 subtable" dx=5 dy=0 dh=10 dv=0
EndChar

StartChar: Acircumflex
Encoding: 194 194 172
Width: 545
Flags: W
LayerCount: 2
Fore
SplineSet
319 730 m 1,0,-1
 279 791 l 1,1,-1
 239 730 l 1,2,-1
 93 730 l 1,3,-1
 203 845 l 1,4,-1
 355 845 l 1,5,-1
 466 730 l 1,6,-1
 319 730 l 1,0,-1
273 612 m 1,7,-1
 213 281 l 1,8,-1
 335 281 l 1,9,-1
 273 612 l 1,7,-1
389 0 m 1,10,-1
 357 163 l 1,11,-1
 190 163 l 1,12,-1
 158 0 l 1,13,-1
 15 0 l 1,14,-1
 175 700 l 1,15,-1
 377 700 l 1,16,-1
 530 0 l 1,17,-1
 389 0 l 1,10,-1
EndSplineSet
Position2: "'cpsp' Capital Spacing in Latin lookup 0 subtable" dx=5 dy=0 dh=10 dv=0
EndChar

StartChar: Adieresis
Encoding: 196 196 173
Width: 545
Flags: W
LayerCount: 2
Fore
SplineSet
273 612 m 1,0,-1
 213 281 l 1,1,-1
 335 281 l 1,2,-1
 273 612 l 1,0,-1
389 0 m 1,3,-1
 357 163 l 1,4,-1
 190 163 l 1,5,-1
 158 0 l 1,6,-1
 15 0 l 1,7,-1
 175 700 l 1,8,-1
 377 700 l 1,9,-1
 530 0 l 1,10,-1
 389 0 l 1,3,-1
311 730 m 1,11,-1
 311 845 l 1,12,-1
 441 845 l 1,13,-1
 441 730 l 1,14,-1
 311 730 l 1,11,-1
111 730 m 1,15,-1
 111 845 l 1,16,-1
 241 845 l 1,17,-1
 241 730 l 1,18,-1
 111 730 l 1,15,-1
EndSplineSet
Position2: "'cpsp' Capital Spacing in Latin lookup 0 subtable" dx=5 dy=0 dh=10 dv=0
EndChar

StartChar: Agrave
Encoding: 192 192 174
Width: 545
Flags: W
LayerCount: 2
Fore
SplineSet
247 726 m 1,0,-1
 95 841 l 1,1,-1
 256 841 l 1,2,-1
 360 726 l 1,3,-1
 247 726 l 1,0,-1
273 612 m 1,4,-1
 213 281 l 1,5,-1
 335 281 l 1,6,-1
 273 612 l 1,4,-1
389 0 m 1,7,-1
 357 163 l 1,8,-1
 190 163 l 1,9,-1
 158 0 l 1,10,-1
 15 0 l 1,11,-1
 175 700 l 1,12,-1
 377 700 l 1,13,-1
 530 0 l 1,14,-1
 389 0 l 1,7,-1
EndSplineSet
Position2: "'cpsp' Capital Spacing in Latin lookup 0 subtable" dx=5 dy=0 dh=10 dv=0
EndChar

StartChar: Aring
Encoding: 197 197 175
Width: 545
Flags: W
LayerCount: 2
Fore
SplineSet
392 763 m 0,0,1
 392 722 392 722 378 694 c 1,2,-1
 530 0 l 1,3,-1
 389 0 l 1,4,-1
 357 163 l 1,5,-1
 190 163 l 1,6,-1
 158 0 l 1,7,-1
 15 0 l 1,8,-1
 173 694 l 1,9,10
 160 720 160 720 160 763 c 0,11,12
 160 821 160 821 188 853 c 128,-1,13
 216 885 216 885 276 885 c 256,14,15
 336 885 336 885 364 853 c 128,-1,16
 392 821 392 821 392 763 c 0,0,1
273 612 m 1,17,-1
 213 281 l 1,18,-1
 335 281 l 1,19,-1
 273 612 l 1,17,-1
304 764 m 256,20,21
 304 789 304 789 299 801 c 128,-1,22
 294 813 294 813 276 813 c 256,23,24
 258 813 258 813 253 801 c 128,-1,25
 248 789 248 789 248 764 c 256,26,27
 248 739 248 739 253 727 c 128,-1,28
 258 715 258 715 276 715 c 0,29,30
 293 715 293 715 298.5 727 c 128,-1,31
 304 739 304 739 304 764 c 256,20,21
EndSplineSet
Position2: "'cpsp' Capital Spacing in Latin lookup 0 subtable" dx=5 dy=0 dh=10 dv=0
EndChar

StartChar: Atilde
Encoding: 195 195 176
Width: 545
Flags: W
LayerCount: 2
Fore
SplineSet
273 612 m 1,0,-1
 213 281 l 1,1,-1
 335 281 l 1,2,-1
 273 612 l 1,0,-1
389 0 m 1,3,-1
 357 163 l 1,4,-1
 190 163 l 1,5,-1
 158 0 l 1,6,-1
 15 0 l 1,7,-1
 175 700 l 1,8,-1
 377 700 l 1,9,-1
 530 0 l 1,10,-1
 389 0 l 1,3,-1
116 827 m 1,11,12
 139 846 139 846 165.5 853 c 128,-1,13
 192 860 192 860 212 860 c 0,14,15
 230 860 230 860 249 854 c 128,-1,16
 268 848 268 848 287 840.5 c 128,-1,17
 306 833 306 833 323.5 827 c 128,-1,18
 341 821 341 821 356 821 c 0,19,20
 382 821 382 821 404 830.5 c 128,-1,21
 426 840 426 840 446 857 c 1,22,-1
 446 753 l 1,23,24
 426 734 426 734 401 727 c 128,-1,25
 376 720 376 720 350 720 c 0,26,27
 331 720 331 720 312.5 726 c 128,-1,28
 294 732 294 732 275.5 739.5 c 128,-1,29
 257 747 257 747 239.5 753 c 128,-1,30
 222 759 222 759 206 759 c 0,31,32
 180 759 180 759 156 748 c 128,-1,33
 132 737 132 737 116 723 c 1,34,-1
 116 827 l 1,11,12
EndSplineSet
Position2: "'cpsp' Capital Spacing in Latin lookup 0 subtable" dx=5 dy=0 dh=10 dv=0
EndChar

StartChar: Ccedilla
Encoding: 199 199 177
Width: 433
Flags: W
LayerCount: 2
Fore
SplineSet
181 -127 m 1,0,1
 195 -129 195 -129 209.5 -130.5 c 128,-1,2
 224 -132 224 -132 235 -132 c 0,3,4
 258 -132 258 -132 266.5 -127.5 c 128,-1,5
 275 -123 275 -123 275 -109 c 0,6,7
 275 -96 275 -96 258 -91 c 128,-1,8
 241 -86 241 -86 192 -86 c 1,9,-1
 205 -1 l 1,10,11
 165 7 165 7 136 28.5 c 128,-1,12
 107 50 107 50 88 92 c 128,-1,13
 69 134 69 134 59.5 199.5 c 128,-1,14
 50 265 50 265 50 361 c 0,15,16
 50 475 50 475 65 543.5 c 128,-1,17
 80 612 80 612 110 648 c 128,-1,18
 140 684 140 684 184 695.5 c 128,-1,19
 228 707 228 707 285 707 c 0,20,21
 295 707 295 707 311 705.5 c 128,-1,22
 327 704 327 704 343.5 702 c 128,-1,23
 360 700 360 700 373.5 697.5 c 128,-1,24
 387 695 387 695 393 693 c 1,25,-1
 393 572 l 1,26,27
 368 578 368 578 333.5 582.5 c 128,-1,28
 299 587 299 587 272 587 c 0,29,30
 250 587 250 587 234.5 579.5 c 128,-1,31
 219 572 219 572 209 548 c 128,-1,32
 199 524 199 524 194 478 c 128,-1,33
 189 432 189 432 189 354 c 256,34,35
 189 276 189 276 193.5 229 c 128,-1,36
 198 182 198 182 207.5 156 c 128,-1,37
 217 130 217 130 233 121.5 c 128,-1,38
 249 113 249 113 272 113 c 0,39,40
 303 113 303 113 338.5 118 c 128,-1,41
 374 123 374 123 393 128 c 1,42,-1
 393 8 l 1,43,44
 380 4 380 4 353 0.5 c 128,-1,45
 326 -3 326 -3 301 -5 c 1,46,-1
 299 -19 l 1,47,48
 344 -24 344 -24 364.5 -50 c 128,-1,49
 385 -76 385 -76 385 -113 c 0,50,51
 385 -137 385 -137 378.5 -157 c 128,-1,52
 372 -177 372 -177 357 -191.5 c 128,-1,53
 342 -206 342 -206 317.5 -214 c 128,-1,54
 293 -222 293 -222 257 -222 c 0,55,56
 240 -222 240 -222 217.5 -219.5 c 128,-1,57
 195 -217 195 -217 181 -214 c 1,58,-1
 181 -127 l 1,0,1
EndSplineSet
Position2: "'cpsp' Capital Spacing in Latin lookup 0 subtable" dx=5 dy=0 dh=10 dv=0
EndChar

StartChar: Eacute
Encoding: 201 201 178
Width: 478
Flags: W
LayerCount: 2
Fore
SplineSet
149 726 m 1,0,-1
 253 841 l 1,1,-1
 414 841 l 1,2,-1
 262 726 l 1,3,-1
 149 726 l 1,0,-1
70 0 m 1,4,-1
 70 700 l 1,5,-1
 428 700 l 1,6,-1
 428 592 l 1,7,-1
 207 592 l 1,8,-1
 207 415 l 1,9,-1
 403 415 l 1,10,-1
 403 308 l 1,11,-1
 207 308 l 1,12,-1
 207 108 l 1,13,-1
 428 108 l 1,14,-1
 428 0 l 1,15,-1
 70 0 l 1,4,-1
EndSplineSet
Position2: "'cpsp' Capital Spacing in Latin lookup 0 subtable" dx=5 dy=0 dh=10 dv=0
EndChar

StartChar: Ecircumflex
Encoding: 202 202 179
Width: 478
Flags: W
LayerCount: 2
Fore
SplineSet
289 730 m 1,0,-1
 249 791 l 1,1,-1
 209 730 l 1,2,-1
 63 730 l 1,3,-1
 173 845 l 1,4,-1
 325 845 l 1,5,-1
 436 730 l 1,6,-1
 289 730 l 1,0,-1
70 0 m 1,7,-1
 70 700 l 1,8,-1
 428 700 l 1,9,-1
 428 592 l 1,10,-1
 207 592 l 1,11,-1
 207 415 l 1,12,-1
 403 415 l 1,13,-1
 403 308 l 1,14,-1
 207 308 l 1,15,-1
 207 108 l 1,16,-1
 428 108 l 1,17,-1
 428 0 l 1,18,-1
 70 0 l 1,7,-1
EndSplineSet
Position2: "'cpsp' Capital Spacing in Latin lookup 0 subtable" dx=5 dy=0 dh=10 dv=0
EndChar

StartChar: Edieresis
Encoding: 203 203 180
Width: 478
Flags: W
LayerCount: 2
Fore
SplineSet
70 0 m 1,0,-1
 70 700 l 1,1,-1
 428 700 l 1,2,-1
 428 592 l 1,3,-1
 207 592 l 1,4,-1
 207 415 l 1,5,-1
 403 415 l 1,6,-1
 403 308 l 1,7,-1
 207 308 l 1,8,-1
 207 108 l 1,9,-1
 428 108 l 1,10,-1
 428 0 l 1,11,-1
 70 0 l 1,0,-1
285 720 m 1,12,-1
 285 835 l 1,13,-1
 415 835 l 1,14,-1
 415 720 l 1,15,-1
 285 720 l 1,12,-1
85 720 m 1,16,-1
 85 835 l 1,17,-1
 215 835 l 1,18,-1
 215 720 l 1,19,-1
 85 720 l 1,16,-1
EndSplineSet
Position2: "'cpsp' Capital Spacing in Latin lookup 0 subtable" dx=5 dy=0 dh=10 dv=0
EndChar

StartChar: Egrave
Encoding: 200 200 181
Width: 478
Flags: W
LayerCount: 2
Fore
SplineSet
249 726 m 1,0,-1
 97 841 l 1,1,-1
 258 841 l 1,2,-1
 362 726 l 1,3,-1
 249 726 l 1,0,-1
70 0 m 1,4,-1
 70 700 l 1,5,-1
 428 700 l 1,6,-1
 428 592 l 1,7,-1
 207 592 l 1,8,-1
 207 415 l 1,9,-1
 403 415 l 1,10,-1
 403 308 l 1,11,-1
 207 308 l 1,12,-1
 207 108 l 1,13,-1
 428 108 l 1,14,-1
 428 0 l 1,15,-1
 70 0 l 1,4,-1
EndSplineSet
Position2: "'cpsp' Capital Spacing in Latin lookup 0 subtable" dx=5 dy=0 dh=10 dv=0
EndChar

StartChar: Iacute
Encoding: 205 205 182
Width: 347
Flags: W
LayerCount: 2
Fore
SplineSet
55 726 m 1,0,-1
 159 841 l 1,1,-1
 320 841 l 1,2,-1
 168 726 l 1,3,-1
 55 726 l 1,0,-1
35 0 m 1,4,-1
 35 106 l 1,5,-1
 105 106 l 1,6,-1
 105 594 l 1,7,-1
 35 594 l 1,8,-1
 35 700 l 1,9,-1
 312 700 l 1,10,-1
 312 594 l 1,11,-1
 242 594 l 1,12,-1
 242 106 l 1,13,-1
 312 106 l 1,14,-1
 312 0 l 1,15,-1
 35 0 l 1,4,-1
EndSplineSet
Position2: "'cpsp' Capital Spacing in Latin lookup 0 subtable" dx=5 dy=0 dh=10 dv=0
EndChar

StartChar: Icircumflex
Encoding: 206 206 183
Width: 347
Flags: W
LayerCount: 2
Fore
SplineSet
213 730 m 1,0,-1
 173 791 l 1,1,-1
 133 730 l 1,2,-1
 -13 730 l 1,3,-1
 97 845 l 1,4,-1
 249 845 l 1,5,-1
 360 730 l 1,6,-1
 213 730 l 1,0,-1
35 0 m 1,7,-1
 35 106 l 1,8,-1
 105 106 l 1,9,-1
 105 594 l 1,10,-1
 35 594 l 1,11,-1
 35 700 l 1,12,-1
 312 700 l 1,13,-1
 312 594 l 1,14,-1
 242 594 l 1,15,-1
 242 106 l 1,16,-1
 312 106 l 1,17,-1
 312 0 l 1,18,-1
 35 0 l 1,7,-1
EndSplineSet
Position2: "'cpsp' Capital Spacing in Latin lookup 0 subtable" dx=5 dy=0 dh=10 dv=0
EndChar

StartChar: Idieresis
Encoding: 207 207 184
Width: 347
Flags: W
LayerCount: 2
Fore
SplineSet
35 0 m 1,0,-1
 35 106 l 1,1,-1
 105 106 l 1,2,-1
 105 594 l 1,3,-1
 35 594 l 1,4,-1
 35 700 l 1,5,-1
 312 700 l 1,6,-1
 312 594 l 1,7,-1
 242 594 l 1,8,-1
 242 106 l 1,9,-1
 312 106 l 1,10,-1
 312 0 l 1,11,-1
 35 0 l 1,0,-1
209 720 m 1,12,-1
 209 835 l 1,13,-1
 339 835 l 1,14,-1
 339 720 l 1,15,-1
 209 720 l 1,12,-1
9 720 m 1,16,-1
 9 835 l 1,17,-1
 139 835 l 1,18,-1
 139 720 l 1,19,-1
 9 720 l 1,16,-1
EndSplineSet
Position2: "'cpsp' Capital Spacing in Latin lookup 0 subtable" dx=5 dy=0 dh=10 dv=0
EndChar

StartChar: Igrave
Encoding: 204 204 185
Width: 347
Flags: W
LayerCount: 2
Fore
SplineSet
176 726 m 1,0,-1
 24 841 l 1,1,-1
 185 841 l 1,2,-1
 289 726 l 1,3,-1
 176 726 l 1,0,-1
35 0 m 1,4,-1
 35 106 l 1,5,-1
 105 106 l 1,6,-1
 105 594 l 1,7,-1
 35 594 l 1,8,-1
 35 700 l 1,9,-1
 312 700 l 1,10,-1
 312 594 l 1,11,-1
 242 594 l 1,12,-1
 242 106 l 1,13,-1
 312 106 l 1,14,-1
 312 0 l 1,15,-1
 35 0 l 1,4,-1
EndSplineSet
Position2: "'cpsp' Capital Spacing in Latin lookup 0 subtable" dx=5 dy=0 dh=10 dv=0
EndChar

StartChar: Ntilde
Encoding: 209 209 186
Width: 592
Flags: W
LayerCount: 2
Fore
SplineSet
323 0 m 1,0,-1
 191 562 l 1,1,-1
 191 0 l 1,2,-1
 70 0 l 1,3,-1
 70 700 l 1,4,-1
 269 700 l 1,5,-1
 403 127 l 1,6,-1
 403 700 l 1,7,-1
 522 700 l 1,8,-1
 522 0 l 1,9,-1
 323 0 l 1,0,-1
134 827 m 1,10,11
 157 846 157 846 183.5 853 c 128,-1,12
 210 860 210 860 230 860 c 0,13,14
 248 860 248 860 267 854 c 128,-1,15
 286 848 286 848 305 840.5 c 128,-1,16
 324 833 324 833 341.5 827 c 128,-1,17
 359 821 359 821 374 821 c 0,18,19
 400 821 400 821 422 830.5 c 128,-1,20
 444 840 444 840 464 857 c 1,21,-1
 464 753 l 1,22,23
 444 734 444 734 419 727 c 128,-1,24
 394 720 394 720 368 720 c 0,25,26
 349 720 349 720 330.5 726 c 128,-1,27
 312 732 312 732 293.5 739.5 c 128,-1,28
 275 747 275 747 257.5 753 c 128,-1,29
 240 759 240 759 224 759 c 0,30,31
 198 759 198 759 174 748 c 128,-1,32
 150 737 150 737 134 723 c 1,33,-1
 134 827 l 1,10,11
EndSplineSet
Position2: "'cpsp' Capital Spacing in Latin lookup 0 subtable" dx=5 dy=0 dh=10 dv=0
EndChar

StartChar: Oacute
Encoding: 211 211 187
Width: 568
Flags: W
LayerCount: 2
Fore
SplineSet
196 726 m 1,0,-1
 300 841 l 1,1,-1
 461 841 l 1,2,-1
 309 726 l 1,3,-1
 196 726 l 1,0,-1
379 353 m 0,4,5
 379 430 379 430 374 478.5 c 128,-1,6
 369 527 369 527 358 554.5 c 128,-1,7
 347 582 347 582 329 592 c 128,-1,8
 311 602 311 602 284 602 c 256,9,10
 257 602 257 602 239 592 c 128,-1,11
 221 582 221 582 210 554.5 c 128,-1,12
 199 527 199 527 194 478.5 c 128,-1,13
 189 430 189 430 189 353 c 0,14,15
 189 277 189 277 194 228 c 128,-1,16
 199 179 199 179 210 150 c 128,-1,17
 221 121 221 121 239 109.5 c 128,-1,18
 257 98 257 98 284 98 c 256,19,20
 311 98 311 98 329 109.5 c 128,-1,21
 347 121 347 121 358 150 c 128,-1,22
 369 179 369 179 374 228 c 128,-1,23
 379 277 379 277 379 353 c 0,4,5
518 358 m 0,24,25
 518 266 518 266 509.5 197 c 128,-1,26
 501 128 501 128 475.5 82 c 128,-1,27
 450 36 450 36 404 13 c 128,-1,28
 358 -10 358 -10 284 -10 c 256,29,30
 210 -10 210 -10 164 13 c 128,-1,31
 118 36 118 36 92.5 82 c 128,-1,32
 67 128 67 128 58.5 197 c 128,-1,33
 50 266 50 266 50 358 c 0,34,35
 50 446 50 446 59.5 512 c 128,-1,36
 69 578 69 578 95 622 c 128,-1,37
 121 666 121 666 166.5 688 c 128,-1,38
 212 710 212 710 284 710 c 256,39,40
 356 710 356 710 401.5 688 c 128,-1,41
 447 666 447 666 473 622 c 128,-1,42
 499 578 499 578 508.5 512 c 128,-1,43
 518 446 518 446 518 358 c 0,24,25
EndSplineSet
Position2: "'cpsp' Capital Spacing in Latin lookup 0 subtable" dx=5 dy=0 dh=10 dv=0
EndChar

StartChar: Ocircumflex
Encoding: 212 212 188
Width: 568
Flags: W
LayerCount: 2
Fore
SplineSet
324 730 m 1,0,-1
 284 791 l 1,1,-1
 244 730 l 1,2,-1
 98 730 l 1,3,-1
 208 845 l 1,4,-1
 360 845 l 1,5,-1
 471 730 l 1,6,-1
 324 730 l 1,0,-1
379 353 m 0,7,8
 379 430 379 430 374 478.5 c 128,-1,9
 369 527 369 527 358 554.5 c 128,-1,10
 347 582 347 582 329 592 c 128,-1,11
 311 602 311 602 284 602 c 256,12,13
 257 602 257 602 239 592 c 128,-1,14
 221 582 221 582 210 554.5 c 128,-1,15
 199 527 199 527 194 478.5 c 128,-1,16
 189 430 189 430 189 353 c 0,17,18
 189 277 189 277 194 228 c 128,-1,19
 199 179 199 179 210 150 c 128,-1,20
 221 121 221 121 239 109.5 c 128,-1,21
 257 98 257 98 284 98 c 256,22,23
 311 98 311 98 329 109.5 c 128,-1,24
 347 121 347 121 358 150 c 128,-1,25
 369 179 369 179 374 228 c 128,-1,26
 379 277 379 277 379 353 c 0,7,8
518 358 m 0,27,28
 518 266 518 266 509.5 197 c 128,-1,29
 501 128 501 128 475.5 82 c 128,-1,30
 450 36 450 36 404 13 c 128,-1,31
 358 -10 358 -10 284 -10 c 256,32,33
 210 -10 210 -10 164 13 c 128,-1,34
 118 36 118 36 92.5 82 c 128,-1,35
 67 128 67 128 58.5 197 c 128,-1,36
 50 266 50 266 50 358 c 0,37,38
 50 446 50 446 59.5 512 c 128,-1,39
 69 578 69 578 95 622 c 128,-1,40
 121 666 121 666 166.5 688 c 128,-1,41
 212 710 212 710 284 710 c 256,42,43
 356 710 356 710 401.5 688 c 128,-1,44
 447 666 447 666 473 622 c 128,-1,45
 499 578 499 578 508.5 512 c 128,-1,46
 518 446 518 446 518 358 c 0,27,28
EndSplineSet
Position2: "'cpsp' Capital Spacing in Latin lookup 0 subtable" dx=5 dy=0 dh=10 dv=0
EndChar

StartChar: Odieresis
Encoding: 214 214 189
Width: 568
Flags: W
LayerCount: 2
Fore
SplineSet
319 730 m 1,0,-1
 319 845 l 1,1,-1
 449 845 l 1,2,-1
 449 730 l 1,3,-1
 319 730 l 1,0,-1
119 730 m 1,4,-1
 119 845 l 1,5,-1
 249 845 l 1,6,-1
 249 730 l 1,7,-1
 119 730 l 1,4,-1
379 353 m 0,8,9
 379 430 379 430 374 478.5 c 128,-1,10
 369 527 369 527 358 554.5 c 128,-1,11
 347 582 347 582 329 592 c 128,-1,12
 311 602 311 602 284 602 c 256,13,14
 257 602 257 602 239 592 c 128,-1,15
 221 582 221 582 210 554.5 c 128,-1,16
 199 527 199 527 194 478.5 c 128,-1,17
 189 430 189 430 189 353 c 0,18,19
 189 277 189 277 194 228 c 128,-1,20
 199 179 199 179 210 150 c 128,-1,21
 221 121 221 121 239 109.5 c 128,-1,22
 257 98 257 98 284 98 c 256,23,24
 311 98 311 98 329 109.5 c 128,-1,25
 347 121 347 121 358 150 c 128,-1,26
 369 179 369 179 374 228 c 128,-1,27
 379 277 379 277 379 353 c 0,8,9
518 358 m 0,28,29
 518 266 518 266 509.5 197 c 128,-1,30
 501 128 501 128 475.5 82 c 128,-1,31
 450 36 450 36 404 13 c 128,-1,32
 358 -10 358 -10 284 -10 c 256,33,34
 210 -10 210 -10 164 13 c 128,-1,35
 118 36 118 36 92.5 82 c 128,-1,36
 67 128 67 128 58.5 197 c 128,-1,37
 50 266 50 266 50 358 c 0,38,39
 50 446 50 446 59.5 512 c 128,-1,40
 69 578 69 578 95 622 c 128,-1,41
 121 666 121 666 166.5 688 c 128,-1,42
 212 710 212 710 284 710 c 256,43,44
 356 710 356 710 401.5 688 c 128,-1,45
 447 666 447 666 473 622 c 128,-1,46
 499 578 499 578 508.5 512 c 128,-1,47
 518 446 518 446 518 358 c 0,28,29
EndSplineSet
Position2: "'cpsp' Capital Spacing in Latin lookup 0 subtable" dx=5 dy=0 dh=10 dv=0
EndChar

StartChar: Ograve
Encoding: 210 210 190
Width: 568
Flags: W
LayerCount: 2
Fore
SplineSet
253 726 m 1,0,-1
 101 841 l 1,1,-1
 262 841 l 1,2,-1
 366 726 l 1,3,-1
 253 726 l 1,0,-1
379 353 m 0,4,5
 379 430 379 430 374 478.5 c 128,-1,6
 369 527 369 527 358 554.5 c 128,-1,7
 347 582 347 582 329 592 c 128,-1,8
 311 602 311 602 284 602 c 256,9,10
 257 602 257 602 239 592 c 128,-1,11
 221 582 221 582 210 554.5 c 128,-1,12
 199 527 199 527 194 478.5 c 128,-1,13
 189 430 189 430 189 353 c 0,14,15
 189 277 189 277 194 228 c 128,-1,16
 199 179 199 179 210 150 c 128,-1,17
 221 121 221 121 239 109.5 c 128,-1,18
 257 98 257 98 284 98 c 256,19,20
 311 98 311 98 329 109.5 c 128,-1,21
 347 121 347 121 358 150 c 128,-1,22
 369 179 369 179 374 228 c 128,-1,23
 379 277 379 277 379 353 c 0,4,5
518 358 m 0,24,25
 518 266 518 266 509.5 197 c 128,-1,26
 501 128 501 128 475.5 82 c 128,-1,27
 450 36 450 36 404 13 c 128,-1,28
 358 -10 358 -10 284 -10 c 256,29,30
 210 -10 210 -10 164 13 c 128,-1,31
 118 36 118 36 92.5 82 c 128,-1,32
 67 128 67 128 58.5 197 c 128,-1,33
 50 266 50 266 50 358 c 0,34,35
 50 446 50 446 59.5 512 c 128,-1,36
 69 578 69 578 95 622 c 128,-1,37
 121 666 121 666 166.5 688 c 128,-1,38
 212 710 212 710 284 710 c 256,39,40
 356 710 356 710 401.5 688 c 128,-1,41
 447 666 447 666 473 622 c 128,-1,42
 499 578 499 578 508.5 512 c 128,-1,43
 518 446 518 446 518 358 c 0,24,25
EndSplineSet
Position2: "'cpsp' Capital Spacing in Latin lookup 0 subtable" dx=5 dy=0 dh=10 dv=0
EndChar

StartChar: Otilde
Encoding: 213 213 191
Width: 568
Flags: W
LayerCount: 2
Fore
SplineSet
379 353 m 0,0,1
 379 430 379 430 374 478.5 c 128,-1,2
 369 527 369 527 358 554.5 c 128,-1,3
 347 582 347 582 329 592 c 128,-1,4
 311 602 311 602 284 602 c 256,5,6
 257 602 257 602 239 592 c 128,-1,7
 221 582 221 582 210 554.5 c 128,-1,8
 199 527 199 527 194 478.5 c 128,-1,9
 189 430 189 430 189 353 c 0,10,11
 189 277 189 277 194 228 c 128,-1,12
 199 179 199 179 210 150 c 128,-1,13
 221 121 221 121 239 109.5 c 128,-1,14
 257 98 257 98 284 98 c 256,15,16
 311 98 311 98 329 109.5 c 128,-1,17
 347 121 347 121 358 150 c 128,-1,18
 369 179 369 179 374 228 c 128,-1,19
 379 277 379 277 379 353 c 0,0,1
518 358 m 0,20,21
 518 266 518 266 509.5 197 c 128,-1,22
 501 128 501 128 475.5 82 c 128,-1,23
 450 36 450 36 404 13 c 128,-1,24
 358 -10 358 -10 284 -10 c 256,25,26
 210 -10 210 -10 164 13 c 128,-1,27
 118 36 118 36 92.5 82 c 128,-1,28
 67 128 67 128 58.5 197 c 128,-1,29
 50 266 50 266 50 358 c 0,30,31
 50 446 50 446 59.5 512 c 128,-1,32
 69 578 69 578 95 622 c 128,-1,33
 121 666 121 666 166.5 688 c 128,-1,34
 212 710 212 710 284 710 c 256,35,36
 356 710 356 710 401.5 688 c 128,-1,37
 447 666 447 666 473 622 c 128,-1,38
 499 578 499 578 508.5 512 c 128,-1,39
 518 446 518 446 518 358 c 0,20,21
118 827 m 1,40,41
 141 846 141 846 167.5 853 c 128,-1,42
 194 860 194 860 214 860 c 0,43,44
 232 860 232 860 251 854 c 128,-1,45
 270 848 270 848 289 840.5 c 128,-1,46
 308 833 308 833 325.5 827 c 128,-1,47
 343 821 343 821 358 821 c 0,48,49
 384 821 384 821 406 830.5 c 128,-1,50
 428 840 428 840 448 857 c 1,51,-1
 448 753 l 1,52,53
 428 734 428 734 403 727 c 128,-1,54
 378 720 378 720 352 720 c 0,55,56
 333 720 333 720 314.5 726 c 128,-1,57
 296 732 296 732 277.5 739.5 c 128,-1,58
 259 747 259 747 241.5 753 c 128,-1,59
 224 759 224 759 208 759 c 0,60,61
 182 759 182 759 158 748 c 128,-1,62
 134 737 134 737 118 723 c 1,63,-1
 118 827 l 1,40,41
EndSplineSet
Position2: "'cpsp' Capital Spacing in Latin lookup 0 subtable" dx=5 dy=0 dh=10 dv=0
EndChar

StartChar: Scaron
Encoding: 352 352 192
Width: 424
Flags: W
LayerCount: 2
Fore
SplineSet
184 845 m 1,0,-1
 224 784 l 1,1,-1
 264 845 l 1,2,-1
 410 845 l 1,3,-1
 300 730 l 1,4,-1
 148 730 l 1,5,-1
 37 845 l 1,6,-1
 184 845 l 1,0,-1
404 208 m 0,7,8
 404 138 404 138 386.5 95.5 c 128,-1,9
 369 53 369 53 338.5 30 c 128,-1,10
 308 7 308 7 265.5 0 c 128,-1,11
 223 -7 223 -7 173 -7 c 0,12,13
 157 -7 157 -7 137.5 -6 c 128,-1,14
 118 -5 118 -5 98.5 -3 c 128,-1,15
 79 -1 79 -1 61.5 2 c 128,-1,16
 44 5 44 5 31 8 c 1,17,-1
 31 127 l 1,18,19
 43 124 43 124 59.5 121 c 128,-1,20
 76 118 76 118 94 116 c 128,-1,21
 112 114 112 114 130 112.5 c 128,-1,22
 148 111 148 111 163 111 c 0,23,24
 210 111 210 111 237.5 130.5 c 128,-1,25
 265 150 265 150 265 198 c 0,26,27
 265 225 265 225 259.5 244 c 128,-1,28
 254 263 254 263 243 275 c 128,-1,29
 232 287 232 287 216 294 c 128,-1,30
 200 301 200 301 180 305 c 0,31,32
 96 322 96 322 60.5 370 c 128,-1,33
 25 418 25 418 25 506 c 0,34,35
 25 562 25 562 40.5 600 c 128,-1,36
 56 638 56 638 86.5 662 c 128,-1,37
 117 686 117 686 161.5 696.5 c 128,-1,38
 206 707 206 707 263 707 c 0,39,40
 277 707 277 707 294 706 c 128,-1,41
 311 705 311 705 328 702.5 c 128,-1,42
 345 700 345 700 360.5 697.5 c 128,-1,43
 376 695 376 695 387 692 c 1,44,-1
 387 574 l 1,45,46
 374 577 374 577 356.5 579.5 c 128,-1,47
 339 582 339 582 320.5 584.5 c 128,-1,48
 302 587 302 587 284 588 c 128,-1,49
 266 589 266 589 253 589 c 0,50,51
 210 589 210 589 187 572 c 128,-1,52
 164 555 164 555 164 517 c 0,53,54
 164 493 164 493 167.5 477.5 c 128,-1,55
 171 462 171 462 180 452.5 c 128,-1,56
 189 443 189 443 204 437 c 128,-1,57
 219 431 219 431 243 426 c 0,58,59
 279 419 279 419 308.5 404.5 c 128,-1,60
 338 390 338 390 359.5 365 c 128,-1,61
 381 340 381 340 392.5 302 c 128,-1,62
 404 264 404 264 404 208 c 0,7,8
EndSplineSet
Position2: "'cpsp' Capital Spacing in Latin lookup 0 subtable" dx=5 dy=0 dh=10 dv=0
EndChar

StartChar: Uacute
Encoding: 218 218 193
Width: 555
Flags: W
LayerCount: 2
Fore
SplineSet
201 726 m 1,0,-1
 305 841 l 1,1,-1
 466 841 l 1,2,-1
 314 726 l 1,3,-1
 201 726 l 1,0,-1
490 215 m 2,4,5
 490 153 490 153 476 110.5 c 128,-1,6
 462 68 462 68 435 42 c 128,-1,7
 408 16 408 16 368.5 4.5 c 128,-1,8
 329 -7 329 -7 278 -7 c 256,9,10
 227 -7 227 -7 187.5 4.5 c 128,-1,11
 148 16 148 16 121 42 c 128,-1,12
 94 68 94 68 79.5 110.5 c 128,-1,13
 65 153 65 153 65 215 c 2,14,-1
 65 700 l 1,15,-1
 202 700 l 1,16,-1
 202 196 l 2,17,18
 202 111 202 111 278 111 c 0,19,20
 317 111 317 111 335 132.5 c 128,-1,21
 353 154 353 154 353 196 c 2,22,-1
 353 700 l 1,23,-1
 490 700 l 1,24,-1
 490 215 l 2,4,5
EndSplineSet
Position2: "'cpsp' Capital Spacing in Latin lookup 0 subtable" dx=5 dy=0 dh=10 dv=0
EndChar

StartChar: Ucircumflex
Encoding: 219 219 194
Width: 555
Flags: W
LayerCount: 2
Fore
SplineSet
316 730 m 1,0,-1
 276 791 l 1,1,-1
 236 730 l 1,2,-1
 90 730 l 1,3,-1
 200 845 l 1,4,-1
 352 845 l 1,5,-1
 463 730 l 1,6,-1
 316 730 l 1,0,-1
490 215 m 2,7,8
 490 153 490 153 476 110.5 c 128,-1,9
 462 68 462 68 435 42 c 128,-1,10
 408 16 408 16 368.5 4.5 c 128,-1,11
 329 -7 329 -7 278 -7 c 256,12,13
 227 -7 227 -7 187.5 4.5 c 128,-1,14
 148 16 148 16 121 42 c 128,-1,15
 94 68 94 68 79.5 110.5 c 128,-1,16
 65 153 65 153 65 215 c 2,17,-1
 65 700 l 1,18,-1
 202 700 l 1,19,-1
 202 196 l 2,20,21
 202 111 202 111 278 111 c 0,22,23
 317 111 317 111 335 132.5 c 128,-1,24
 353 154 353 154 353 196 c 2,25,-1
 353 700 l 1,26,-1
 490 700 l 1,27,-1
 490 215 l 2,7,8
EndSplineSet
Position2: "'cpsp' Capital Spacing in Latin lookup 0 subtable" dx=5 dy=0 dh=10 dv=0
EndChar

StartChar: Udieresis
Encoding: 220 220 195
Width: 555
Flags: W
LayerCount: 2
Fore
SplineSet
311 730 m 1,0,-1
 311 845 l 1,1,-1
 441 845 l 1,2,-1
 441 730 l 1,3,-1
 311 730 l 1,0,-1
111 730 m 1,4,-1
 111 845 l 1,5,-1
 241 845 l 1,6,-1
 241 730 l 1,7,-1
 111 730 l 1,4,-1
490 215 m 2,8,9
 490 153 490 153 476 110.5 c 128,-1,10
 462 68 462 68 435 42 c 128,-1,11
 408 16 408 16 368.5 4.5 c 128,-1,12
 329 -7 329 -7 278 -7 c 256,13,14
 227 -7 227 -7 187.5 4.5 c 128,-1,15
 148 16 148 16 121 42 c 128,-1,16
 94 68 94 68 79.5 110.5 c 128,-1,17
 65 153 65 153 65 215 c 2,18,-1
 65 700 l 1,19,-1
 202 700 l 1,20,-1
 202 196 l 2,21,22
 202 111 202 111 278 111 c 0,23,24
 317 111 317 111 335 132.5 c 128,-1,25
 353 154 353 154 353 196 c 2,26,-1
 353 700 l 1,27,-1
 490 700 l 1,28,-1
 490 215 l 2,8,9
EndSplineSet
Position2: "'cpsp' Capital Spacing in Latin lookup 0 subtable" dx=5 dy=0 dh=10 dv=0
EndChar

StartChar: Ugrave
Encoding: 217 217 196
Width: 555
Flags: W
LayerCount: 2
Fore
SplineSet
243 726 m 1,0,-1
 91 841 l 1,1,-1
 252 841 l 1,2,-1
 356 726 l 1,3,-1
 243 726 l 1,0,-1
490 215 m 2,4,5
 490 153 490 153 476 110.5 c 128,-1,6
 462 68 462 68 435 42 c 128,-1,7
 408 16 408 16 368.5 4.5 c 128,-1,8
 329 -7 329 -7 278 -7 c 256,9,10
 227 -7 227 -7 187.5 4.5 c 128,-1,11
 148 16 148 16 121 42 c 128,-1,12
 94 68 94 68 79.5 110.5 c 128,-1,13
 65 153 65 153 65 215 c 2,14,-1
 65 700 l 1,15,-1
 202 700 l 1,16,-1
 202 196 l 2,17,18
 202 111 202 111 278 111 c 0,19,20
 317 111 317 111 335 132.5 c 128,-1,21
 353 154 353 154 353 196 c 2,22,-1
 353 700 l 1,23,-1
 490 700 l 1,24,-1
 490 215 l 2,4,5
EndSplineSet
Position2: "'cpsp' Capital Spacing in Latin lookup 0 subtable" dx=5 dy=0 dh=10 dv=0
EndChar

StartChar: Yacute
Encoding: 221 221 197
Width: 531
Flags: W
LayerCount: 2
Fore
SplineSet
196 726 m 1,0,-1
 300 841 l 1,1,-1
 461 841 l 1,2,-1
 309 726 l 1,3,-1
 196 726 l 1,0,-1
334 308 m 1,4,-1
 334 0 l 1,5,-1
 194 0 l 1,6,-1
 194 308 l 1,7,-1
 10 700 l 1,8,-1
 158 700 l 1,9,-1
 269 430 l 1,10,-1
 380 700 l 1,11,-1
 521 700 l 1,12,-1
 334 308 l 1,4,-1
EndSplineSet
Position2: "'cpsp' Capital Spacing in Latin lookup 0 subtable" dx=5 dy=0 dh=10 dv=0
EndChar

StartChar: Ydieresis
Encoding: 376 376 198
Width: 531
Flags: W
LayerCount: 2
Fore
SplineSet
334 308 m 1,0,-1
 334 0 l 1,1,-1
 194 0 l 1,2,-1
 194 308 l 1,3,-1
 10 700 l 1,4,-1
 158 700 l 1,5,-1
 269 430 l 1,6,-1
 380 700 l 1,7,-1
 521 700 l 1,8,-1
 334 308 l 1,0,-1
304 720 m 1,9,-1
 304 835 l 1,10,-1
 434 835 l 1,11,-1
 434 720 l 1,12,-1
 304 720 l 1,9,-1
104 720 m 1,13,-1
 104 835 l 1,14,-1
 234 835 l 1,15,-1
 234 720 l 1,16,-1
 104 720 l 1,13,-1
EndSplineSet
Position2: "'cpsp' Capital Spacing in Latin lookup 0 subtable" dx=5 dy=0 dh=10 dv=0
EndChar

StartChar: Zcaron
Encoding: 381 381 199
Width: 466
Flags: W
LayerCount: 2
Fore
SplineSet
207 845 m 1,0,-1
 247 784 l 1,1,-1
 287 845 l 1,2,-1
 433 845 l 1,3,-1
 323 730 l 1,4,-1
 171 730 l 1,5,-1
 60 845 l 1,6,-1
 207 845 l 1,0,-1
182 119 m 1,7,-1
 421 119 l 1,8,-1
 421 0 l 1,9,-1
 35 0 l 1,10,-1
 35 133 l 1,11,-1
 285 581 l 1,12,-1
 58 581 l 1,13,-1
 58 700 l 1,14,-1
 431 700 l 1,15,-1
 431 567 l 1,16,-1
 182 119 l 1,7,-1
EndSplineSet
Position2: "'cpsp' Capital Spacing in Latin lookup 0 subtable" dx=5 dy=0 dh=10 dv=0
EndChar

StartChar: aacute
Encoding: 225 225 200
Width: 509
Flags: W
LayerCount: 2
Fore
SplineSet
416 0 m 2,0,1
 396 0 396 0 370 8 c 128,-1,2
 344 16 344 16 330 41 c 1,3,4
 311 18 311 18 280 4.5 c 128,-1,5
 249 -9 249 -9 198 -9 c 0,6,7
 165 -9 165 -9 137 -1 c 128,-1,8
 109 7 109 7 88.5 25.5 c 128,-1,9
 68 44 68 44 56.5 74.5 c 128,-1,10
 45 105 45 105 45 151 c 0,11,12
 45 242 45 242 99.5 280 c 128,-1,13
 154 318 154 318 257 318 c 2,14,-1
 302 318 l 1,15,-1
 302 339 l 2,16,17
 302 368 302 368 287.5 383.5 c 128,-1,18
 273 399 273 399 235 399 c 0,19,20
 192 399 192 399 155.5 392.5 c 128,-1,21
 119 386 119 386 81 375 c 1,22,-1
 81 489 l 1,23,24
 95 493 95 493 114 496.5 c 128,-1,25
 133 500 133 500 153.5 503 c 128,-1,26
 174 506 174 506 195.5 507.5 c 128,-1,27
 217 509 217 509 235 509 c 0,28,29
 299 509 299 509 338 498.5 c 128,-1,30
 377 488 377 488 398.5 466 c 128,-1,31
 420 444 420 444 427.5 410 c 128,-1,32
 435 376 435 376 435 330 c 2,33,-1
 435 132 l 2,34,35
 435 117 435 117 443 108.5 c 128,-1,36
 451 100 451 100 474 100 c 1,37,-1
 474 0 l 1,38,-1
 416 0 l 2,0,1
236 103 m 0,39,40
 257 103 257 103 269.5 110.5 c 128,-1,41
 282 118 282 118 289.5 129 c 128,-1,42
 297 140 297 140 299.5 152.5 c 128,-1,43
 302 165 302 165 302 175 c 2,44,-1
 302 220 l 1,45,-1
 252 220 l 2,46,47
 220 220 220 220 200 206 c 128,-1,48
 180 192 180 192 180 158 c 0,49,50
 180 135 180 135 192.5 119 c 128,-1,51
 205 103 205 103 236 103 c 0,39,40
181 580 m 1,52,-1
 285 715 l 1,53,-1
 444 715 l 1,54,-1
 292 580 l 1,55,-1
 181 580 l 1,52,-1
EndSplineSet
EndChar

StartChar: acircumflex
Encoding: 226 226 201
Width: 509
Flags: W
LayerCount: 2
Fore
SplineSet
416 0 m 2,0,1
 396 0 396 0 370 8 c 128,-1,2
 344 16 344 16 330 41 c 1,3,4
 311 18 311 18 280 4.5 c 128,-1,5
 249 -9 249 -9 198 -9 c 0,6,7
 165 -9 165 -9 137 -1 c 128,-1,8
 109 7 109 7 88.5 25.5 c 128,-1,9
 68 44 68 44 56.5 74.5 c 128,-1,10
 45 105 45 105 45 151 c 0,11,12
 45 242 45 242 99.5 280 c 128,-1,13
 154 318 154 318 257 318 c 2,14,-1
 302 318 l 1,15,-1
 302 339 l 2,16,17
 302 368 302 368 287.5 383.5 c 128,-1,18
 273 399 273 399 235 399 c 0,19,20
 192 399 192 399 155.5 392.5 c 128,-1,21
 119 386 119 386 81 375 c 1,22,-1
 81 489 l 1,23,24
 95 493 95 493 114 496.5 c 128,-1,25
 133 500 133 500 153.5 503 c 128,-1,26
 174 506 174 506 195.5 507.5 c 128,-1,27
 217 509 217 509 235 509 c 0,28,29
 299 509 299 509 338 498.5 c 128,-1,30
 377 488 377 488 398.5 466 c 128,-1,31
 420 444 420 444 427.5 410 c 128,-1,32
 435 376 435 376 435 330 c 2,33,-1
 435 132 l 2,34,35
 435 117 435 117 443 108.5 c 128,-1,36
 451 100 451 100 474 100 c 1,37,-1
 474 0 l 1,38,-1
 416 0 l 2,0,1
236 103 m 0,39,40
 257 103 257 103 269.5 110.5 c 128,-1,41
 282 118 282 118 289.5 129 c 128,-1,42
 297 140 297 140 299.5 152.5 c 128,-1,43
 302 165 302 165 302 175 c 2,44,-1
 302 220 l 1,45,-1
 252 220 l 2,46,47
 220 220 220 220 200 206 c 128,-1,48
 180 192 180 192 180 158 c 0,49,50
 180 135 180 135 192.5 119 c 128,-1,51
 205 103 205 103 236 103 c 0,39,40
305 580 m 1,52,-1
 255 654 l 1,53,-1
 205 580 l 1,54,-1
 59 580 l 1,55,-1
 181 715 l 1,56,-1
 329 715 l 1,57,-1
 452 580 l 1,58,-1
 305 580 l 1,52,-1
EndSplineSet
EndChar

StartChar: adieresis
Encoding: 228 228 202
Width: 509
Flags: W
LayerCount: 2
Fore
SplineSet
416 0 m 2,0,1
 396 0 396 0 370 8 c 128,-1,2
 344 16 344 16 330 41 c 1,3,4
 311 18 311 18 280 4.5 c 128,-1,5
 249 -9 249 -9 198 -9 c 0,6,7
 165 -9 165 -9 137 -1 c 128,-1,8
 109 7 109 7 88.5 25.5 c 128,-1,9
 68 44 68 44 56.5 74.5 c 128,-1,10
 45 105 45 105 45 151 c 0,11,12
 45 242 45 242 99.5 280 c 128,-1,13
 154 318 154 318 257 318 c 2,14,-1
 302 318 l 1,15,-1
 302 339 l 2,16,17
 302 368 302 368 287.5 383.5 c 128,-1,18
 273 399 273 399 235 399 c 0,19,20
 192 399 192 399 155.5 392.5 c 128,-1,21
 119 386 119 386 81 375 c 1,22,-1
 81 489 l 1,23,24
 95 493 95 493 114 496.5 c 128,-1,25
 133 500 133 500 153.5 503 c 128,-1,26
 174 506 174 506 195.5 507.5 c 128,-1,27
 217 509 217 509 235 509 c 0,28,29
 299 509 299 509 338 498.5 c 128,-1,30
 377 488 377 488 398.5 466 c 128,-1,31
 420 444 420 444 427.5 410 c 128,-1,32
 435 376 435 376 435 330 c 2,33,-1
 435 132 l 2,34,35
 435 117 435 117 443 108.5 c 128,-1,36
 451 100 451 100 474 100 c 1,37,-1
 474 0 l 1,38,-1
 416 0 l 2,0,1
236 103 m 0,39,40
 257 103 257 103 269.5 110.5 c 128,-1,41
 282 118 282 118 289.5 129 c 128,-1,42
 297 140 297 140 299.5 152.5 c 128,-1,43
 302 165 302 165 302 175 c 2,44,-1
 302 220 l 1,45,-1
 252 220 l 2,46,47
 220 220 220 220 200 206 c 128,-1,48
 180 192 180 192 180 158 c 0,49,50
 180 135 180 135 192.5 119 c 128,-1,51
 205 103 205 103 236 103 c 0,39,40
293 560 m 1,52,-1
 293 675 l 1,53,-1
 423 675 l 1,54,-1
 423 560 l 1,55,-1
 293 560 l 1,52,-1
93 560 m 1,56,-1
 93 675 l 1,57,-1
 223 675 l 1,58,-1
 223 560 l 1,59,-1
 93 560 l 1,56,-1
EndSplineSet
EndChar

StartChar: agrave
Encoding: 224 224 203
Width: 509
Flags: W
LayerCount: 2
Fore
SplineSet
416 0 m 2,0,1
 396 0 396 0 370 8 c 128,-1,2
 344 16 344 16 330 41 c 1,3,4
 311 18 311 18 280 4.5 c 128,-1,5
 249 -9 249 -9 198 -9 c 0,6,7
 165 -9 165 -9 137 -1 c 128,-1,8
 109 7 109 7 88.5 25.5 c 128,-1,9
 68 44 68 44 56.5 74.5 c 128,-1,10
 45 105 45 105 45 151 c 0,11,12
 45 242 45 242 99.5 280 c 128,-1,13
 154 318 154 318 257 318 c 2,14,-1
 302 318 l 1,15,-1
 302 339 l 2,16,17
 302 368 302 368 287.5 383.5 c 128,-1,18
 273 399 273 399 235 399 c 0,19,20
 192 399 192 399 155.5 392.5 c 128,-1,21
 119 386 119 386 81 375 c 1,22,-1
 81 489 l 1,23,24
 95 493 95 493 114 496.5 c 128,-1,25
 133 500 133 500 153.5 503 c 128,-1,26
 174 506 174 506 195.5 507.5 c 128,-1,27
 217 509 217 509 235 509 c 0,28,29
 299 509 299 509 338 498.5 c 128,-1,30
 377 488 377 488 398.5 466 c 128,-1,31
 420 444 420 444 427.5 410 c 128,-1,32
 435 376 435 376 435 330 c 2,33,-1
 435 132 l 2,34,35
 435 117 435 117 443 108.5 c 128,-1,36
 451 100 451 100 474 100 c 1,37,-1
 474 0 l 1,38,-1
 416 0 l 2,0,1
236 103 m 0,39,40
 257 103 257 103 269.5 110.5 c 128,-1,41
 282 118 282 118 289.5 129 c 128,-1,42
 297 140 297 140 299.5 152.5 c 128,-1,43
 302 165 302 165 302 175 c 2,44,-1
 302 220 l 1,45,-1
 252 220 l 2,46,47
 220 220 220 220 200 206 c 128,-1,48
 180 192 180 192 180 158 c 0,49,50
 180 135 180 135 192.5 119 c 128,-1,51
 205 103 205 103 236 103 c 0,39,40
254 580 m 1,52,-1
 102 715 l 1,53,-1
 261 715 l 1,54,-1
 365 580 l 1,55,-1
 254 580 l 1,52,-1
EndSplineSet
EndChar

StartChar: aring
Encoding: 229 229 204
Width: 509
Flags: W
LayerCount: 2
Fore
SplineSet
279 646 m 256,0,1
 279 671 279 671 274 683 c 128,-1,2
 269 695 269 695 251 695 c 256,3,4
 233 695 233 695 228 683 c 128,-1,5
 223 671 223 671 223 646 c 256,6,7
 223 621 223 621 228 609 c 128,-1,8
 233 597 233 597 251 597 c 0,9,10
 268 597 268 597 273.5 609 c 128,-1,11
 279 621 279 621 279 646 c 256,0,1
367 645 m 256,12,13
 367 587 367 587 339.5 555 c 128,-1,14
 312 523 312 523 251 523 c 256,15,16
 190 523 190 523 162.5 555 c 128,-1,17
 135 587 135 587 135 645 c 256,18,19
 135 703 135 703 163 735 c 128,-1,20
 191 767 191 767 251 767 c 256,21,22
 311 767 311 767 339 735 c 128,-1,23
 367 703 367 703 367 645 c 256,12,13
416 0 m 2,24,25
 396 0 396 0 370 8 c 128,-1,26
 344 16 344 16 330 41 c 1,27,28
 311 18 311 18 280 4.5 c 128,-1,29
 249 -9 249 -9 198 -9 c 0,30,31
 165 -9 165 -9 137 -1 c 128,-1,32
 109 7 109 7 88.5 25.5 c 128,-1,33
 68 44 68 44 56.5 74.5 c 128,-1,34
 45 105 45 105 45 151 c 0,35,36
 45 242 45 242 99.5 280 c 128,-1,37
 154 318 154 318 257 318 c 2,38,-1
 302 318 l 1,39,-1
 302 339 l 2,40,41
 302 368 302 368 287.5 383.5 c 128,-1,42
 273 399 273 399 235 399 c 0,43,44
 192 399 192 399 155.5 392.5 c 128,-1,45
 119 386 119 386 81 375 c 1,46,-1
 81 489 l 1,47,48
 95 493 95 493 114 496.5 c 128,-1,49
 133 500 133 500 153.5 503 c 128,-1,50
 174 506 174 506 195.5 507.5 c 128,-1,51
 217 509 217 509 235 509 c 0,52,53
 299 509 299 509 338 498.5 c 128,-1,54
 377 488 377 488 398.5 466 c 128,-1,55
 420 444 420 444 427.5 410 c 128,-1,56
 435 376 435 376 435 330 c 2,57,-1
 435 132 l 2,58,59
 435 117 435 117 443 108.5 c 128,-1,60
 451 100 451 100 474 100 c 1,61,-1
 474 0 l 1,62,-1
 416 0 l 2,24,25
236 103 m 0,63,64
 257 103 257 103 269.5 110.5 c 128,-1,65
 282 118 282 118 289.5 129 c 128,-1,66
 297 140 297 140 299.5 152.5 c 128,-1,67
 302 165 302 165 302 175 c 2,68,-1
 302 220 l 1,69,-1
 252 220 l 2,70,71
 220 220 220 220 200 206 c 128,-1,72
 180 192 180 192 180 158 c 0,73,74
 180 135 180 135 192.5 119 c 128,-1,75
 205 103 205 103 236 103 c 0,63,64
EndSplineSet
EndChar

StartChar: atilde
Encoding: 227 227 205
Width: 509
Flags: W
LayerCount: 2
Fore
SplineSet
416 0 m 2,0,1
 396 0 396 0 370 8 c 128,-1,2
 344 16 344 16 330 41 c 1,3,4
 311 18 311 18 280 4.5 c 128,-1,5
 249 -9 249 -9 198 -9 c 0,6,7
 165 -9 165 -9 137 -1 c 128,-1,8
 109 7 109 7 88.5 25.5 c 128,-1,9
 68 44 68 44 56.5 74.5 c 128,-1,10
 45 105 45 105 45 151 c 0,11,12
 45 242 45 242 99.5 280 c 128,-1,13
 154 318 154 318 257 318 c 2,14,-1
 302 318 l 1,15,-1
 302 339 l 2,16,17
 302 368 302 368 287.5 383.5 c 128,-1,18
 273 399 273 399 235 399 c 0,19,20
 192 399 192 399 155.5 392.5 c 128,-1,21
 119 386 119 386 81 375 c 1,22,-1
 81 489 l 1,23,24
 95 493 95 493 114 496.5 c 128,-1,25
 133 500 133 500 153.5 503 c 128,-1,26
 174 506 174 506 195.5 507.5 c 128,-1,27
 217 509 217 509 235 509 c 0,28,29
 299 509 299 509 338 498.5 c 128,-1,30
 377 488 377 488 398.5 466 c 128,-1,31
 420 444 420 444 427.5 410 c 128,-1,32
 435 376 435 376 435 330 c 2,33,-1
 435 132 l 2,34,35
 435 117 435 117 443 108.5 c 128,-1,36
 451 100 451 100 474 100 c 1,37,-1
 474 0 l 1,38,-1
 416 0 l 2,0,1
236 103 m 0,39,40
 257 103 257 103 269.5 110.5 c 128,-1,41
 282 118 282 118 289.5 129 c 128,-1,42
 297 140 297 140 299.5 152.5 c 128,-1,43
 302 165 302 165 302 175 c 2,44,-1
 302 220 l 1,45,-1
 252 220 l 2,46,47
 220 220 220 220 200 206 c 128,-1,48
 180 192 180 192 180 158 c 0,49,50
 180 135 180 135 192.5 119 c 128,-1,51
 205 103 205 103 236 103 c 0,39,40
94 687 m 1,52,53
 117 706 117 706 143.5 713 c 128,-1,54
 170 720 170 720 190 720 c 0,55,56
 208 720 208 720 227 714 c 128,-1,57
 246 708 246 708 265 700.5 c 128,-1,58
 284 693 284 693 301.5 687 c 128,-1,59
 319 681 319 681 334 681 c 0,60,61
 360 681 360 681 382 690.5 c 128,-1,62
 404 700 404 700 424 717 c 1,63,-1
 424 613 l 1,64,65
 404 594 404 594 379 587 c 128,-1,66
 354 580 354 580 328 580 c 0,67,68
 309 580 309 580 290.5 586 c 128,-1,69
 272 592 272 592 253.5 599.5 c 128,-1,70
 235 607 235 607 217.5 613 c 128,-1,71
 200 619 200 619 184 619 c 0,72,73
 158 619 158 619 134 608 c 128,-1,74
 110 597 110 597 94 583 c 1,75,-1
 94 687 l 1,52,53
EndSplineSet
EndChar

StartChar: ccedilla
Encoding: 231 231 206
Width: 407
Flags: W
LayerCount: 2
Fore
SplineSet
161 -127 m 1,0,1
 175 -129 175 -129 189.5 -130.5 c 128,-1,2
 204 -132 204 -132 215 -132 c 0,3,4
 238 -132 238 -132 246.5 -127.5 c 128,-1,5
 255 -123 255 -123 255 -109 c 0,6,7
 255 -96 255 -96 238 -91 c 128,-1,8
 221 -86 221 -86 172 -86 c 1,9,-1
 185 -4 l 1,10,11
 152 2 152 2 127 17.5 c 128,-1,12
 102 33 102 33 84.5 63.5 c 128,-1,13
 67 94 67 94 58.5 142 c 128,-1,14
 50 190 50 190 50 260 c 0,15,16
 50 394 50 394 102.5 451.5 c 128,-1,17
 155 509 155 509 253 509 c 0,18,19
 278 509 278 509 311.5 504.5 c 128,-1,20
 345 500 345 500 367 495 c 1,21,-1
 367 378 l 1,22,23
 353 381 353 381 341.5 383.5 c 128,-1,24
 330 386 330 386 318 388 c 128,-1,25
 306 390 306 390 292 391 c 128,-1,26
 278 392 278 392 259 392 c 0,27,28
 242 392 242 392 228.5 386 c 128,-1,29
 215 380 215 380 206 363.5 c 128,-1,30
 197 347 197 347 192 317.5 c 128,-1,31
 187 288 187 288 187 240 c 0,32,33
 187 165 187 165 204.5 136.5 c 128,-1,34
 222 108 222 108 257 108 c 0,35,36
 295 108 295 108 320 113 c 128,-1,37
 345 118 345 118 367 122 c 1,38,-1
 367 6 l 1,39,40
 349 1 349 1 326.5 -2.5 c 128,-1,41
 304 -6 304 -6 281 -8 c 1,42,-1
 279 -19 l 1,43,44
 324 -24 324 -24 344.5 -50 c 128,-1,45
 365 -76 365 -76 365 -113 c 0,46,47
 365 -137 365 -137 358.5 -157 c 128,-1,48
 352 -177 352 -177 337 -191.5 c 128,-1,49
 322 -206 322 -206 297.5 -214 c 128,-1,50
 273 -222 273 -222 237 -222 c 0,51,52
 220 -222 220 -222 197.5 -219.5 c 128,-1,53
 175 -217 175 -217 161 -214 c 1,54,-1
 161 -127 l 1,0,1
EndSplineSet
EndChar

StartChar: eacute
Encoding: 233 233 207
Width: 489
Flags: W
LayerCount: 2
Fore
SplineSet
185 201 m 1,0,1
 188 146 188 146 205.5 125.5 c 128,-1,2
 223 105 223 105 268 105 c 0,3,4
 310 105 310 105 347.5 110 c 128,-1,5
 385 115 385 115 407 120 c 1,6,-1
 407 8 l 1,7,8
 395 5 395 5 377 1.5 c 128,-1,9
 359 -2 359 -2 339 -4 c 128,-1,10
 319 -6 319 -6 300.5 -7.5 c 128,-1,11
 282 -9 282 -9 268 -9 c 0,12,13
 214 -9 214 -9 173 0 c 128,-1,14
 132 9 132 9 104.5 37 c 128,-1,15
 77 65 77 65 63.5 115.5 c 128,-1,16
 50 166 50 166 50 250 c 0,17,18
 50 319 50 319 63.5 368.5 c 128,-1,19
 77 418 77 418 103.5 449 c 128,-1,20
 130 480 130 480 168 494.5 c 128,-1,21
 206 509 206 509 255 509 c 0,22,23
 312 509 312 509 348.5 494 c 128,-1,24
 385 479 385 479 406 450.5 c 128,-1,25
 427 422 427 422 435.5 380 c 128,-1,26
 444 338 444 338 444 285 c 2,27,-1
 444 201 l 1,28,-1
 185 201 l 1,0,1
253 399 m 0,29,30
 222 399 222 399 206.5 377 c 128,-1,31
 191 355 191 355 186 299 c 1,32,-1
 316 299 l 1,33,-1
 316 325 l 2,34,35
 316 362 316 362 301 380.5 c 128,-1,36
 286 399 286 399 253 399 c 0,29,30
162 580 m 1,37,-1
 266 715 l 1,38,-1
 425 715 l 1,39,-1
 273 580 l 1,40,-1
 162 580 l 1,37,-1
EndSplineSet
EndChar

StartChar: ecircumflex
Encoding: 234 234 208
Width: 489
Flags: W
LayerCount: 2
Fore
SplineSet
185 201 m 1,0,1
 188 146 188 146 205.5 125.5 c 128,-1,2
 223 105 223 105 268 105 c 0,3,4
 310 105 310 105 347.5 110 c 128,-1,5
 385 115 385 115 407 120 c 1,6,-1
 407 8 l 1,7,8
 395 5 395 5 377 1.5 c 128,-1,9
 359 -2 359 -2 339 -4 c 128,-1,10
 319 -6 319 -6 300.5 -7.5 c 128,-1,11
 282 -9 282 -9 268 -9 c 0,12,13
 214 -9 214 -9 173 0 c 128,-1,14
 132 9 132 9 104.5 37 c 128,-1,15
 77 65 77 65 63.5 115.5 c 128,-1,16
 50 166 50 166 50 250 c 0,17,18
 50 319 50 319 63.5 368.5 c 128,-1,19
 77 418 77 418 103.5 449 c 128,-1,20
 130 480 130 480 168 494.5 c 128,-1,21
 206 509 206 509 255 509 c 0,22,23
 312 509 312 509 348.5 494 c 128,-1,24
 385 479 385 479 406 450.5 c 128,-1,25
 427 422 427 422 435.5 380 c 128,-1,26
 444 338 444 338 444 285 c 2,27,-1
 444 201 l 1,28,-1
 185 201 l 1,0,1
253 399 m 0,29,30
 222 399 222 399 206.5 377 c 128,-1,31
 191 355 191 355 186 299 c 1,32,-1
 316 299 l 1,33,-1
 316 325 l 2,34,35
 316 362 316 362 301 380.5 c 128,-1,36
 286 399 286 399 253 399 c 0,29,30
297 580 m 1,37,-1
 247 654 l 1,38,-1
 197 580 l 1,39,-1
 51 580 l 1,40,-1
 173 715 l 1,41,-1
 321 715 l 1,42,-1
 444 580 l 1,43,-1
 297 580 l 1,37,-1
EndSplineSet
EndChar

StartChar: edieresis
Encoding: 235 235 209
Width: 489
Flags: W
LayerCount: 2
Fore
SplineSet
185 201 m 1,0,1
 188 146 188 146 205.5 125.5 c 128,-1,2
 223 105 223 105 268 105 c 0,3,4
 310 105 310 105 347.5 110 c 128,-1,5
 385 115 385 115 407 120 c 1,6,-1
 407 8 l 1,7,8
 395 5 395 5 377 1.5 c 128,-1,9
 359 -2 359 -2 339 -4 c 128,-1,10
 319 -6 319 -6 300.5 -7.5 c 128,-1,11
 282 -9 282 -9 268 -9 c 0,12,13
 214 -9 214 -9 173 0 c 128,-1,14
 132 9 132 9 104.5 37 c 128,-1,15
 77 65 77 65 63.5 115.5 c 128,-1,16
 50 166 50 166 50 250 c 0,17,18
 50 319 50 319 63.5 368.5 c 128,-1,19
 77 418 77 418 103.5 449 c 128,-1,20
 130 480 130 480 168 494.5 c 128,-1,21
 206 509 206 509 255 509 c 0,22,23
 312 509 312 509 348.5 494 c 128,-1,24
 385 479 385 479 406 450.5 c 128,-1,25
 427 422 427 422 435.5 380 c 128,-1,26
 444 338 444 338 444 285 c 2,27,-1
 444 201 l 1,28,-1
 185 201 l 1,0,1
253 399 m 0,29,30
 222 399 222 399 206.5 377 c 128,-1,31
 191 355 191 355 186 299 c 1,32,-1
 316 299 l 1,33,-1
 316 325 l 2,34,35
 316 362 316 362 301 380.5 c 128,-1,36
 286 399 286 399 253 399 c 0,29,30
289 560 m 1,37,-1
 289 675 l 1,38,-1
 419 675 l 1,39,-1
 419 560 l 1,40,-1
 289 560 l 1,37,-1
89 560 m 1,41,-1
 89 675 l 1,42,-1
 219 675 l 1,43,-1
 219 560 l 1,44,-1
 89 560 l 1,41,-1
EndSplineSet
EndChar

StartChar: egrave
Encoding: 232 232 210
Width: 489
Flags: W
LayerCount: 2
Fore
SplineSet
185 201 m 1,0,1
 188 146 188 146 205.5 125.5 c 128,-1,2
 223 105 223 105 268 105 c 0,3,4
 310 105 310 105 347.5 110 c 128,-1,5
 385 115 385 115 407 120 c 1,6,-1
 407 8 l 1,7,8
 395 5 395 5 377 1.5 c 128,-1,9
 359 -2 359 -2 339 -4 c 128,-1,10
 319 -6 319 -6 300.5 -7.5 c 128,-1,11
 282 -9 282 -9 268 -9 c 0,12,13
 214 -9 214 -9 173 0 c 128,-1,14
 132 9 132 9 104.5 37 c 128,-1,15
 77 65 77 65 63.5 115.5 c 128,-1,16
 50 166 50 166 50 250 c 0,17,18
 50 319 50 319 63.5 368.5 c 128,-1,19
 77 418 77 418 103.5 449 c 128,-1,20
 130 480 130 480 168 494.5 c 128,-1,21
 206 509 206 509 255 509 c 0,22,23
 312 509 312 509 348.5 494 c 128,-1,24
 385 479 385 479 406 450.5 c 128,-1,25
 427 422 427 422 435.5 380 c 128,-1,26
 444 338 444 338 444 285 c 2,27,-1
 444 201 l 1,28,-1
 185 201 l 1,0,1
253 399 m 0,29,30
 222 399 222 399 206.5 377 c 128,-1,31
 191 355 191 355 186 299 c 1,32,-1
 316 299 l 1,33,-1
 316 325 l 2,34,35
 316 362 316 362 301 380.5 c 128,-1,36
 286 399 286 399 253 399 c 0,29,30
248 580 m 1,37,-1
 96 715 l 1,38,-1
 255 715 l 1,39,-1
 359 580 l 1,40,-1
 248 580 l 1,37,-1
EndSplineSet
EndChar

StartChar: iacute
Encoding: 237 237 211
Width: 263
Flags: W
LayerCount: 2
Fore
SplineSet
65 0 m 1,0,-1
 65 500 l 1,1,-1
 198 500 l 1,2,-1
 198 0 l 1,3,-1
 65 0 l 1,0,-1
36 580 m 1,4,-1
 140 715 l 1,5,-1
 299 715 l 1,6,-1
 147 580 l 1,7,-1
 36 580 l 1,4,-1
EndSplineSet
EndChar

StartChar: icircumflex
Encoding: 238 238 212
Width: 263
Flags: W
LayerCount: 2
Fore
SplineSet
65 0 m 1,0,-1
 65 500 l 1,1,-1
 198 500 l 1,2,-1
 198 0 l 1,3,-1
 65 0 l 1,0,-1
181 580 m 1,4,-1
 131 654 l 1,5,-1
 81 580 l 1,6,-1
 -65 580 l 1,7,-1
 57 715 l 1,8,-1
 205 715 l 1,9,-1
 328 580 l 1,10,-1
 181 580 l 1,4,-1
EndSplineSet
EndChar

StartChar: idieresis
Encoding: 239 239 213
Width: 263
Flags: W
LayerCount: 2
Fore
SplineSet
65 0 m 1,0,-1
 65 500 l 1,1,-1
 198 500 l 1,2,-1
 198 0 l 1,3,-1
 65 0 l 1,0,-1
167 560 m 1,4,-1
 167 675 l 1,5,-1
 297 675 l 1,6,-1
 297 560 l 1,7,-1
 167 560 l 1,4,-1
-33 560 m 1,8,-1
 -33 675 l 1,9,-1
 97 675 l 1,10,-1
 97 560 l 1,11,-1
 -33 560 l 1,8,-1
EndSplineSet
EndChar

StartChar: igrave
Encoding: 236 236 214
Width: 263
Flags: W
LayerCount: 2
Fore
SplineSet
65 0 m 1,0,-1
 65 500 l 1,1,-1
 198 500 l 1,2,-1
 198 0 l 1,3,-1
 65 0 l 1,0,-1
113 580 m 1,4,-1
 -39 715 l 1,5,-1
 120 715 l 1,6,-1
 224 580 l 1,7,-1
 113 580 l 1,4,-1
EndSplineSet
EndChar

StartChar: ntilde
Encoding: 241 241 215
Width: 524
Flags: W
LayerCount: 2
Fore
SplineSet
65 0 m 1,0,-1
 65 500 l 1,1,-1
 173 500 l 1,2,-1
 182 461 l 1,3,4
 205 483 205 483 235 496 c 128,-1,5
 265 509 265 509 302 509 c 0,6,7
 354 509 354 509 385.5 497 c 128,-1,8
 417 485 417 485 434.5 460 c 128,-1,9
 452 435 452 435 458 398 c 128,-1,10
 464 361 464 361 464 310 c 2,11,-1
 464 0 l 1,12,-1
 331 0 l 1,13,-1
 331 313 l 2,14,15
 331 363 331 363 316.5 378.5 c 128,-1,16
 302 394 302 394 275 394 c 0,17,18
 237 394 237 394 218.5 372 c 128,-1,19
 200 350 200 350 198 324 c 1,20,-1
 198 0 l 1,21,-1
 65 0 l 1,0,-1
117 687 m 1,22,23
 140 706 140 706 166.5 713 c 128,-1,24
 193 720 193 720 213 720 c 0,25,26
 231 720 231 720 250 714 c 128,-1,27
 269 708 269 708 288 700.5 c 128,-1,28
 307 693 307 693 324.5 687 c 128,-1,29
 342 681 342 681 357 681 c 0,30,31
 383 681 383 681 405 690.5 c 128,-1,32
 427 700 427 700 447 717 c 1,33,-1
 447 613 l 1,34,35
 427 594 427 594 402 587 c 128,-1,36
 377 580 377 580 351 580 c 0,37,38
 332 580 332 580 313.5 586 c 128,-1,39
 295 592 295 592 276.5 599.5 c 128,-1,40
 258 607 258 607 240.5 613 c 128,-1,41
 223 619 223 619 207 619 c 0,42,43
 181 619 181 619 157 608 c 128,-1,44
 133 597 133 597 117 583 c 1,45,-1
 117 687 l 1,22,23
EndSplineSet
EndChar

StartChar: oacute
Encoding: 243 243 216
Width: 530
Flags: W
LayerCount: 2
Fore
SplineSet
480 260 m 0,0,1
 480 181 480 181 466 129.5 c 128,-1,2
 452 78 452 78 425 47.5 c 128,-1,3
 398 17 398 17 357.5 5 c 128,-1,4
 317 -7 317 -7 264 -7 c 256,5,6
 211 -7 211 -7 171 5 c 128,-1,7
 131 17 131 17 104 47.5 c 128,-1,8
 77 78 77 78 63.5 129.5 c 128,-1,9
 50 181 50 181 50 260 c 0,10,11
 50 388 50 388 100.5 447.5 c 128,-1,12
 151 507 151 507 264 507 c 256,13,14
 377 507 377 507 428.5 447.5 c 128,-1,15
 480 388 480 388 480 260 c 0,0,1
344 245 m 0,16,17
 344 289 344 289 340 318.5 c 128,-1,18
 336 348 336 348 326.5 366 c 128,-1,19
 317 384 317 384 302 391.5 c 128,-1,20
 287 399 287 399 264 399 c 0,21,22
 242 399 242 399 227 391.5 c 128,-1,23
 212 384 212 384 203 366 c 128,-1,24
 194 348 194 348 190 318.5 c 128,-1,25
 186 289 186 289 186 245 c 0,26,27
 186 203 186 203 189.5 175.5 c 128,-1,28
 193 148 193 148 202 131.5 c 128,-1,29
 211 115 211 115 226 108 c 128,-1,30
 241 101 241 101 264 101 c 256,31,32
 287 101 287 101 302.5 108 c 128,-1,33
 318 115 318 115 327 131.5 c 128,-1,34
 336 148 336 148 340 175.5 c 128,-1,35
 344 203 344 203 344 245 c 0,16,17
170 580 m 1,36,-1
 274 715 l 1,37,-1
 433 715 l 1,38,-1
 281 580 l 1,39,-1
 170 580 l 1,36,-1
EndSplineSet
EndChar

StartChar: ocircumflex
Encoding: 244 244 217
Width: 530
Flags: W
LayerCount: 2
Fore
SplineSet
480 260 m 0,0,1
 480 181 480 181 466 129.5 c 128,-1,2
 452 78 452 78 425 47.5 c 128,-1,3
 398 17 398 17 357.5 5 c 128,-1,4
 317 -7 317 -7 264 -7 c 256,5,6
 211 -7 211 -7 171 5 c 128,-1,7
 131 17 131 17 104 47.5 c 128,-1,8
 77 78 77 78 63.5 129.5 c 128,-1,9
 50 181 50 181 50 260 c 0,10,11
 50 388 50 388 100.5 447.5 c 128,-1,12
 151 507 151 507 264 507 c 256,13,14
 377 507 377 507 428.5 447.5 c 128,-1,15
 480 388 480 388 480 260 c 0,0,1
344 245 m 0,16,17
 344 289 344 289 340 318.5 c 128,-1,18
 336 348 336 348 326.5 366 c 128,-1,19
 317 384 317 384 302 391.5 c 128,-1,20
 287 399 287 399 264 399 c 0,21,22
 242 399 242 399 227 391.5 c 128,-1,23
 212 384 212 384 203 366 c 128,-1,24
 194 348 194 348 190 318.5 c 128,-1,25
 186 289 186 289 186 245 c 0,26,27
 186 203 186 203 189.5 175.5 c 128,-1,28
 193 148 193 148 202 131.5 c 128,-1,29
 211 115 211 115 226 108 c 128,-1,30
 241 101 241 101 264 101 c 256,31,32
 287 101 287 101 302.5 108 c 128,-1,33
 318 115 318 115 327 131.5 c 128,-1,34
 336 148 336 148 340 175.5 c 128,-1,35
 344 203 344 203 344 245 c 0,16,17
315 580 m 1,36,-1
 265 654 l 1,37,-1
 215 580 l 1,38,-1
 69 580 l 1,39,-1
 191 715 l 1,40,-1
 339 715 l 1,41,-1
 462 580 l 1,42,-1
 315 580 l 1,36,-1
EndSplineSet
EndChar

StartChar: odieresis
Encoding: 246 246 218
Width: 530
Flags: W
LayerCount: 2
Fore
SplineSet
480 260 m 0,0,1
 480 181 480 181 466 129.5 c 128,-1,2
 452 78 452 78 425 47.5 c 128,-1,3
 398 17 398 17 357.5 5 c 128,-1,4
 317 -7 317 -7 264 -7 c 256,5,6
 211 -7 211 -7 171 5 c 128,-1,7
 131 17 131 17 104 47.5 c 128,-1,8
 77 78 77 78 63.5 129.5 c 128,-1,9
 50 181 50 181 50 260 c 0,10,11
 50 388 50 388 100.5 447.5 c 128,-1,12
 151 507 151 507 264 507 c 256,13,14
 377 507 377 507 428.5 447.5 c 128,-1,15
 480 388 480 388 480 260 c 0,0,1
344 245 m 0,16,17
 344 289 344 289 340 318.5 c 128,-1,18
 336 348 336 348 326.5 366 c 128,-1,19
 317 384 317 384 302 391.5 c 128,-1,20
 287 399 287 399 264 399 c 0,21,22
 242 399 242 399 227 391.5 c 128,-1,23
 212 384 212 384 203 366 c 128,-1,24
 194 348 194 348 190 318.5 c 128,-1,25
 186 289 186 289 186 245 c 0,26,27
 186 203 186 203 189.5 175.5 c 128,-1,28
 193 148 193 148 202 131.5 c 128,-1,29
 211 115 211 115 226 108 c 128,-1,30
 241 101 241 101 264 101 c 256,31,32
 287 101 287 101 302.5 108 c 128,-1,33
 318 115 318 115 327 131.5 c 128,-1,34
 336 148 336 148 340 175.5 c 128,-1,35
 344 203 344 203 344 245 c 0,16,17
303 560 m 1,36,-1
 303 675 l 1,37,-1
 433 675 l 1,38,-1
 433 560 l 1,39,-1
 303 560 l 1,36,-1
103 560 m 1,40,-1
 103 675 l 1,41,-1
 233 675 l 1,42,-1
 233 560 l 1,43,-1
 103 560 l 1,40,-1
EndSplineSet
EndChar

StartChar: ograve
Encoding: 242 242 219
Width: 530
Flags: W
LayerCount: 2
Fore
SplineSet
480 260 m 0,0,1
 480 181 480 181 466 129.5 c 128,-1,2
 452 78 452 78 425 47.5 c 128,-1,3
 398 17 398 17 357.5 5 c 128,-1,4
 317 -7 317 -7 264 -7 c 256,5,6
 211 -7 211 -7 171 5 c 128,-1,7
 131 17 131 17 104 47.5 c 128,-1,8
 77 78 77 78 63.5 129.5 c 128,-1,9
 50 181 50 181 50 260 c 0,10,11
 50 388 50 388 100.5 447.5 c 128,-1,12
 151 507 151 507 264 507 c 256,13,14
 377 507 377 507 428.5 447.5 c 128,-1,15
 480 388 480 388 480 260 c 0,0,1
344 245 m 0,16,17
 344 289 344 289 340 318.5 c 128,-1,18
 336 348 336 348 326.5 366 c 128,-1,19
 317 384 317 384 302 391.5 c 128,-1,20
 287 399 287 399 264 399 c 0,21,22
 242 399 242 399 227 391.5 c 128,-1,23
 212 384 212 384 203 366 c 128,-1,24
 194 348 194 348 190 318.5 c 128,-1,25
 186 289 186 289 186 245 c 0,26,27
 186 203 186 203 189.5 175.5 c 128,-1,28
 193 148 193 148 202 131.5 c 128,-1,29
 211 115 211 115 226 108 c 128,-1,30
 241 101 241 101 264 101 c 256,31,32
 287 101 287 101 302.5 108 c 128,-1,33
 318 115 318 115 327 131.5 c 128,-1,34
 336 148 336 148 340 175.5 c 128,-1,35
 344 203 344 203 344 245 c 0,16,17
248 580 m 1,36,-1
 96 715 l 1,37,-1
 255 715 l 1,38,-1
 359 580 l 1,39,-1
 248 580 l 1,36,-1
EndSplineSet
EndChar

StartChar: otilde
Encoding: 245 245 220
Width: 530
Flags: W
LayerCount: 2
Fore
SplineSet
480 260 m 0,0,1
 480 181 480 181 466 129.5 c 128,-1,2
 452 78 452 78 425 47.5 c 128,-1,3
 398 17 398 17 357.5 5 c 128,-1,4
 317 -7 317 -7 264 -7 c 256,5,6
 211 -7 211 -7 171 5 c 128,-1,7
 131 17 131 17 104 47.5 c 128,-1,8
 77 78 77 78 63.5 129.5 c 128,-1,9
 50 181 50 181 50 260 c 0,10,11
 50 388 50 388 100.5 447.5 c 128,-1,12
 151 507 151 507 264 507 c 256,13,14
 377 507 377 507 428.5 447.5 c 128,-1,15
 480 388 480 388 480 260 c 0,0,1
344 245 m 0,16,17
 344 289 344 289 340 318.5 c 128,-1,18
 336 348 336 348 326.5 366 c 128,-1,19
 317 384 317 384 302 391.5 c 128,-1,20
 287 399 287 399 264 399 c 0,21,22
 242 399 242 399 227 391.5 c 128,-1,23
 212 384 212 384 203 366 c 128,-1,24
 194 348 194 348 190 318.5 c 128,-1,25
 186 289 186 289 186 245 c 0,26,27
 186 203 186 203 189.5 175.5 c 128,-1,28
 193 148 193 148 202 131.5 c 128,-1,29
 211 115 211 115 226 108 c 128,-1,30
 241 101 241 101 264 101 c 256,31,32
 287 101 287 101 302.5 108 c 128,-1,33
 318 115 318 115 327 131.5 c 128,-1,34
 336 148 336 148 340 175.5 c 128,-1,35
 344 203 344 203 344 245 c 0,16,17
100 687 m 1,36,37
 123 706 123 706 149.5 713 c 128,-1,38
 176 720 176 720 196 720 c 0,39,40
 214 720 214 720 233 714 c 128,-1,41
 252 708 252 708 271 700.5 c 128,-1,42
 290 693 290 693 307.5 687 c 128,-1,43
 325 681 325 681 340 681 c 0,44,45
 366 681 366 681 388 690.5 c 128,-1,46
 410 700 410 700 430 717 c 1,47,-1
 430 613 l 1,48,49
 410 594 410 594 385 587 c 128,-1,50
 360 580 360 580 334 580 c 0,51,52
 315 580 315 580 296.5 586 c 128,-1,53
 278 592 278 592 259.5 599.5 c 128,-1,54
 241 607 241 607 223.5 613 c 128,-1,55
 206 619 206 619 190 619 c 0,56,57
 164 619 164 619 140 608 c 128,-1,58
 116 597 116 597 100 583 c 1,59,-1
 100 687 l 1,36,37
EndSplineSet
EndChar

StartChar: scaron
Encoding: 353 353 221
Width: 425
Flags: W
LayerCount: 2
Fore
SplineSet
385 151 m 0,0,1
 385 105 385 105 370.5 74.5 c 128,-1,2
 356 44 356 44 329.5 25.5 c 128,-1,3
 303 7 303 7 266 -1 c 128,-1,4
 229 -9 229 -9 184 -9 c 0,5,6
 165 -9 165 -9 145 -7.5 c 128,-1,7
 125 -6 125 -6 106.5 -3.5 c 128,-1,8
 88 -1 88 -1 72.5 1.5 c 128,-1,9
 57 4 57 4 47 7 c 1,10,-1
 47 121 l 1,11,12
 67 116 67 116 99 109.5 c 128,-1,13
 131 103 131 103 166 103 c 256,14,15
 201 103 201 103 224.5 111 c 128,-1,16
 248 119 248 119 248 145 c 0,17,18
 248 168 248 168 235.5 180 c 128,-1,19
 223 192 223 192 185 199 c 0,20,21
 108 213 108 213 76.5 251 c 128,-1,22
 45 289 45 289 45 353 c 0,23,24
 45 437 45 437 96 473 c 128,-1,25
 147 509 147 509 253 509 c 0,26,27
 268 509 268 509 285 507 c 128,-1,28
 302 505 302 505 318 502.5 c 128,-1,29
 334 500 334 500 347.5 497 c 128,-1,30
 361 494 361 494 368 492 c 1,31,-1
 368 378 l 1,32,33
 345 385 345 385 317.5 391 c 128,-1,34
 290 397 290 397 249 397 c 0,35,36
 212 397 212 397 196 388 c 128,-1,37
 180 379 180 379 180 356 c 0,38,39
 180 338 180 338 196 328.5 c 128,-1,40
 212 319 212 319 245 314 c 0,41,42
 323 301 323 301 354 260.5 c 128,-1,43
 385 220 385 220 385 151 c 0,0,1
176 716 m 1,44,-1
 226 642 l 1,45,-1
 276 716 l 1,46,-1
 422 716 l 1,47,-1
 300 581 l 1,48,-1
 152 581 l 1,49,-1
 29 716 l 1,50,-1
 176 716 l 1,44,-1
EndSplineSet
EndChar

StartChar: uacute
Encoding: 250 250 222
Width: 518
Flags: W
LayerCount: 2
Fore
SplineSet
193 500 m 1,0,-1
 193 182 l 2,1,2
 193 157 193 157 197 142 c 128,-1,3
 201 127 201 127 208 119 c 128,-1,4
 215 111 215 111 225.5 108.5 c 128,-1,5
 236 106 236 106 249 106 c 0,6,7
 287 106 287 106 303.5 130 c 128,-1,8
 320 154 320 154 320 181 c 2,9,-1
 320 500 l 1,10,-1
 453 500 l 1,11,-1
 453 0 l 1,12,-1
 345 0 l 1,13,-1
 336 39 l 1,14,15
 313 17 313 17 284 4 c 128,-1,16
 255 -9 255 -9 217 -9 c 0,17,18
 170 -9 170 -9 139.5 3 c 128,-1,19
 109 15 109 15 91.5 39.5 c 128,-1,20
 74 64 74 64 67 100.5 c 128,-1,21
 60 137 60 137 60 186 c 2,22,-1
 60 500 l 1,23,-1
 193 500 l 1,0,-1
150 580 m 1,24,-1
 254 715 l 1,25,-1
 413 715 l 1,26,-1
 261 580 l 1,27,-1
 150 580 l 1,24,-1
EndSplineSet
EndChar

StartChar: ucircumflex
Encoding: 251 251 223
Width: 518
Flags: W
LayerCount: 2
Fore
SplineSet
193 500 m 1,0,-1
 193 182 l 2,1,2
 193 157 193 157 197 142 c 128,-1,3
 201 127 201 127 208 119 c 128,-1,4
 215 111 215 111 225.5 108.5 c 128,-1,5
 236 106 236 106 249 106 c 0,6,7
 287 106 287 106 303.5 130 c 128,-1,8
 320 154 320 154 320 181 c 2,9,-1
 320 500 l 1,10,-1
 453 500 l 1,11,-1
 453 0 l 1,12,-1
 345 0 l 1,13,-1
 336 39 l 1,14,15
 313 17 313 17 284 4 c 128,-1,16
 255 -9 255 -9 217 -9 c 0,17,18
 170 -9 170 -9 139.5 3 c 128,-1,19
 109 15 109 15 91.5 39.5 c 128,-1,20
 74 64 74 64 67 100.5 c 128,-1,21
 60 137 60 137 60 186 c 2,22,-1
 60 500 l 1,23,-1
 193 500 l 1,0,-1
306 580 m 1,24,-1
 256 654 l 1,25,-1
 206 580 l 1,26,-1
 60 580 l 1,27,-1
 182 715 l 1,28,-1
 330 715 l 1,29,-1
 453 580 l 1,30,-1
 306 580 l 1,24,-1
EndSplineSet
EndChar

StartChar: udieresis
Encoding: 252 252 224
Width: 518
Flags: W
LayerCount: 2
Fore
SplineSet
193 500 m 1,0,-1
 193 182 l 2,1,2
 193 157 193 157 197 142 c 128,-1,3
 201 127 201 127 208 119 c 128,-1,4
 215 111 215 111 225.5 108.5 c 128,-1,5
 236 106 236 106 249 106 c 0,6,7
 287 106 287 106 303.5 130 c 128,-1,8
 320 154 320 154 320 181 c 2,9,-1
 320 500 l 1,10,-1
 453 500 l 1,11,-1
 453 0 l 1,12,-1
 345 0 l 1,13,-1
 336 39 l 1,14,15
 313 17 313 17 284 4 c 128,-1,16
 255 -9 255 -9 217 -9 c 0,17,18
 170 -9 170 -9 139.5 3 c 128,-1,19
 109 15 109 15 91.5 39.5 c 128,-1,20
 74 64 74 64 67 100.5 c 128,-1,21
 60 137 60 137 60 186 c 2,22,-1
 60 500 l 1,23,-1
 193 500 l 1,0,-1
292 560 m 1,24,-1
 292 675 l 1,25,-1
 422 675 l 1,26,-1
 422 560 l 1,27,-1
 292 560 l 1,24,-1
92 560 m 1,28,-1
 92 675 l 1,29,-1
 222 675 l 1,30,-1
 222 560 l 1,31,-1
 92 560 l 1,28,-1
EndSplineSet
EndChar

StartChar: ugrave
Encoding: 249 249 225
Width: 518
Flags: W
LayerCount: 2
Fore
SplineSet
193 500 m 1,0,-1
 193 182 l 2,1,2
 193 157 193 157 197 142 c 128,-1,3
 201 127 201 127 208 119 c 128,-1,4
 215 111 215 111 225.5 108.5 c 128,-1,5
 236 106 236 106 249 106 c 0,6,7
 287 106 287 106 303.5 130 c 128,-1,8
 320 154 320 154 320 181 c 2,9,-1
 320 500 l 1,10,-1
 453 500 l 1,11,-1
 453 0 l 1,12,-1
 345 0 l 1,13,-1
 336 39 l 1,14,15
 313 17 313 17 284 4 c 128,-1,16
 255 -9 255 -9 217 -9 c 0,17,18
 170 -9 170 -9 139.5 3 c 128,-1,19
 109 15 109 15 91.5 39.5 c 128,-1,20
 74 64 74 64 67 100.5 c 128,-1,21
 60 137 60 137 60 186 c 2,22,-1
 60 500 l 1,23,-1
 193 500 l 1,0,-1
222 580 m 1,24,-1
 70 715 l 1,25,-1
 229 715 l 1,26,-1
 333 580 l 1,27,-1
 222 580 l 1,24,-1
EndSplineSet
EndChar

StartChar: yacute
Encoding: 253 253 226
Width: 493
Flags: W
LayerCount: 2
Fore
SplineSet
345 -42 m 2,0,1
 313 -177 313 -177 203 -177 c 0,2,3
 195 -177 195 -177 181.5 -176.5 c 128,-1,4
 168 -176 168 -176 154.5 -175.5 c 128,-1,5
 141 -175 141 -175 129.5 -174 c 128,-1,6
 118 -173 118 -173 113 -172 c 1,7,-1
 113 -59 l 1,8,9
 137 -62 137 -62 162 -62 c 0,10,11
 203 -62 203 -62 211 -18 c 2,12,-1
 214 0 l 1,13,-1
 180 0 l 1,14,-1
 20 500 l 1,15,-1
 162 500 l 1,16,-1
 259 111 l 1,17,-1
 344 500 l 1,18,-1
 473 500 l 1,19,-1
 345 -42 l 2,0,1
173 580 m 1,20,-1
 277 715 l 1,21,-1
 436 715 l 1,22,-1
 284 580 l 1,23,-1
 173 580 l 1,20,-1
EndSplineSet
EndChar

StartChar: ydieresis
Encoding: 255 255 227
Width: 493
Flags: W
LayerCount: 2
Fore
SplineSet
345 -42 m 2,0,1
 313 -177 313 -177 203 -177 c 0,2,3
 195 -177 195 -177 181.5 -176.5 c 128,-1,4
 168 -176 168 -176 154.5 -175.5 c 128,-1,5
 141 -175 141 -175 129.5 -174 c 128,-1,6
 118 -173 118 -173 113 -172 c 1,7,-1
 113 -59 l 1,8,9
 137 -62 137 -62 162 -62 c 0,10,11
 203 -62 203 -62 211 -18 c 2,12,-1
 214 0 l 1,13,-1
 180 0 l 1,14,-1
 20 500 l 1,15,-1
 162 500 l 1,16,-1
 259 111 l 1,17,-1
 344 500 l 1,18,-1
 473 500 l 1,19,-1
 345 -42 l 2,0,1
279 560 m 1,20,-1
 279 675 l 1,21,-1
 409 675 l 1,22,-1
 409 560 l 1,23,-1
 279 560 l 1,20,-1
79 560 m 1,24,-1
 79 675 l 1,25,-1
 209 675 l 1,26,-1
 209 560 l 1,27,-1
 79 560 l 1,24,-1
EndSplineSet
EndChar

StartChar: zcaron
Encoding: 382 382 228
Width: 418
Flags: W
LayerCount: 2
Fore
SplineSet
191 107 m 1,0,-1
 387 107 l 1,1,-1
 387 0 l 1,2,-1
 39 0 l 1,3,-1
 39 111 l 1,4,-1
 246 393 l 1,5,-1
 59 393 l 1,6,-1
 59 500 l 1,7,-1
 397 500 l 1,8,-1
 397 380 l 1,9,-1
 191 107 l 1,0,-1
177 716 m 1,10,-1
 227 642 l 1,11,-1
 277 716 l 1,12,-1
 423 716 l 1,13,-1
 301 581 l 1,14,-1
 153 581 l 1,15,-1
 30 716 l 1,16,-1
 177 716 l 1,10,-1
EndSplineSet
EndChar

StartChar: quotedbl
Encoding: 34 34 229
Width: 420
Flags: W
LayerCount: 2
Fore
SplineSet
155 433 m 1,0,-1
 70 433 l 1,1,-1
 40 590 l 1,2,-1
 40 700 l 1,3,-1
 185 700 l 1,4,-1
 185 590 l 1,5,-1
 155 433 l 1,0,-1
350 433 m 1,6,-1
 265 433 l 1,7,-1
 235 590 l 1,8,-1
 235 700 l 1,9,-1
 380 700 l 1,10,-1
 380 590 l 1,11,-1
 350 433 l 1,6,-1
EndSplineSet
EndChar

StartChar: exclam
Encoding: 33 33 230
Width: 270
Flags: W
LayerCount: 2
Fore
SplineSet
60 0 m 1,0,-1
 60 130 l 1,1,-1
 210 130 l 1,2,-1
 210 0 l 1,3,-1
 60 0 l 1,0,-1
67 228 m 1,4,-1
 67 700 l 1,5,-1
 202 700 l 1,6,-1
 202 228 l 1,7,-1
 67 228 l 1,4,-1
EndSplineSet
EndChar

StartChar: uni00AD
Encoding: 173 173 232
Width: 495
Flags: W
LayerCount: 2
Fore
SplineSet
75 245 m 1,0,-1
 75 360 l 1,1,-1
 420 360 l 1,2,-1
 420 245 l 1,3,-1
 75 245 l 1,0,-1
EndSplineSet
EndChar

StartChar: uni02C9
Encoding: 713 713 233
Width: 345
Flags: W
LayerCount: 2
Fore
SplineSet
25 591 m 1,0,-1
 25 700 l 1,1,-1
 320 700 l 1,2,-1
 320 591 l 1,3,-1
 25 591 l 1,0,-1
EndSplineSet
EndChar

StartChar: uni03BC
Encoding: 956 956 234
Width: 523
Flags: W
LayerCount: 2
Fore
SplineSet
65 -170 m 1,0,-1
 65 500 l 1,1,-1
 198 500 l 1,2,-1
 198 182 l 2,3,4
 198 157 198 157 202 142 c 128,-1,5
 206 127 206 127 213 119 c 128,-1,6
 220 111 220 111 230.5 108.5 c 128,-1,7
 241 106 241 106 254 106 c 0,8,9
 292 106 292 106 308.5 130 c 128,-1,10
 325 154 325 154 325 181 c 2,11,-1
 325 500 l 1,12,-1
 458 500 l 1,13,-1
 458 0 l 1,14,-1
 350 0 l 1,15,-1
 341 39 l 1,16,17
 318 17 318 17 289 4 c 128,-1,18
 260 -9 260 -9 222 -9 c 0,19,20
 215 -9 215 -9 209 -8.5 c 128,-1,21
 203 -8 203 -8 198 -8 c 1,22,-1
 198 -170 l 1,23,-1
 65 -170 l 1,0,-1
EndSplineSet
EndChar

StartChar: pi
Encoding: 960 960 235
Width: 584
Flags: W
LayerCount: 2
Fore
SplineSet
459 386 m 1,0,-1
 459 147 l 2,1,2
 459 127 459 127 465.5 118.5 c 128,-1,3
 472 110 472 110 492 110 c 0,4,5
 500 110 500 110 507.5 111.5 c 128,-1,6
 515 113 515 113 519 114 c 1,7,-1
 519 3 l 1,8,9
 505 1 505 1 488 -1 c 128,-1,10
 471 -3 471 -3 441 -3 c 0,11,12
 377 -3 377 -3 351.5 34 c 128,-1,13
 326 71 326 71 326 142 c 2,14,-1
 326 386 l 1,15,-1
 247 386 l 1,16,-1
 247 0 l 1,17,-1
 114 0 l 1,18,-1
 114 386 l 1,19,-1
 35 386 l 1,20,-1
 35 500 l 1,21,-1
 549 500 l 1,22,-1
 549 386 l 1,23,-1
 459 386 l 1,0,-1
EndSplineSet
EndChar

StartChar: Euro
Encoding: 8364 8364 236
Width: 470
Flags: W
LayerCount: 2
Fore
SplineSet
427 6 m 1,0,1
 419 4 419 4 405 1 c 128,-1,2
 391 -2 391 -2 375 -4 c 128,-1,3
 359 -6 359 -6 342.5 -7.5 c 128,-1,4
 326 -9 326 -9 314 -9 c 0,5,6
 266 -9 266 -9 229 1 c 128,-1,7
 192 11 192 11 166.5 38 c 128,-1,8
 141 65 141 65 125 112 c 128,-1,9
 109 159 109 159 103 232 c 1,10,-1
 25 232 l 1,11,-1
 45 325 l 1,12,-1
 98 325 l 1,13,-1
 98 392 l 1,14,-1
 25 392 l 1,15,-1
 45 485 l 1,16,-1
 103 485 l 1,17,18
 110 557 110 557 126 601 c 128,-1,19
 142 645 142 645 168.5 669 c 128,-1,20
 195 693 195 693 232 701 c 128,-1,21
 269 709 269 709 317 709 c 0,22,23
 327 709 327 709 343.5 707.5 c 128,-1,24
 360 706 360 706 376.5 704 c 128,-1,25
 393 702 393 702 407 699.5 c 128,-1,26
 421 697 421 697 427 695 c 1,27,-1
 403 579 l 1,28,29
 380 584 380 584 358 586.5 c 128,-1,30
 336 589 336 589 304 589 c 0,31,32
 289 589 289 589 278 585.5 c 128,-1,33
 267 582 267 582 259.5 570.5 c 128,-1,34
 252 559 252 559 247 538.5 c 128,-1,35
 242 518 242 518 239 485 c 1,36,-1
 387 485 l 1,37,-1
 368 392 l 1,38,-1
 235 392 l 1,39,-1
 235 325 l 1,40,-1
 355 325 l 1,41,-1
 337 232 l 1,42,-1
 239 232 l 1,43,44
 242 194 242 194 248.5 170.5 c 128,-1,45
 255 147 255 147 264 133.5 c 128,-1,46
 273 120 273 120 285.5 115.5 c 128,-1,47
 298 111 298 111 314 111 c 0,48,49
 345 111 345 111 376.5 116 c 128,-1,50
 408 121 408 121 427 126 c 1,51,-1
 427 6 l 1,0,1
EndSplineSet
EndChar

